<?xml version="1.0" encoding="utf-8"?>
<!-- Generator: Adobe Illustrator 24.3.0, SVG Export Plug-In . SVG Version: 6.00 Build 0)  -->
<svg version="1.1" id="Слой_1" xmlns="http://www.w3.org/2000/svg" xmlns:xlink="http://www.w3.org/1999/xlink" x="0px" y="0px"
	 viewBox="0 0 67.7 71.3" style="enable-background:new 0 0 67.7 71.3;" xml:space="preserve">
<style type="text/css">
	.st0{fill:#FED076;}
</style>
<path class="st0" d="M119.4,42.7c2.8,0.1,5.6,0,8.4,0.1c1.6,0.1,2.2-0.4,2.2-2.1c-0.1-10,0-20,0-30.1c0-1.6-0.4-2.3-2.1-2.3
	c-10,0.1-20,0.1-30.1,0.1c-1.1,0-1.6,0.4-1.5,1.5c0.1,1.8,0,3.6,0,5.4c0,6.1,0,6.1-6.1,6c-1.4,0-1.9-0.4-1.9-1.8
	c0.1-2.9-0.1-5.9,0.1-8.8c0.1-1.7-0.5-2.3-2.2-2.3c-9.8,0.1-19.6,0-29.5,0h-102c-1.2,0-2.4-0.3-2.8,1.7C-54,37.5-83.6,53-106.5,46.2
	c-18.7-5.5-30.7-17.1-35.5-36.1c-0.3-1.3-0.8-1.8-2.1-1.8c-25.5,0.1-50.9,0.2-76.4,0.3c-3.7,0-7.5,0-11.2,0c-6.3,0-12.5,0-18.8,0
	c-4,0-8,0.1-12,0.1c-4.9,0-9.7-0.1-14.6-0.2c-1.2,0-1.5,0.6-1.5,1.6c0,2.1,0,4.1,0,6.2c0,4.9,0,4.9-5,4.9c-2.8,0-2.8,0-2.9-2.8v-10
	c-4.6,0-9,0-13.3,0c-6.2,0.1-12.4,0.2-18.6,0.2c-1.5,0-2,0.4-2,1.9c0,10.2,0,20.5,0,30.7c0,1.3,0.4,1.6,1.6,1.6c3.1-0.1,6.3,0,9.4,0
	c1.2,0,1.7,0.5,1.6,1.6c0,1.6-0.1,3.2,0,4.8c0,1.2-0.4,1.7-1.6,1.7c-2.9,0-5.8,0.1-8.6,0c-1.9-0.1-2.5,0.5-2.5,2.5c0,6,0,12,0,18
	h3.2c0-5.1,0-10.1,0-15.2c0-1.8,0.5-2.5,2.4-2.4c1.2,0.1,1.6,0.6,1.6,1.7c0,3.3,0,6.6,0,9.8v6h2.8V61c0-1.9,0-3.7,0-5.6
	c0-1.2,0.3-1.7,1.6-1.7c4.3-0.2,4.3-0.2,4.3-4.6c0-1.6,0-3.2,0-4.8c0-1.1,0.4-1.6,1.5-1.5c5.9,0.1,4.7-0.7,4.8,4.5
	c0.1,3.1-0.1,6.2,0,9.2c0.1,1.9-0.6,2.5-2.4,2.3c-1.5-0.1-3.1,0-4.6,0c-1.5-0.1-2,0.4-2,1.9c0,3.5,0,7.1,0,10.6h2.6v-7.6
	c0-1.7,0.5-2.3,2.2-2.1c1.7,0.1,3.5,0,5.2,0c1.1,0,1.7-0.3,1.7-1.6c0-6.2,0-12.4,0-18.6c0-1.2-0.5-1.6-1.6-1.5
	c-1.5,0.2-1.9-0.6-1.8-1.9c0-0.4,0-0.8,0-1.2c0-3.1,0-3.1,3-3.5c0.1-0.1,0.2-0.3,0.3-0.5c0.2-0.8,0.4-2.4,0.7-2.4
	c1.8-0.2,3.6-0.1,5.4,0.1c0.2,0,0.4,1,0.4,1.6c0,1,0.5,1.4,1.5,1.4c6.1,0,12.2,0,18.2-0.1c0.5,0,1.3-0.9,1.3-1.4
	c0.2-1.9,0.2-3.7,0.1-5.6c-0.1-1.6,0.6-2.1,2.1-2c1,0.1,2,0,3,0c40.3,0,80.6,0,120.9,0c1.8,0,2.8,0.5,3.8,2.1
	c8.4,13.4,20.7,21,36.1,23.6c15.6,2.6,29.2-2.5,40.9-12.6c3.8-3.2,6.6-7.6,9.7-11.6c0.8-1,1.5-1.4,2.8-1.4c35.3,0,70.6,0,105.9,0
	c6.2,0,12.4,0,18.6,0c1.7,0,2.2,0.5,2.2,2.2c-0.1,2.2,0,4.4,0,6.9c6.9,0,13.5,0,20-0.1c0.4,0,1.2-0.9,1.2-1.3c0-1.6,0.7-2,2.1-1.8
	c0.7,0.1,1.3,0.1,2,0c1.5-0.1,2.6,0.1,2.5,2.1c0,0.3,0.9,1.1,1.4,1.1c1.5,0,1.9,0.6,1.8,2c0,0.4,0,0.8,0,1.2c0,3.1,0,3.1-3,3.6
	c-0.1,0.5-0.2,1-0.2,1.5c0,6,0,12,0,18c0,1.5,0.5,2,2,2c1.9-0.1,3.7,0,5.6,0c1,0,1.5,0.4,1.4,1.5c0,0.6,0,1.2,0,1.8v6.4h2.7V62
	c0-2.9,0-2.8-3-2.9c-1.9,0-4.4,0.4-5.5-0.6c-1-0.9-0.4-3.5-0.4-5.4c0-2.7,0-5.5,0-8.2c0-1.4,0.5-1.9,1.9-1.8
	c5.4,0.1,4.4-0.6,4.5,4.4c0,1.6,0.1,3.2,0,4.8c-0.1,1.3,0.4,1.7,1.7,1.8c4.1,0.1,4.1,0.2,4.1,4.4v13.2h2.8v-15
	c0-1.1-0.5-2.5,1.5-2.6c2.3,0,2.5,0,2.5,2.4v15.2h2.8c0-6,0-12.1,0-18.1c0-1.7-0.3-2.5-2.2-2.4c-2.9,0.1-5.9,0-8.8,0
	c-1.2,0-1.7-0.4-1.7-1.6c0.1-1.5,0.1-2.9,0-4.4C117.3,43.3,117.8,42.6,119.4,42.7z M-313.8,35.8c0,0.3,0,0.5,0,0.8
	c0,0.6,0,1.2,0,1.8c0.1,1.4-0.8,1.4-1.8,1.5c-1.1,0-1.8-0.2-1.7-1.5c0-0.9,0-1.7,0-2.6c0-1.2-0.2-2.4,1.7-2.4
	C-313.6,33.3-313.7,34.5-313.8,35.8z M-309.7,39.9c-1.6-0.1-1.4-1.3-1.2-2.2c0.3-1.4-1.3-3.6,1.2-4.2c2.1-0.5,2.3,0,2.3,3.2
	C-307.4,39.8-307.6,40-309.7,39.9z M-301.5,35.2c-0.1,0.5,0,1.1,0,1.6c0,3-0.4,3.6-2.1,3c-2.1-0.6-0.8-2.5-1-3.8
	c-0.1-0.9-0.7-2.3,1-2.6C-302.4,33.3-301.3,33.4-301.5,35.2z M-298.3,28.7c0,1.4-0.5,1.9-1.9,1.8c-5.1-0.1-10.2-0.1-15.2,0
	c-1.5,0-2-0.6-1.9-2c0.1-2.6,0-5.2,0-7.8c0-2.5,0.1-5.1,0-7.6c0-1.4,0.5-1.9,1.9-1.9c5.1,0.1,10.1,0.1,15.2,0c1.4,0,1.9,0.4,1.9,1.8
	C-298.4,18.3-298.4,23.5-298.3,28.7z M-295.5,12.3c0.1-0.3,0.4-0.9,0.6-0.9c1.8-0.1,3.6-0.1,5.3,0.1c0.3,0,0.5,1.5,0.5,2.3
	c0,0.4-0.7,0.9-1.1,1c-0.7,0.2-1.5,0-2.2,0C-295.4,14.9-296,14.5-295.5,12.3z M-295.6,19.5c0-2.1,1.3-1.7,2.5-1.7c0.3,0,0.5,0,0.8,0
	c0.5,0,1.1,0,1.6,0c1.4-0.1,1.7,0.5,1.7,1.8c0,1.1-0.1,2-1.6,1.8c-0.8-0.1-1.6,0-2.4,0C-294.3,21.3-295.7,21.7-295.6,19.5z
	 M-291.2,27.4c-0.4,0-0.8,0-1.2,0c-0.6,0-1.3,0.2-1.8,0c-0.5-0.3-1.1-0.9-1.3-1.5c-0.2-0.9,0-1.7,1.3-1.7c1,0,2,0,3,0
	c1.1,0,2.1-0.2,2.2,1.5C-289,27.4-290,27.4-291.2,27.4z M-273.3,11.2c16.8,0,33.5,0,50.3,0c25.1,0,50.2,0,75.3,0
	c3.3,0,3.6,0.3,3.8,4c-0.8,0-1.5,0.1-2.3,0.1c-42.3,0-84.6,0-126.8,0c-1.3,0-2.7,0.4-2.7-1.8C-275.8,11.5-275,11.2-273.3,11.2z
	 M-144,21.5c-41.4,0-82.8,0-124.2-0.1c-2,0-2.8,0.5-2.6,2.6c0.2,1.5,0,3.1,0,4.6c0.1,1.4-0.3,2.1-1.9,2c-3.9-0.1-7.9-0.1-11.8,0
	c-1.4,0-1.9-0.5-1.8-1.9c0.1-5.5-0.6-4.5,4.3-4.6c1.5,0,3.1-0.1,4.6,0c1.2,0,1.6-0.4,1.7-1.6c0.2-4.3,0.2-4.3,4.5-4.3
	c26.8,0,53.6,0,80.4,0c15.4,0,30.7,0,46.1,0c2.6,0,2.8,0.2,3.3,3.3H-144z M-42.1,11.3H83c1.4,0,2.8-0.3,2.8,2
	c-0.1,1.7-0.6,2.2-2.2,2.2c-35.3,0-70.5,0-105.8-0.1c-7.1,0-14.3,0-21.4,0h-2.7C-45.7,11.3-45.7,11.3-42.1,11.3z M91.8,30.6
	c-3.1,0.1-6.1,0-9.2,0c-1.4,0-2-0.4-1.9-1.8c0.1-1.7-0.1-3.5,0-5.2c0.1-1.7-0.5-2.2-2.2-2.1c-9.3,0.1-18.6,0-27.9,0h-99.4
	c0.3-2.3,1.1-3.3,3.4-3.3c42.8,0.1,85.5,0,128.2,0c2.7,0,2.7,0,2.7,2.8c0,0.5,0,0.9,0,1.4c-0.2,1.4,0.5,1.9,1.9,1.8
	c2.4-0.1,4.8,0,7.2,0c1.2,0,1.7,0.3,1.7,1.6C96.3,31.7,97.1,30.5,91.8,30.6z M99.2,12.3c0.1-0.3,0.4-0.9,0.6-0.9
	c1.8-0.1,3.6-0.1,5.3,0.1c0.3,0,0.5,1.5,0.5,2.3c0,0.4-0.7,0.9-1.1,1c-0.7,0.2-1.4,0-2.2,0C99.2,14.9,98.7,14.5,99.2,12.3z
	 M101.6,17.7c0.3,0,0.5,0,0.8,0c0.6,0,1.2,0,1.8,0c1.2-0.1,1.4,0.7,1.4,1.7c0,0.9,0.2,2-1.3,1.9c-0.9,0-1.7,0-2.6,0
	c-1.3,0-2.6,0.3-2.6-1.9C99.1,17.3,100.4,17.8,101.6,17.7z M103.5,27.4c-0.4,0-0.8,0-1.2,0l0,0c-0.6,0-1.2,0-1.8,0
	c-1.2,0.1-1.5-0.7-1.3-1.6c0.2-0.6,0.7-1.4,1.2-1.5c0.9-0.2,2-0.1,3-0.1c1.2,0,2.2-0.1,2.2,1.7C105.6,27.5,104.6,27.4,103.5,27.4z
	 M127.3,38.3c0.1,1.4-0.7,1.6-1.8,1.6c-1.1,0-1.8-0.3-1.7-1.6c0.1-0.8,0-1.6,0-2.4c0-1.2-0.3-2.5,1.8-2.5c2.1,0,1.8,1.2,1.8,2.5v0.6
	C127.3,37.1,127.2,37.7,127.3,38.3z M114.6,39.5c-2.9,0.6-3.1,0.5-3.2-2c0-0.8,0-1.6,0-2.4c-0.1-1.1,0.2-1.7,1.5-1.7
	c1.2,0,1.7,0.4,1.6,1.6C114.6,36.6,114.6,38.1,114.6,39.5z M109.9,30.5c-1.2,0-1.7-0.4-1.6-1.7c0-2.7,0-5.3,0-8c0-2.6,0-5.2,0-7.8
	c0-1.3,0.4-1.8,1.7-1.8c5.2,0,10.4,0,15.6,0c1.2,0,1.7,0.5,1.6,1.7c0,5.3,0,10.7,0,16c0,1.3-0.6,1.6-1.7,1.6
	C120.4,30.5,115.2,30.5,109.9,30.5z M117.5,35.6c-0.2-0.8-0.6-2.1,1.1-2.2c2.1-0.2,2.3,0,2.3,3.3c0,3.1-0.3,3.6-2.3,3.1
	C116.1,39.2,117.8,37,117.5,35.6z"/>
<path class="st0" d="M-158.9,6.1c-0.2,0.7-0.3,1.3-0.5,1.9c-1.7,4.7-3.4,9.4-5,14.2c-0.4,1.2-1,1.7-2.3,1.7
	c-5.8,0.1-5.8,0.2-7.7-5.3c-1.5-4.1-2.9-8.1-4.4-12.5C-172,6.1-165.5,6.1-158.9,6.1z M-174.8,8.9c1.4,3.9,2.7,7.7,4.1,11.3
	c0.4,1.1,3.6,1.1,4,0c1.4-3.6,2.6-7.4,4-11.3C-166.8,8.9-170.6,8.9-174.8,8.9z"/>
<path class="st0" d="M-372.6,20.6c0,1.5-0.1,2.9,0,4.4c0.1,1.2-0.3,1.8-1.7,1.8c-2.9-0.1-5.7-0.1-8.6,0c-1.2,0-1.7-0.4-1.6-1.6
	c0.1-3,0.1-6,0-9c0-1.3,0.5-1.6,1.7-1.6c2.9,0,5.7,0.1,8.6,0c1.2,0,1.7,0.4,1.6,1.6C-372.6,17.7-372.6,19.1-372.6,20.6z
	 M-375.4,20.6c0-3.6,0.2-3.1-3.5-3.1c-2.8,0-2.8,0-2.8,3.4c0,3,0,3,3.7,3C-375.4,23.9-375.4,23.9-375.4,20.6z"/>
<path class="st0" d="M108.7,20.7c0.2-1.9-0.3-4.4,0.7-5.5c0.9-1,3.5-0.4,5.4-0.4s4.4-0.4,5.5,0.6c1,0.9,0.3,3.5,0.4,5.4
	c0,1.5,0,3.1,0,4.6c0.1,1.2-0.5,1.6-1.7,1.6c-2.9,0-5.7-0.1-8.6,0c-1.3,0-1.6-0.5-1.6-1.7C108.9,23.8,108.8,22.2,108.7,20.7
	C108.8,20.7,108.7,20.7,108.7,20.7z M115,17.7c-3.3,0-3.3,0-3.3,2.9c0,3.4,0,3.4,2.8,3.4c3.4,0,3.5,0,3.4-2.8
	C117.9,17.5,118.3,17.7,115,17.7z"/>
<path class="st0" d="M136,0c-6.2,0.1-12.4,0-18.6,0H-54c-2.7,0-2.7,0-2.7,2.8c-0.2,5.9-1.6,11.3-4.5,16.5c-0.8,1.4-1.5,1.5-2.8,0.8
	c-6.7-4-10.1-9.9-10.3-17.7c0-1.8-0.5-2.4-2.4-2.4c-12,0.1-24.1,0-36.1,0c-2.6,0-2.6,0-2.7,2.6c-0.3,7.6-3.6,13.4-10.2,17.3
	c-1.5,0.9-2.2,0.6-3-0.8c-2.9-5.1-4.3-10.6-4.5-16.5c-0.1-2.7,0-2.7-2.8-2.7h-189.5c-2.8,0.1-2.8,0.1-2.8,2.8c0,22.8,0,45.7,0,68.5
	h2.7c0-19.9,0-39.9,0-59.8V2.8h15.5c16.8,0,33.6,0,50.4,0c11.3,0,22.7,0.1,34,0.1c29,0,58,0,87,0c2,0,2.7,0.6,2.9,2.6
	c1.3,15,10,24.8,23.1,31c3.6,1.7,7.5,2.8,11.3,4.1c3.9,1.3,7.8,1.4,11.8,0.4c8.6-2.3,16.7-5.7,23.5-11.6C-58.9,23.1-55,15.2-54,5.7
	c0.3-2.8-0.4-2.8,3.2-2.8h155c9.7,0,19.4,0,29.1,0c1.9,0,2.5,0.4,2.5,2.4c0,22,0,44,0,66h2.5v-0.6c0-9.4,0-18.7,0-28.1
	c0-13.5,0-27,0.1-40.5C138.2,0.5,137.7,0,136,0z M-111.6,3h33.3c-0.2,0.8-0.4,1.4-0.6,1.9c-3,7.2-6.1,14.4-9.1,21.6
	c-0.5,1.2-1.2,1.8-2.5,1.7c-3.1-0.1-6.1,0-9.2-0.1c-0.7,0-1.7-0.5-1.9-1c-3.4-7.8-6.7-15.6-10-23.4C-111.7,3.6-111.6,3.4-111.6,3z
	 M-125.7,23.2c6.1-3.4,10.5-8.2,12.4-15.2c1.2,2,2.5,3.8,1.2,6.4c-1.9,4-4.4,7.6-8,10.3C-122.9,26.9-123.7,26.8-125.7,23.2z
	 M-117.3,30.9c-0.9-0.8-1.9-1.4-2.9-2.1c2.2-2,4.3-3.7,6-5.7s3-4.3,4.5-6.5c2.4,2.8,2.7,4.7,0.6,7.5c-1.7,2.3-3.6,4.3-5.4,6.5
	C-115.3,31.7-116.2,31.9-117.3,30.9z M-110.5,34.6c-0.8-0.2-1.5-0.7-2.4-1.2c2.4-2.9,4.6-5.6,7.1-8.6c0.6,1.5,1.2,2.7,1.6,4
	c0.1,0.4,0,1-0.2,1.3c-1.3,1.5-2.5,3.1-4,4.5C-108.8,34.9-109.9,34.7-110.5,34.6z M-102.6,36.5c-1.1,1.6-2-0.1-3.2,0.1
	c2.2-4.3,4.3-5.8,6.8-5.2C-100.2,33.1-101.4,34.8-102.6,36.5z M-99.8,38c0.2-2.4,2.1-4.2,4.4-4.4c2.3-0.2,4.4,1.6,5.1,4.3
	C-93.5,39.3-96.6,39.2-99.8,38z M-88.1,35.1c-0.6-1.4-2.1-2.5-3.1-3.7c2.6-0.8,3.8,0,6.9,4.8C-86.1,37.4-87.2,37.4-88.1,35.1z
	 M-79.3,34.5c-1.2,0.7-2.2,0.6-3.1-0.7c-0.5-0.7-1.1-1.3-1.7-2c-2.4-2.7-2.4-3.7,0-6.8c2.2,2.7,4.5,5.4,6.8,8.3
	C-77.9,33.8-78.6,34.1-79.3,34.5z M-73.5,31.3c-0.4,0.2-1.4-0.1-1.8-0.5c-1.8-2-3.6-4-5.3-6.2c-2.4-3.1-2.3-4,0.3-8.5
	c2.6,5.2,5.8,9.4,10.9,12.5C-71,29.7-72.2,30.6-73.5,31.3z M-66.6,25.9c-0.3,0.3-1.2,0.3-1.5,0.1c-5.1-3.1-8.6-7.6-10.4-13.2
	c-0.4-1.3,0.7-3.1,1.1-4.6c0.3,0,0.5,0,0.8-0.1c1.8,6.9,6,11.8,12.5,15.3C-65,24.3-65.7,25.2-66.6,25.9z"/>
</svg>
