<?xml version="1.0" encoding="utf-8"?>
<!-- Generator: Adobe Illustrator 24.3.0, SVG Export Plug-In . SVG Version: 6.00 Build 0)  -->
<svg version="1.1" id="Слой_1" xmlns="http://www.w3.org/2000/svg" xmlns:xlink="http://www.w3.org/1999/xlink" x="0px" y="0px"
	 viewBox="0 0 67.7 71.3" style="enable-background:new 0 0 67.7 71.3;" xml:space="preserve">
<style type="text/css">
	.st0{fill:#FED076;}
</style>
<path class="st0" d="M67.7,21.5v3H0v-3h50.6C56.3,21.5,62,21.5,67.7,21.5z"/>
<path class="st0" d="M67.7,15.5v2.7c-22.6,0-45.1,0-67.7,0v-2.8C22.6,15.5,45.1,15.5,67.7,15.5z"/>
<path class="st0" d="M67.7,8.4v2.9H0V8.4h56.7C60.4,8.4,64,8.4,67.7,8.4z"/>
<path class="st0" d="M-158.9,6.1c-0.2,0.7-0.3,1.3-0.5,1.9c-1.7,4.7-3.4,9.4-5,14.2c-0.4,1.2-1,1.7-2.3,1.7
	c-5.8,0.1-5.8,0.2-7.7-5.3c-1.5-4.1-2.9-8.1-4.4-12.5C-172,6.1-165.5,6.1-158.9,6.1z M-174.8,8.9c1.4,3.9,2.7,7.7,4.1,11.3
	c0.4,1.1,3.6,1.1,4,0c1.4-3.6,2.6-7.4,4-11.3C-166.8,8.9-170.6,8.9-174.8,8.9z"/>
<path class="st0" d="M-372.6,20.6c0,1.5-0.1,2.9,0,4.4c0.1,1.2-0.3,1.8-1.7,1.8c-2.9-0.1-5.7-0.1-8.6,0c-1.2,0-1.7-0.4-1.6-1.6
	c0.1-3,0.1-6,0-9c0-1.3,0.5-1.6,1.7-1.6c2.9,0,5.7,0.1,8.6,0c1.2,0,1.7,0.4,1.6,1.6C-372.6,17.7-372.6,19.1-372.6,20.6z
	 M-375.4,20.6c0-3.6,0.2-3.1-3.5-3.1c-2.8,0-2.8,0-2.8,3.4c0,3,0,3,3.7,3C-375.4,23.9-375.4,23.9-375.4,20.6z"/>
<rect y="0" class="st0" width="67.7" height="2.9"/>
</svg>
