<?xml version="1.0" encoding="utf-8"?>
<!-- Generator: Adobe Illustrator 24.3.0, SVG Export Plug-In . SVG Version: 6.00 Build 0)  -->
<svg version="1.1" id="Слой_1" xmlns="http://www.w3.org/2000/svg" xmlns:xlink="http://www.w3.org/1999/xlink" x="0px" y="0px"
	 viewBox="0 0 104.6 71.3" style="enable-background:new 0 0 104.6 71.3;" xml:space="preserve">
<style type="text/css">
	.st0{fill:#FED076;}
</style>
<path class="st0" d="M265.9,42.5c2.8,0.1,5.6,0,8.4,0.1c1.6,0.1,2.2-0.4,2.2-2.1c-0.1-10,0-20,0-30.1c0-1.6-0.4-2.3-2.1-2.3
	c-10,0.1-20,0.1-30.1,0.1c-1.1,0-1.6,0.4-1.5,1.5c0.1,1.8,0,3.6,0,5.4c0,6.1,0,6.1-6.1,6c-1.4,0-1.9-0.4-1.9-1.8
	c0.1-2.9-0.1-5.9,0.1-8.8c0.1-1.7-0.5-2.3-2.2-2.3c-9.8,0.1-19.6,0-29.5,0h-102c-1.2,0-2.4-0.3-2.8,1.7C92.5,37.3,62.9,52.8,40,46
	C21.3,40.5,9.3,28.9,4.5,9.9C4.2,8.6,3.7,8.1,2.4,8.1C-23.1,8.2-48.5,8.3-74,8.4c-3.7,0-7.5,0-11.2,0c-6.3,0-12.5,0-18.8,0
	c-4,0-8,0.1-12,0.1c-4.9,0-9.7-0.1-14.6-0.2c-1.2,0-1.5,0.6-1.5,1.6c0,2.1,0,4.1,0,6.2c0,4.9,0,4.9-5,4.9c-2.8,0-2.8,0-2.9-2.8v-10
	c-4.6,0-9,0-13.3,0c-6.2,0.1-12.4,0.2-18.6,0.2c-1.5,0-2,0.4-2,1.9c0,10.2,0,20.5,0,30.7c0,1.3,0.4,1.6,1.6,1.6c3.1-0.1,6.3,0,9.4,0
	c1.2,0,1.7,0.5,1.6,1.6c0,1.6-0.1,3.2,0,4.8c0,1.2-0.4,1.7-1.6,1.7c-2.9,0-5.8,0.1-8.6,0c-1.9-0.1-2.5,0.5-2.5,2.5c0,6,0,12,0,18
	h3.2c0-5.1,0-10.1,0-15.2c0-1.8,0.5-2.5,2.4-2.4c1.2,0.1,1.6,0.6,1.6,1.7c0,3.3,0,6.6,0,9.8v6h2.8V60.8c0-1.9,0-3.7,0-5.6
	c0-1.2,0.3-1.7,1.6-1.7c4.3-0.2,4.3-0.2,4.3-4.6c0-1.6,0-3.2,0-4.8c0-1.1,0.4-1.6,1.5-1.5c5.9,0.1,4.7-0.7,4.8,4.5
	c0.1,3.1-0.1,6.2,0,9.2c0.1,1.9-0.6,2.5-2.4,2.3c-1.5-0.1-3.1,0-4.6,0c-1.5-0.1-2,0.4-2,1.9c0,3.5,0,7.1,0,10.6h2.6v-7.6
	c0-1.7,0.5-2.3,2.2-2.1c1.7,0.1,3.5,0,5.2,0c1.1,0,1.7-0.3,1.7-1.6c0-6.2,0-12.4,0-18.6c0-1.2-0.5-1.6-1.6-1.5
	c-1.5,0.2-1.9-0.6-1.8-1.9c0-0.4,0-0.8,0-1.2c0-3.1,0-3.1,3-3.5c0.1-0.1,0.2-0.3,0.3-0.5c0.2-0.8,0.4-2.4,0.7-2.4
	c1.8-0.2,3.6-0.1,5.4,0.1c0.2,0,0.4,1,0.4,1.6c0,1,0.5,1.4,1.5,1.4c6.1,0,12.2,0,18.2-0.1c0.5,0,1.3-0.9,1.3-1.4
	c0.2-1.9,0.2-3.7,0.1-5.6c-0.1-1.6,0.6-2.1,2.1-2c1,0.1,2,0,3,0c40.3,0,80.6,0,120.9,0c1.8,0,2.8,0.5,3.8,2.1
	c8.4,13.4,20.7,21,36.1,23.6c15.6,2.6,29.2-2.5,40.9-12.6c3.8-3.2,6.6-7.6,9.7-11.6c0.8-1,1.5-1.4,2.8-1.4c35.3,0,70.6,0,105.9,0
	c6.2,0,12.4,0,18.6,0c1.7,0,2.2,0.5,2.2,2.2c-0.1,2.2,0,4.4,0,6.9c6.9,0,13.5,0,20-0.1c0.4,0,1.2-0.9,1.2-1.3c0-1.6,0.7-2,2.1-1.8
	c0.7,0.1,1.3,0.1,2,0c1.5-0.1,2.6,0.1,2.5,2.1c0,0.3,0.9,1.1,1.4,1.1c1.5,0,1.9,0.6,1.8,2c0,0.4,0,0.8,0,1.2c0,3.1,0,3.1-3,3.6
	c-0.1,0.5-0.2,1-0.2,1.5c0,6,0,12,0,18c0,1.5,0.5,2,2,2c1.9-0.1,3.7,0,5.6,0c1,0,1.5,0.4,1.4,1.5c0,0.6,0,1.2,0,1.8v6.4h2.7v-9.6
	c0-2.9,0-2.8-3-2.9c-1.9,0-4.4,0.4-5.5-0.6c-1-0.9-0.4-3.5-0.4-5.4c0-2.7,0-5.5,0-8.2c0-1.4,0.5-1.9,1.9-1.8
	c5.4,0.1,4.4-0.6,4.5,4.4c0,1.6,0.1,3.2,0,4.8c-0.1,1.3,0.4,1.7,1.7,1.8c4.1,0.1,4.1,0.2,4.1,4.4v13.2h2.8v-15
	c0-1.1-0.5-2.5,1.5-2.6c2.3,0,2.5,0,2.5,2.4v15.2h2.8c0-6,0-12.1,0-18.1c0-1.7-0.3-2.5-2.2-2.4c-2.9,0.1-5.9,0-8.8,0
	c-1.2,0-1.7-0.4-1.7-1.6c0.1-1.5,0.1-2.9,0-4.4C263.8,43.1,264.3,42.4,265.9,42.5z M-167.3,35.6c0,0.3,0,0.5,0,0.8
	c0,0.6,0,1.2,0,1.8c0.1,1.4-0.8,1.4-1.8,1.5c-1.1,0-1.8-0.2-1.7-1.5c0-0.9,0-1.7,0-2.6c0-1.2-0.2-2.4,1.7-2.4
	C-167.1,33.1-167.2,34.3-167.3,35.6z M-163.2,39.7c-1.6-0.1-1.4-1.3-1.2-2.2c0.3-1.4-1.3-3.6,1.2-4.2c2.1-0.5,2.3,0,2.3,3.2
	C-160.9,39.6-161.1,39.8-163.2,39.7z M-155,35c-0.1,0.5,0,1.1,0,1.6c0,3-0.4,3.6-2.1,3c-2.1-0.6-0.8-2.5-1-3.8
	c-0.1-0.9-0.7-2.3,1-2.6C-155.9,33.1-154.8,33.2-155,35z M-151.8,28.5c0,1.4-0.5,1.9-1.9,1.8c-5.1-0.1-10.2-0.1-15.2,0
	c-1.5,0-2-0.6-1.9-2c0.1-2.6,0-5.2,0-7.8c0-2.5,0.1-5.1,0-7.6c0-1.4,0.5-1.9,1.9-1.9c5.1,0.1,10.1,0.1,15.2,0c1.4,0,1.9,0.4,1.9,1.8
	C-151.9,18.1-151.9,23.3-151.8,28.5z M-149,12.1c0.1-0.3,0.4-0.9,0.6-0.9c1.8-0.1,3.6-0.1,5.3,0.1c0.3,0,0.5,1.5,0.5,2.3
	c0,0.4-0.7,0.9-1.1,1c-0.7,0.2-1.5,0-2.2,0C-148.9,14.7-149.5,14.3-149,12.1z M-149.1,19.3c0-2.1,1.3-1.7,2.5-1.7c0.3,0,0.5,0,0.8,0
	c0.5,0,1.1,0,1.6,0c1.4-0.1,1.7,0.5,1.7,1.8c0,1.1-0.1,2-1.6,1.8c-0.8-0.1-1.6,0-2.4,0C-147.8,21.1-149.2,21.5-149.1,19.3z
	 M-144.7,27.2c-0.4,0-0.8,0-1.2,0c-0.6,0-1.3,0.2-1.8,0c-0.5-0.3-1.1-0.9-1.3-1.5c-0.2-0.9,0-1.7,1.3-1.7c1,0,2,0,3,0
	c1.1,0,2.1-0.2,2.2,1.5C-142.5,27.2-143.5,27.2-144.7,27.2z M-126.8,11c16.8,0,33.5,0,50.3,0c25.1,0,50.2,0,75.3,0
	c3.3,0,3.6,0.3,3.8,4c-0.8,0-1.5,0.1-2.3,0.1c-42.3,0-84.6,0-126.8,0c-1.3,0-2.7,0.4-2.7-1.8C-129.3,11.3-128.5,11-126.8,11z
	 M2.5,21.3c-41.4,0-82.8,0-124.2-0.1c-2,0-2.8,0.5-2.6,2.6c0.2,1.5,0,3.1,0,4.6c0.1,1.4-0.3,2.1-1.9,2c-3.9-0.1-7.9-0.1-11.8,0
	c-1.4,0-1.9-0.5-1.8-1.9c0.1-5.5-0.6-4.5,4.3-4.6c1.5,0,3.1-0.1,4.6,0c1.2,0,1.6-0.4,1.7-1.6c0.2-4.3,0.2-4.3,4.5-4.3
	c26.8,0,53.6,0,80.4,0c15.4,0,30.7,0,46.1,0c2.6,0,2.8,0.2,3.3,3.3H2.5z M104.4,11.1h125.1c1.4,0,2.8-0.3,2.8,2
	c-0.1,1.7-0.6,2.2-2.2,2.2c-35.3,0-70.5,0-105.8-0.1c-7.1,0-14.3,0-21.4,0h-2.7C100.8,11.1,100.8,11.1,104.4,11.1z M238.3,30.4
	c-3.1,0.1-6.1,0-9.2,0c-1.4,0-2-0.4-1.9-1.8c0.1-1.7-0.1-3.5,0-5.2c0.1-1.7-0.5-2.2-2.2-2.1c-9.3,0.1-18.6,0-27.9,0H97.7
	C98,19,98.8,18,101.1,18c42.8,0.1,85.5,0,128.2,0c2.7,0,2.7,0,2.7,2.8c0,0.5,0,0.9,0,1.4c-0.2,1.4,0.5,1.9,1.9,1.8
	c2.4-0.1,4.8,0,7.2,0c1.2,0,1.7,0.3,1.7,1.6C242.8,31.5,243.6,30.3,238.3,30.4z M245.7,12.1c0.1-0.3,0.4-0.9,0.6-0.9
	c1.8-0.1,3.6-0.1,5.3,0.1c0.3,0,0.5,1.5,0.5,2.3c0,0.4-0.7,0.9-1.1,1c-0.7,0.2-1.4,0-2.2,0C245.7,14.7,245.2,14.3,245.7,12.1z
	 M248.1,17.5c0.3,0,0.5,0,0.8,0c0.6,0,1.2,0,1.8,0c1.2-0.1,1.4,0.7,1.4,1.7c0,0.9,0.2,2-1.3,1.9c-0.9,0-1.7,0-2.6,0
	c-1.3,0-2.6,0.3-2.6-1.9C245.6,17.1,246.9,17.6,248.1,17.5z M250,27.2c-0.4,0-0.8,0-1.2,0l0,0c-0.6,0-1.2,0-1.8,0
	c-1.2,0.1-1.5-0.7-1.3-1.6c0.2-0.6,0.7-1.4,1.2-1.5c0.9-0.2,2-0.1,3-0.1c1.2,0,2.2-0.1,2.2,1.7C252.1,27.3,251.1,27.2,250,27.2z
	 M273.8,38.1c0.1,1.4-0.7,1.6-1.8,1.6c-1.1,0-1.8-0.3-1.7-1.6c0.1-0.8,0-1.6,0-2.4c0-1.2-0.3-2.5,1.8-2.5c2.1,0,1.8,1.2,1.8,2.5v0.6
	C273.8,36.9,273.7,37.5,273.8,38.1z M261.1,39.3c-2.9,0.6-3.1,0.5-3.2-2c0-0.8,0-1.6,0-2.4c-0.1-1.1,0.2-1.7,1.5-1.7
	c1.2,0,1.7,0.4,1.6,1.6C261.1,36.4,261.1,37.9,261.1,39.3z M256.4,30.3c-1.2,0-1.7-0.4-1.6-1.7c0-2.7,0-5.3,0-8c0-2.6,0-5.2,0-7.8
	c0-1.3,0.4-1.8,1.7-1.8c5.2,0,10.4,0,15.6,0c1.2,0,1.7,0.5,1.6,1.7c0,5.3,0,10.7,0,16c0,1.3-0.6,1.6-1.7,1.6
	C266.9,30.3,261.7,30.3,256.4,30.3z M264,35.4c-0.2-0.8-0.6-2.1,1.1-2.2c2.1-0.2,2.3,0,2.3,3.3c0,3.1-0.3,3.6-2.3,3.1
	C262.6,39,264.3,36.8,264,35.4z"/>
<path class="st0" d="M61.5,7c-0.2,0.7-0.3,1.3-0.5,1.9c-1.7,4.7-3.4,9.4-5,14.2c-0.4,1.2-1,1.7-2.3,1.7c-5.8,0.1-5.8,0.2-7.7-5.3
	c-1.5-4.1-2.9-8.1-4.4-12.5C48.4,7,54.9,7,61.5,7z M45.6,9.8c1.4,3.9,2.7,7.7,4.1,11.3c0.4,1.1,3.6,1.1,4,0c1.4-3.6,2.6-7.4,4-11.3
	C53.6,9.8,49.8,9.8,45.6,9.8z"/>
<path class="st0" d="M-354.9,20.6c0,1.5-0.1,2.9,0,4.4c0.1,1.2-0.3,1.8-1.7,1.8c-2.9-0.1-5.7-0.1-8.6,0c-1.2,0-1.7-0.4-1.6-1.6
	c0.1-3,0.1-6,0-9c0-1.3,0.5-1.6,1.7-1.6c2.9,0,5.7,0.1,8.6,0c1.2,0,1.7,0.4,1.6,1.6C-354.9,17.7-354.9,19.1-354.9,20.6z
	 M-357.7,20.6c0-3.6,0.2-3.1-3.5-3.1c-2.8,0-2.8,0-2.8,3.4c0,3,0,3,3.7,3C-357.7,23.9-357.7,23.9-357.7,20.6z"/>
<path class="st0" d="M255.2,20.5c0.2-1.9-0.3-4.4,0.7-5.5c0.9-1,3.5-0.4,5.4-0.4s4.4-0.4,5.5,0.6c1,0.9,0.3,3.5,0.4,5.4
	c0,1.5,0,3.1,0,4.6c0.1,1.2-0.5,1.6-1.7,1.6c-2.9,0-5.7-0.1-8.6,0c-1.3,0-1.6-0.5-1.6-1.7C255.4,23.6,255.3,22,255.2,20.5
	C255.3,20.5,255.2,20.5,255.2,20.5z M261.5,17.5c-3.3,0-3.3,0-3.3,2.9c0,3.4,0,3.4,2.8,3.4c3.4,0,3.5,0,3.4-2.8
	C264.4,17.3,264.8,17.5,261.5,17.5z"/>
<path class="st0" d="M282.5-0.2c-6.2,0.1-12.4,0-18.6,0H92.5c-2.7,0-2.7,0-2.7,2.8c-0.2,5.9-1.6,11.3-4.5,16.5
	c-0.8,1.4-1.5,1.5-2.8,0.8c-6.7-4-10.1-9.9-10.3-17.7c0-1.8-0.5-2.4-2.4-2.4c-12,0.1-24.1,0-36.1,0c-2.6,0-2.6,0-2.7,2.6
	c-0.3,7.6-3.6,13.4-10.2,17.3c-1.5,0.9-2.2,0.6-3-0.8c-2.9-5.1-4.3-10.6-4.5-16.5c-0.1-2.7,0-2.7-2.8-2.7H-179
	c-2.8,0.1-2.8,0.1-2.8,2.8c0,22.8,0,45.7,0,68.5h2.7c0-19.9,0-39.9,0-59.8V2.6h15.5c16.8,0,33.6,0,50.4,0c11.3,0,22.7,0.1,34,0.1
	c29,0,58,0,87,0c2,0,2.7,0.6,2.9,2.6c1.3,15,10,24.8,23.1,31c3.6,1.7,7.5,2.8,11.3,4.1c3.9,1.3,7.8,1.4,11.8,0.4
	c8.6-2.3,16.7-5.7,23.5-11.6C87.6,22.9,91.5,15,92.5,5.5c0.3-2.8-0.4-2.8,3.2-2.8h155c9.7,0,19.4,0,29.1,0c1.9,0,2.5,0.4,2.5,2.4
	c0,22,0,44,0,66h2.5v-0.6c0-9.4,0-18.7,0-28.1c0-13.5,0-27,0.1-40.5C284.7,0.3,284.2-0.2,282.5-0.2z M34.9,2.8h33.3
	c-0.2,0.8-0.4,1.4-0.6,1.9c-3,7.2-6.1,14.4-9.1,21.6C58,27.5,57.3,28.1,56,28c-3.1-0.1-6.1,0-9.2-0.1c-0.7,0-1.7-0.5-1.9-1
	c-3.4-7.8-6.7-15.6-10-23.4C34.8,3.4,34.9,3.2,34.9,2.8z M20.8,23c6.1-3.4,10.5-8.2,12.4-15.2c1.2,2,2.5,3.8,1.2,6.4
	c-1.9,4-4.4,7.6-8,10.3C23.6,26.7,22.8,26.6,20.8,23z M29.2,30.7c-0.9-0.8-1.9-1.4-2.9-2.1c2.2-2,4.3-3.7,6-5.7s3-4.3,4.5-6.5
	c2.4,2.8,2.7,4.7,0.6,7.5c-1.7,2.3-3.6,4.3-5.4,6.5C31.2,31.5,30.3,31.7,29.2,30.7z M36,34.4c-0.8-0.2-1.5-0.7-2.4-1.2
	c2.4-2.9,4.6-5.6,7.1-8.6c0.6,1.5,1.2,2.7,1.6,4c0.1,0.4,0,1-0.2,1.3c-1.3,1.5-2.5,3.1-4,4.5C37.7,34.7,36.6,34.5,36,34.4z
	 M43.9,36.3c-1.1,1.6-2-0.1-3.2,0.1c2.2-4.3,4.3-5.8,6.8-5.2C46.3,32.9,45.1,34.6,43.9,36.3z M46.7,37.8c0.2-2.4,2.1-4.2,4.4-4.4
	c2.3-0.2,4.4,1.6,5.1,4.3C53,39.1,49.9,39,46.7,37.8z M58.4,34.9c-0.6-1.4-2.1-2.5-3.1-3.7c2.6-0.8,3.8,0,6.9,4.8
	C60.4,37.2,59.3,37.2,58.4,34.9z M67.2,34.3C66,35,65,34.9,64.1,33.6c-0.5-0.7-1.1-1.3-1.7-2c-2.4-2.7-2.4-3.7,0-6.8
	c2.2,2.7,4.5,5.4,6.8,8.3C68.6,33.6,67.9,33.9,67.2,34.3z M73,31.1c-0.4,0.2-1.4-0.1-1.8-0.5c-1.8-2-3.6-4-5.3-6.2
	c-2.4-3.1-2.3-4,0.3-8.5c2.6,5.2,5.8,9.4,10.9,12.5C75.5,29.5,74.3,30.4,73,31.1z M79.9,25.7c-0.3,0.3-1.2,0.3-1.5,0.1
	c-5.1-3.1-8.6-7.6-10.4-13.2c-0.4-1.3,0.7-3.1,1.1-4.6c0.3,0,0.5,0,0.8-0.1c1.8,6.9,6,11.8,12.5,15.3C81.5,24.1,80.8,25,79.9,25.7z"
	/>
</svg>
