<?xml version="1.0" encoding="utf-8"?>
<!-- Generator: Adobe Illustrator 24.3.0, SVG Export Plug-In . SVG Version: 6.00 Build 0)  -->
<svg version="1.1" id="Слой_1" xmlns="http://www.w3.org/2000/svg" xmlns:xlink="http://www.w3.org/1999/xlink" x="0px" y="0px"
	 viewBox="0 0 67.7 71.3" style="enable-background:new 0 0 67.7 71.3;" xml:space="preserve">
<style type="text/css">
	.st0{fill:#FED076;}
</style>
<path class="st0" d="M48.7,42.5c2.8,0.1,5.6,0,8.4,0.1c1.6,0.1,2.2-0.4,2.2-2.1c-0.1-10,0-20,0-30.1c0-1.6-0.4-2.3-2.1-2.3
	c-10,0.1-20,0.1-30.1,0.1c-1.1,0-1.6,0.4-1.5,1.5c0.1,1.8,0,3.6,0,5.4c0,6.1,0,6.1-6.1,6c-1.4,0-1.9-0.4-1.9-1.8
	c0.1-2.9-0.1-5.9,0.1-8.8c0.1-1.7-0.5-2.3-2.2-2.3c-9.8,0.1-19.6,0-29.5,0h-102c-1.2,0-2.4-0.3-2.8,1.7
	c-5.9,27.4-35.5,42.9-58.4,36.1c-18.7-5.5-30.7-17.1-35.5-36.1c-0.3-1.3-0.8-1.8-2.1-1.8c-25.5,0.1-50.9,0.2-76.4,0.3
	c-3.7,0-7.5,0-11.2,0c-6.3,0-12.5,0-18.8,0c-4,0-8,0.1-12,0.1c-4.9,0-9.7-0.1-14.6-0.2c-1.2,0-1.5,0.6-1.5,1.6c0,2.1,0,4.1,0,6.2
	c0,4.9,0,4.9-5,4.9c-2.8,0-2.8,0-2.9-2.8v-10c-4.6,0-9,0-13.3,0c-6.2,0.1-12.4,0.2-18.6,0.2c-1.5,0-2,0.4-2,1.9
	c0,10.2,0,20.5,0,30.7c0,1.3,0.4,1.6,1.6,1.6c3.1-0.1,6.3,0,9.4,0c1.2,0,1.7,0.5,1.6,1.6c0,1.6-0.1,3.2,0,4.8c0,1.2-0.4,1.7-1.6,1.7
	c-2.9,0-5.8,0.1-8.6,0c-1.9-0.1-2.5,0.5-2.5,2.5c0,6,0,12,0,18h3.2c0-5.1,0-10.1,0-15.2c0-1.8,0.5-2.5,2.4-2.4
	c1.2,0.1,1.6,0.6,1.6,1.7c0,3.3,0,6.6,0,9.8v6h2.8V60.8c0-1.9,0-3.7,0-5.6c0-1.2,0.3-1.7,1.6-1.7c4.3-0.2,4.3-0.2,4.3-4.6
	c0-1.6,0-3.2,0-4.8c0-1.1,0.4-1.6,1.5-1.5c5.9,0.1,4.7-0.7,4.8,4.5c0.1,3.1-0.1,6.2,0,9.2c0.1,1.9-0.6,2.5-2.4,2.3
	c-1.5-0.1-3.1,0-4.6,0c-1.5-0.1-2,0.4-2,1.9c0,3.5,0,7.1,0,10.6h2.6v-7.6c0-1.7,0.5-2.3,2.2-2.1c1.7,0.1,3.5,0,5.2,0
	c1.1,0,1.7-0.3,1.7-1.6c0-6.2,0-12.4,0-18.6c0-1.2-0.5-1.6-1.6-1.5c-1.5,0.2-1.9-0.6-1.8-1.9c0-0.4,0-0.8,0-1.2c0-3.1,0-3.1,3-3.5
	c0.1-0.1,0.2-0.3,0.3-0.5c0.2-0.8,0.4-2.4,0.7-2.4c1.8-0.2,3.6-0.1,5.4,0.1c0.2,0,0.4,1,0.4,1.6c0,1,0.5,1.4,1.5,1.4
	c6.1,0,12.2,0,18.2-0.1c0.5,0,1.3-0.9,1.3-1.4c0.2-1.9,0.2-3.7,0.1-5.6c-0.1-1.6,0.6-2.1,2.1-2c1,0.1,2,0,3,0c40.3,0,80.6,0,120.9,0
	c1.8,0,2.8,0.5,3.8,2.1c8.4,13.4,20.7,21,36.1,23.6c15.6,2.6,29.2-2.5,40.9-12.6c3.8-3.2,6.6-7.6,9.7-11.6c0.8-1,1.5-1.4,2.8-1.4
	c35.3,0,70.6,0,105.9,0c6.2,0,12.4,0,18.6,0c1.7,0,2.2,0.5,2.2,2.2c-0.1,2.2,0,4.4,0,6.9c6.9,0,13.5,0,20-0.1c0.4,0,1.2-0.9,1.2-1.3
	c0-1.6,0.7-2,2.1-1.8c0.7,0.1,1.3,0.1,2,0c1.5-0.1,2.6,0.1,2.5,2.1c0,0.3,0.9,1.1,1.4,1.1c1.5,0,1.9,0.6,1.8,2c0,0.4,0,0.8,0,1.2
	c0,3.1,0,3.1-3,3.6c-0.1,0.5-0.2,1-0.2,1.5c0,6,0,12,0,18c0,1.5,0.5,2,2,2c1.9-0.1,3.7,0,5.6,0c1,0,1.5,0.4,1.4,1.5
	c0,0.6,0,1.2,0,1.8v6.4h2.7v-9.6c0-2.9,0-2.8-3-2.9c-1.9,0-4.4,0.4-5.5-0.6c-1-0.9-0.4-3.5-0.4-5.4c0-2.7,0-5.5,0-8.2
	c0-1.4,0.5-1.9,1.9-1.8c5.4,0.1,4.4-0.6,4.5,4.4c0,1.6,0.1,3.2,0,4.8c-0.1,1.3,0.4,1.7,1.7,1.8c4.1,0.1,4.1,0.2,4.1,4.4v13.2h2.8
	v-15c0-1.1-0.5-2.5,1.5-2.6c2.3,0,2.5,0,2.5,2.4v15.2h2.8c0-6,0-12.1,0-18.1c0-1.7-0.3-2.5-2.2-2.4c-2.9,0.1-5.9,0-8.8,0
	c-1.2,0-1.7-0.4-1.7-1.6c0.1-1.5,0.1-2.9,0-4.4C46.6,43.1,47.1,42.4,48.7,42.5z M-384.5,35.6c0,0.3,0,0.5,0,0.8c0,0.6,0,1.2,0,1.8
	c0.1,1.4-0.8,1.4-1.8,1.5c-1.1,0-1.8-0.2-1.7-1.5c0-0.9,0-1.7,0-2.6c0-1.2-0.2-2.4,1.7-2.4C-384.3,33.1-384.4,34.3-384.5,35.6z
	 M-380.4,39.7c-1.6-0.1-1.4-1.3-1.2-2.2c0.3-1.4-1.3-3.6,1.2-4.2c2.1-0.5,2.3,0,2.3,3.2C-378.1,39.6-378.3,39.8-380.4,39.7z
	 M-372.2,35c-0.1,0.5,0,1.1,0,1.6c0,3-0.4,3.6-2.1,3c-2.1-0.6-0.8-2.5-1-3.8c-0.1-0.9-0.7-2.3,1-2.6C-373.1,33.1-372,33.2-372.2,35z
	 M-369,28.5c0,1.4-0.5,1.9-1.9,1.8c-5.1-0.1-10.2-0.1-15.2,0c-1.5,0-2-0.6-1.9-2c0.1-2.6,0-5.2,0-7.8c0-2.5,0.1-5.1,0-7.6
	c0-1.4,0.5-1.9,1.9-1.9c5.1,0.1,10.1,0.1,15.2,0c1.4,0,1.9,0.4,1.9,1.8C-369.1,18.1-369.1,23.3-369,28.5z M-366.2,12.1
	c0.1-0.3,0.4-0.9,0.6-0.9c1.8-0.1,3.6-0.1,5.3,0.1c0.3,0,0.5,1.5,0.5,2.3c0,0.4-0.7,0.9-1.1,1c-0.7,0.2-1.5,0-2.2,0
	C-366.1,14.7-366.7,14.3-366.2,12.1z M-366.3,19.3c0-2.1,1.3-1.7,2.5-1.7c0.3,0,0.5,0,0.8,0c0.5,0,1.1,0,1.6,0
	c1.4-0.1,1.7,0.5,1.7,1.8c0,1.1-0.1,2-1.6,1.8c-0.8-0.1-1.6,0-2.4,0C-365,21.1-366.4,21.5-366.3,19.3z M-361.9,27.2
	c-0.4,0-0.8,0-1.2,0c-0.6,0-1.3,0.2-1.8,0c-0.5-0.3-1.1-0.9-1.3-1.5c-0.2-0.9,0-1.7,1.3-1.7c1,0,2,0,3,0c1.1,0,2.1-0.2,2.2,1.5
	C-359.7,27.2-360.7,27.2-361.9,27.2z M-344,11c16.8,0,33.5,0,50.3,0c25.1,0,50.2,0,75.3,0c3.3,0,3.6,0.3,3.8,4
	c-0.8,0-1.5,0.1-2.3,0.1c-42.3,0-84.6,0-126.8,0c-1.3,0-2.7,0.4-2.7-1.8C-346.5,11.3-345.7,11-344,11z M-214.7,21.3
	c-41.4,0-82.8,0-124.2-0.1c-2,0-2.8,0.5-2.6,2.6c0.2,1.5,0,3.1,0,4.6c0.1,1.4-0.3,2.1-1.9,2c-3.9-0.1-7.9-0.1-11.8,0
	c-1.4,0-1.9-0.5-1.8-1.9c0.1-5.5-0.6-4.5,4.3-4.6c1.5,0,3.1-0.1,4.6,0c1.2,0,1.6-0.4,1.7-1.6c0.2-4.3,0.2-4.3,4.5-4.3
	c26.8,0,53.6,0,80.4,0c15.4,0,30.7,0,46.1,0c2.6,0,2.8,0.2,3.3,3.3H-214.7z M-112.8,11.1H12.3c1.4,0,2.8-0.3,2.8,2
	c-0.1,1.7-0.6,2.2-2.2,2.2c-35.3,0-70.5,0-105.8-0.1c-7.1,0-14.3,0-21.4,0h-2.7C-116.4,11.1-116.4,11.1-112.8,11.1z M21.1,30.4
	c-3.1,0.1-6.1,0-9.2,0c-1.4,0-2-0.4-1.9-1.8c0.1-1.7-0.1-3.5,0-5.2c0.1-1.7-0.5-2.2-2.2-2.1c-9.3,0.1-18.6,0-27.9,0h-99.4
	c0.3-2.3,1.1-3.3,3.4-3.3c42.8,0.1,85.5,0,128.2,0c2.7,0,2.7,0,2.7,2.8c0,0.5,0,0.9,0,1.4c-0.2,1.4,0.5,1.9,1.9,1.8
	c2.4-0.1,4.8,0,7.2,0c1.2,0,1.7,0.3,1.7,1.6C25.6,31.5,26.4,30.3,21.1,30.4z M28.5,12.1c0.1-0.3,0.4-0.9,0.6-0.9
	c1.8-0.1,3.6-0.1,5.3,0.1c0.3,0,0.5,1.5,0.5,2.3c0,0.4-0.7,0.9-1.1,1c-0.7,0.2-1.4,0-2.2,0C28.5,14.7,28,14.3,28.5,12.1z M30.9,17.5
	c0.3,0,0.5,0,0.8,0c0.6,0,1.2,0,1.8,0c1.2-0.1,1.4,0.7,1.4,1.7c0,0.9,0.2,2-1.3,1.9c-0.9,0-1.7,0-2.6,0c-1.3,0-2.6,0.3-2.6-1.9
	C28.4,17.1,29.7,17.6,30.9,17.5z M32.8,27.2c-0.4,0-0.8,0-1.2,0l0,0c-0.6,0-1.2,0-1.8,0c-1.2,0.1-1.5-0.7-1.3-1.6
	c0.2-0.6,0.7-1.4,1.2-1.5c0.9-0.2,2-0.1,3-0.1c1.2,0,2.2-0.1,2.2,1.7C34.9,27.3,33.9,27.2,32.8,27.2z M56.6,38.1
	c0.1,1.4-0.7,1.6-1.8,1.6c-1.1,0-1.8-0.3-1.7-1.6c0.1-0.8,0-1.6,0-2.4c0-1.2-0.3-2.5,1.8-2.5c2.1,0,1.8,1.2,1.8,2.5v0.6
	C56.6,36.9,56.5,37.5,56.6,38.1z M43.9,39.3c-2.9,0.6-3.1,0.5-3.2-2c0-0.8,0-1.6,0-2.4c-0.1-1.1,0.2-1.7,1.5-1.7
	c1.2,0,1.7,0.4,1.6,1.6C43.9,36.4,43.9,37.9,43.9,39.3z M39.2,30.3c-1.2,0-1.7-0.4-1.6-1.7c0-2.7,0-5.3,0-8c0-2.6,0-5.2,0-7.8
	c0-1.3,0.4-1.8,1.7-1.8c5.2,0,10.4,0,15.6,0c1.2,0,1.7,0.5,1.6,1.7c0,5.3,0,10.7,0,16c0,1.3-0.6,1.6-1.7,1.6
	C49.7,30.3,44.5,30.3,39.2,30.3z M46.8,35.4c-0.2-0.8-0.6-2.1,1.1-2.2c2.1-0.2,2.3,0,2.3,3.3c0,3.1-0.3,3.6-2.3,3.1
	C45.4,39,47.1,36.8,46.8,35.4z"/>
<path class="st0" d="M-158.9,6.1c-0.2,0.7-0.3,1.3-0.5,1.9c-1.7,4.7-3.4,9.4-5,14.2c-0.4,1.2-1,1.7-2.3,1.7
	c-5.8,0.1-5.8,0.2-7.7-5.3c-1.5-4.1-2.9-8.1-4.4-12.5C-172,6.1-165.5,6.1-158.9,6.1z M-174.8,8.9c1.4,3.9,2.7,7.7,4.1,11.3
	c0.4,1.1,3.6,1.1,4,0c1.4-3.6,2.6-7.4,4-11.3C-166.8,8.9-170.6,8.9-174.8,8.9z"/>
<path class="st0" d="M-372.6,20.6c0,1.5-0.1,2.9,0,4.4c0.1,1.2-0.3,1.8-1.7,1.8c-2.9-0.1-5.7-0.1-8.6,0c-1.2,0-1.7-0.4-1.6-1.6
	c0.1-3,0.1-6,0-9c0-1.3,0.5-1.6,1.7-1.6c2.9,0,5.7,0.1,8.6,0c1.2,0,1.7,0.4,1.6,1.6C-372.6,17.7-372.6,19.1-372.6,20.6z
	 M-375.4,20.6c0-3.6,0.2-3.1-3.5-3.1c-2.8,0-2.8,0-2.8,3.4c0,3,0,3,3.7,3C-375.4,23.9-375.4,23.9-375.4,20.6z"/>
<path class="st0" d="M38,20.5c0.2-1.9-0.3-4.4,0.7-5.5c0.9-1,3.5-0.4,5.4-0.4s4.4-0.4,5.5,0.6c1,0.9,0.3,3.5,0.4,5.4
	c0,1.5,0,3.1,0,4.6c0.1,1.2-0.5,1.6-1.7,1.6c-2.9,0-5.7-0.1-8.6,0c-1.3,0-1.6-0.5-1.6-1.7C38.2,23.6,38.1,22,38,20.5
	C38.1,20.5,38,20.5,38,20.5z M44.3,17.5c-3.3,0-3.3,0-3.3,2.9c0,3.4,0,3.4,2.8,3.4c3.4,0,3.5,0,3.4-2.8
	C47.2,17.3,47.6,17.5,44.3,17.5z"/>
<path class="st0" d="M65.3-0.2c-6.2,0.1-12.4,0-18.6,0h-171.4c-2.7,0-2.7,0-2.7,2.8c-0.2,5.9-1.6,11.3-4.5,16.5
	c-0.8,1.4-1.5,1.5-2.8,0.8c-6.7-4-10.1-9.9-10.3-17.7c0-1.8-0.5-2.4-2.4-2.4c-12,0.1-24.1,0-36.1,0c-2.6,0-2.6,0-2.7,2.6
	c-0.3,7.6-3.6,13.4-10.2,17.3c-1.5,0.9-2.2,0.6-3-0.8c-2.9-5.1-4.3-10.6-4.5-16.5c-0.1-2.7,0-2.7-2.8-2.7h-189.5
	c-2.8,0.1-2.8,0.1-2.8,2.8c0,22.8,0,45.7,0,68.5h2.7c0-19.9,0-39.9,0-59.8V2.6h15.5c16.8,0,33.6,0,50.4,0c11.3,0,22.7,0.1,34,0.1
	c29,0,58,0,87,0c2,0,2.7,0.6,2.9,2.6c1.3,15,10,24.8,23.1,31c3.6,1.7,7.5,2.8,11.3,4.1c3.9,1.3,7.8,1.4,11.8,0.4
	c8.6-2.3,16.7-5.7,23.5-11.6c7.2-6.3,11.1-14.2,12.1-23.7c0.3-2.8-0.4-2.8,3.2-2.8h155c9.7,0,19.4,0,29.1,0c1.9,0,2.5,0.4,2.5,2.4
	c0,22,0,44,0,66h2.5v-0.6c0-9.4,0-18.7,0-28.1c0-13.5,0-27,0.1-40.5C67.5,0.3,67-0.2,65.3-0.2z M-182.3,2.8h33.3
	c-0.2,0.8-0.4,1.4-0.6,1.9c-3,7.2-6.1,14.4-9.1,21.6c-0.5,1.2-1.2,1.8-2.5,1.7c-3.1-0.1-6.1,0-9.2-0.1c-0.7,0-1.7-0.5-1.9-1
	c-3.4-7.8-6.7-15.6-10-23.4C-182.4,3.4-182.3,3.2-182.3,2.8z M-196.4,23c6.1-3.4,10.5-8.2,12.4-15.2c1.2,2,2.5,3.8,1.2,6.4
	c-1.9,4-4.4,7.6-8,10.3C-193.6,26.7-194.4,26.6-196.4,23z M-188,30.7c-0.9-0.8-1.9-1.4-2.9-2.1c2.2-2,4.3-3.7,6-5.7s3-4.3,4.5-6.5
	c2.4,2.8,2.7,4.7,0.6,7.5c-1.7,2.3-3.6,4.3-5.4,6.5C-186,31.5-186.9,31.7-188,30.7z M-181.2,34.4c-0.8-0.2-1.5-0.7-2.4-1.2
	c2.4-2.9,4.6-5.6,7.1-8.6c0.6,1.5,1.2,2.7,1.6,4c0.1,0.4,0,1-0.2,1.3c-1.3,1.5-2.5,3.1-4,4.5C-179.5,34.7-180.6,34.5-181.2,34.4z
	 M-173.3,36.3c-1.1,1.6-2-0.1-3.2,0.1c2.2-4.3,4.3-5.8,6.8-5.2C-170.9,32.9-172.1,34.6-173.3,36.3z M-170.5,37.8
	c0.2-2.4,2.1-4.2,4.4-4.4c2.3-0.2,4.4,1.6,5.1,4.3C-164.2,39.1-167.3,39-170.5,37.8z M-158.8,34.9c-0.6-1.4-2.1-2.5-3.1-3.7
	c2.6-0.8,3.8,0,6.9,4.8C-156.8,37.2-157.9,37.2-158.8,34.9z M-150,34.3c-1.2,0.7-2.2,0.6-3.1-0.7c-0.5-0.7-1.1-1.3-1.7-2
	c-2.4-2.7-2.4-3.7,0-6.8c2.2,2.7,4.5,5.4,6.8,8.3C-148.6,33.6-149.3,33.9-150,34.3z M-144.2,31.1c-0.4,0.2-1.4-0.1-1.8-0.5
	c-1.8-2-3.6-4-5.3-6.2c-2.4-3.1-2.3-4,0.3-8.5c2.6,5.2,5.8,9.4,10.9,12.5C-141.7,29.5-142.9,30.4-144.2,31.1z M-137.3,25.7
	c-0.3,0.3-1.2,0.3-1.5,0.1c-5.1-3.1-8.6-7.6-10.4-13.2c-0.4-1.3,0.7-3.1,1.1-4.6c0.3,0,0.5,0,0.8-0.1c1.8,6.9,6,11.8,12.5,15.3
	C-135.7,24.1-136.4,25-137.3,25.7z"/>
</svg>
