<svg width="138" height="46" viewBox="0 0 138 46" fill="none" xmlns="http://www.w3.org/2000/svg">
<g filter="url(#filter0_d_1155_4087)">
<rect x="17.5" y="1.5" width="105" height="35" rx="17.5" stroke="url(#paint0_linear_1155_4087)" stroke-width="3" shape-rendering="crispEdges"/>
</g>
<path d="M34.9723 11.008C36.0923 11.328 37.0363 11.776 37.8043 12.352C38.5883 12.912 39.2203 13.536 39.7003 14.224C40.1803 14.896 40.5243 15.6 40.7323 16.336C40.9403 17.072 41.0443 17.768 41.0443 18.424C41.0443 19.08 40.9723 19.648 40.8283 20.128C40.6843 20.592 40.5083 20.992 40.3003 21.328C40.1083 21.664 39.9003 21.952 39.6763 22.192C39.4523 22.416 39.2683 22.608 39.1243 22.768C39.2843 22.816 39.4763 22.88 39.7003 22.96C39.9243 23.024 40.1323 23.136 40.3243 23.296C40.5323 23.44 40.7003 23.64 40.8283 23.896C40.9723 24.152 41.0443 24.488 41.0443 24.904V25.672C41.0443 25.96 40.9883 26.248 40.8763 26.536C40.7803 26.808 40.6123 27.056 40.3723 27.28C40.1483 27.488 39.8523 27.664 39.4843 27.808C39.1323 27.936 38.7003 28 38.1883 28H34.9723V11.008ZM36.8203 22.768C37.7323 22.112 38.3563 21.44 38.6923 20.752C39.0283 20.048 39.1963 19.344 39.1963 18.64C39.1963 18.4 39.1723 18.096 39.1243 17.728C39.0763 17.344 38.9643 16.936 38.7883 16.504C38.6283 16.056 38.3883 15.6 38.0683 15.136C37.7643 14.672 37.3483 14.24 36.8203 13.84V22.768ZM36.8203 26.152H38.3563C38.5323 26.152 38.7163 26.12 38.9083 26.056C39.1003 25.992 39.1963 25.792 39.1963 25.456C39.1963 25.184 39.1563 24.96 39.0763 24.784C39.0123 24.592 38.7723 24.496 38.3563 24.496H36.8203V26.152ZM50.0363 24.496H50.0123V28H48.1643V11.272H50.0123V22.768C50.2363 22.592 50.5243 22.344 50.8763 22.024C51.2283 21.704 51.5323 21.288 51.7883 20.776C52.1563 20.04 52.3723 19.4 52.4363 18.856C52.5003 18.312 52.5323 17.856 52.5323 17.488V11.272H54.4043V17.488C54.4043 17.952 54.3723 18.432 54.3083 18.928C54.2603 19.424 54.1643 19.904 54.0203 20.368C53.8763 20.832 53.6923 21.28 53.4683 21.712C53.2443 22.128 52.9643 22.504 52.6283 22.84C52.4683 23 52.3083 23.152 52.1483 23.296C52.0043 23.44 51.8363 23.592 51.6443 23.752L54.3803 28H52.2203L50.0363 24.496ZM59.3417 28.432C59.0217 28.432 58.6857 28.344 58.3337 28.168C57.9817 27.992 57.6457 27.6 57.3257 26.992C57.0217 26.368 56.7657 25.472 56.5577 24.304C56.3657 23.136 56.2697 21.48 56.2697 19.336C56.2697 17.72 56.3817 16.328 56.6057 15.16C56.8297 13.992 57.1017 13.104 57.4217 12.496C57.7417 11.872 58.0697 11.472 58.4057 11.296C58.7577 11.104 59.0537 11.008 59.2937 11.008C59.5337 11.008 59.8217 11.104 60.1577 11.296C60.5097 11.472 60.8457 11.872 61.1657 12.496C61.4857 13.104 61.7577 13.992 61.9817 15.16C62.2217 16.328 62.3417 17.72 62.3417 19.336C62.3417 21.48 62.2377 23.136 62.0297 24.304C61.8217 25.472 61.5657 26.368 61.2617 26.992C60.9577 27.6 60.6297 27.992 60.2777 28.168C59.9417 28.344 59.6377 28.432 59.3657 28.432H59.3417ZM59.3177 12.856C59.2377 12.856 59.1257 12.944 58.9817 13.12C58.8537 13.28 58.7257 13.616 58.5977 14.128C58.4697 14.624 58.3577 15.336 58.2617 16.264C58.1657 17.176 58.1177 18.2 58.1177 19.336C58.1177 20.888 58.1577 22.12 58.2377 23.032C58.3177 23.928 58.4217 24.64 58.5497 25.168C58.6777 25.68 58.8057 26.04 58.9337 26.248C59.0777 26.44 59.2137 26.536 59.3417 26.536C59.4377 26.536 59.5497 26.44 59.6777 26.248C59.8217 26.04 59.9497 25.672 60.0617 25.144C60.1897 24.616 60.2937 23.904 60.3737 23.008C60.4537 22.096 60.4937 20.872 60.4937 19.336C60.4937 18.2 60.4457 17.176 60.3497 16.264C60.2697 15.336 60.1657 14.624 60.0377 14.128C59.9257 13.616 59.8057 13.28 59.6777 13.12C59.5497 12.944 59.4377 12.856 59.3417 12.856H59.3177ZM64.2915 28V10.72C65.2675 11.024 66.1315 11.432 66.8835 11.944C67.6515 12.44 68.2915 13.016 68.8035 13.672C69.3155 14.328 69.6995 15.048 69.9555 15.832C70.2275 16.616 70.3635 17.44 70.3635 18.304C70.3635 19.312 70.1955 20.232 69.8595 21.064C69.5235 21.88 69.0515 22.624 68.4435 23.296C67.9795 23.808 67.5475 24.192 67.1475 24.448C66.7475 24.688 66.4115 24.88 66.1395 25.024V28H64.2915ZM66.1395 22.984C66.6035 22.648 66.9875 22.296 67.2915 21.928C67.5955 21.544 67.8355 21.16 68.0115 20.776C68.2035 20.392 68.3315 20.008 68.3955 19.624C68.4755 19.24 68.5155 18.872 68.5155 18.52C68.5155 18.28 68.4915 17.968 68.4435 17.584C68.3955 17.2 68.2835 16.784 68.1075 16.336C67.9475 15.888 67.7075 15.44 67.3875 14.992C67.0835 14.528 66.6675 14.096 66.1395 13.696V22.984ZM74.7328 22.552C75.2768 21.944 75.6608 21.288 75.8848 20.584C76.1088 19.864 76.2208 19.2 76.2208 18.592C76.2208 17.824 76.0688 17.064 75.7648 16.312C75.4608 15.56 75.0208 14.912 74.4448 14.368C73.9808 13.936 73.5168 13.624 73.0528 13.432C72.6048 13.224 72.2528 13.08 71.9968 13V11.056C72.8928 11.312 73.7088 11.672 74.4448 12.136C75.1968 12.6 75.8368 13.152 76.3648 13.792C76.9088 14.432 77.3248 15.152 77.6128 15.952C77.9168 16.752 78.0688 17.616 78.0688 18.544C78.0688 19.392 77.9648 20.16 77.7568 20.848C77.5488 21.52 77.2208 22.192 76.7728 22.864C77.6368 23.264 78.0688 23.944 78.0688 24.904V25.648C78.0688 26.368 77.8208 26.944 77.3248 27.376C76.8448 27.792 76.1488 28 75.2368 28H72.4768V26.152H75.2368C75.5088 26.152 75.7328 26.112 75.9088 26.032C76.1008 25.952 76.1968 25.704 76.1968 25.288C76.1968 24.856 76.0928 24.6 75.8848 24.52C75.6768 24.424 75.4208 24.376 75.1168 24.376H73.3648L72.4528 22.552H74.7328ZM84.2655 28V16.864L82.0815 20.584V28H80.2095V11.296H82.0815V17.224L86.1135 10.264V28H84.2655ZM88.671 11.272H90.519V20.752H92.895V11.272H94.743V28H92.895V22.6H90.519V28H88.671V11.272ZM99.24 24.472L96.528 11.296H98.4L100.176 20.008L102 11.296H103.8L100.32 28H98.52L99.24 24.472Z" fill="url(#paint1_linear_1155_4087)"/>
<defs>
<filter id="filter0_d_1155_4087" x="12" y="0" width="116" height="46" filterUnits="userSpaceOnUse" color-interpolation-filters="sRGB">
<feFlood flood-opacity="0" result="BackgroundImageFix"/>
<feColorMatrix in="SourceAlpha" type="matrix" values="0 0 0 0 0 0 0 0 0 0 0 0 0 0 0 0 0 0 127 0" result="hardAlpha"/>
<feOffset dy="4"/>
<feGaussianBlur stdDeviation="2"/>
<feComposite in2="hardAlpha" operator="out"/>
<feColorMatrix type="matrix" values="0 0 0 0 0 0 0 0 0 0 0 0 0 0 0 0 0 0 0.25 0"/>
<feBlend mode="normal" in2="BackgroundImageFix" result="effect1_dropShadow_1155_4087"/>
<feBlend mode="normal" in="SourceGraphic" in2="effect1_dropShadow_1155_4087" result="shape"/>
</filter>
<linearGradient id="paint0_linear_1155_4087" x1="70" y1="0" x2="70" y2="38" gradientUnits="userSpaceOnUse">
<stop stop-color="#F7F6EB"/>
<stop offset="0.510417" stop-color="#BD9540"/>
</linearGradient>
<linearGradient id="paint1_linear_1155_4087" x1="69" y1="0" x2="69" y2="38.3333" gradientUnits="userSpaceOnUse">
<stop offset="0.203119" stop-color="#F7F6EB"/>
<stop offset="0.778961" stop-color="#BD9540"/>
</linearGradient>
</defs>
</svg>
