<svg width="89" height="30" viewBox="0 0 89 30" fill="none" xmlns="http://www.w3.org/2000/svg">
<path d="M22.2455 8.454V21H20.8595V9.75H19.0775V21H17.6915V8.472L22.2455 8.454ZM24.0145 21V8.04C24.7465 8.268 25.3945 8.574 25.9585 8.958C26.5345 9.33 27.0145 9.762 27.3985 10.254C27.7825 10.746 28.0705 11.286 28.2625 11.874C28.4665 12.462 28.5685 13.08 28.5685 13.728C28.5685 14.484 28.4425 15.174 28.1905 15.798C27.9385 16.41 27.5845 16.968 27.1285 17.472C26.7805 17.856 26.4565 18.144 26.1565 18.336C25.8565 18.516 25.6045 18.66 25.4005 18.768V21H24.0145ZM25.4005 17.238C25.7485 16.986 26.0365 16.722 26.2645 16.446C26.4925 16.158 26.6725 15.87 26.8045 15.582C26.9485 15.294 27.0445 15.006 27.0925 14.718C27.1525 14.43 27.1825 14.154 27.1825 13.89C27.1825 13.71 27.1645 13.476 27.1285 13.188C27.0925 12.9 27.0085 12.588 26.8765 12.252C26.7565 11.916 26.5765 11.58 26.3365 11.244C26.1085 10.896 25.7965 10.572 25.4005 10.272V17.238ZM33.1415 21V12.648L31.5035 15.438V21H30.0995V8.472H31.5035V12.918L34.5275 7.698V21H33.1415ZM39.2356 15.744L37.5976 13.026V21H36.2116V7.968L39.2356 13.224L42.2596 7.968V21H40.8736V13.026L39.2356 15.744ZM43.8246 8.472H47.7846V9.858H45.2106V15.564H47.7846V16.95H45.2106V19.614H47.7846V21H43.8246V8.472ZM49.3656 8.454H50.7516V15.564H52.5336V8.454H53.9196V21H52.5336V16.95H50.7516V21H49.3656V8.454ZM58.8583 21V12.648L57.2203 15.438V21H55.8163V8.472H57.2203V12.918L60.2443 7.698V21H58.8583ZM63.0084 21V9.84H61.4964V8.454H65.9244V9.84H64.4124V21H63.0084ZM68.6277 19.614H69.7797C69.9117 19.614 70.0497 19.59 70.1937 19.542C70.3377 19.494 70.4097 19.344 70.4097 19.092C70.4097 18.888 70.3797 18.72 70.3197 18.588C70.2717 18.444 70.0917 18.372 69.7797 18.372H68.6277V19.614ZM67.2417 8.454L68.6277 8.472V17.076H70.2297C70.4097 17.064 70.5897 17.082 70.7697 17.13C70.9617 17.178 71.1297 17.268 71.2737 17.4C71.4297 17.52 71.5557 17.688 71.6517 17.904C71.7477 18.108 71.7957 18.366 71.7957 18.678V19.254C71.7957 19.47 71.7537 19.686 71.6697 19.902C71.5977 20.106 71.4717 20.292 71.2917 20.46C71.1237 20.616 70.9017 20.748 70.6257 20.856C70.3617 20.952 70.0377 21 69.6537 21H67.2417V8.454Z" fill="white"/>
<rect x="1" y="1" width="87" height="28" rx="14" stroke="url(#paint0_linear_1354_3203)" stroke-width="2"/>
<defs>
<linearGradient id="paint0_linear_1354_3203" x1="44.5" y1="0" x2="44.5" y2="30" gradientUnits="userSpaceOnUse">
<stop stop-color="#F7F6EB"/>
<stop offset="0.510417" stop-color="#BD9540"/>
</linearGradient>
</defs>
</svg>
