<svg width="304" height="81" viewBox="0 0 304 81" fill="none" xmlns="http://www.w3.org/2000/svg">
<g filter="url(#filter0_d_311_1708)">
<rect x="27.5" y="11.5" width="251" height="57" rx="28.5" stroke="url(#paint0_linear_311_1708)" stroke-width="3" shape-rendering="crispEdges"/>
</g>
<path d="M57.698 55V35.512L53.876 42.022V55H50.6V25.768H53.876V36.142L60.932 23.962V55H57.698ZM69.4396 45.466C70.3916 44.402 71.0636 43.254 71.4556 42.022C71.8476 40.762 72.0436 39.6 72.0436 38.536C72.0436 37.192 71.7776 35.862 71.2456 34.546C70.7136 33.23 69.9436 32.096 68.9356 31.144C68.1236 30.388 67.3116 29.842 66.4996 29.506C65.7156 29.142 65.0996 28.89 64.6516 28.75V25.348C66.2196 25.796 67.6476 26.426 68.9356 27.238C70.2516 28.05 71.3716 29.016 72.2956 30.136C73.2476 31.256 73.9756 32.516 74.4796 33.916C75.0116 35.316 75.2776 36.828 75.2776 38.452C75.2776 39.936 75.0956 41.28 74.7316 42.484C74.3676 43.66 73.7936 44.836 73.0096 46.012C74.5216 46.712 75.2776 47.902 75.2776 49.582V50.884C75.2776 52.144 74.8436 53.152 73.9756 53.908C73.1356 54.636 71.9176 55 70.3216 55H65.4916V51.766H70.3216C70.7976 51.766 71.1896 51.696 71.4976 51.556C71.8336 51.416 72.0016 50.982 72.0016 50.254C72.0016 49.498 71.8196 49.05 71.4556 48.91C71.0916 48.742 70.6436 48.658 70.1116 48.658H67.0456L65.4496 45.466H69.4396ZM85.5759 42.736L81.7539 36.394V55H78.5199V24.592L85.5759 36.856L92.6319 24.592V55H89.3979V36.394L85.5759 42.736ZM96.2836 25.768H105.524V29.002H99.5176V42.316H105.524V45.55H99.5176V51.766H105.524V55H96.2836V25.768ZM109.212 25.726H112.446V42.316H116.604V25.726H119.838V55H116.604V45.55H112.446V55H109.212V25.726ZM131.362 55V35.512L127.54 42.022V55H124.264V25.768H127.54V36.142L134.596 23.962V55H131.362ZM141.046 55V28.96H137.518V25.726H147.85V28.96H144.322V55H141.046ZM154.157 51.766H156.845C157.153 51.766 157.475 51.71 157.811 51.598C158.147 51.486 158.315 51.136 158.315 50.548C158.315 50.072 158.245 49.68 158.105 49.372C157.993 49.036 157.573 48.868 156.845 48.868H154.157V51.766ZM150.923 25.726L154.157 25.768V45.844H157.895C158.315 45.816 158.735 45.858 159.155 45.97C159.603 46.082 159.995 46.292 160.331 46.6C160.695 46.88 160.989 47.272 161.213 47.776C161.437 48.252 161.549 48.854 161.549 49.582V50.926C161.549 51.43 161.451 51.934 161.255 52.438C161.087 52.914 160.793 53.348 160.373 53.74C159.981 54.104 159.463 54.412 158.819 54.664C158.203 54.888 157.447 55 156.551 55H150.923V25.726ZM185.303 25.726V55H182.069V28.75H177.911V55H174.677V25.768L185.303 25.726ZM197.285 55L196.193 48.868H192.749L191.699 55H188.381L194.471 24.802L200.561 55H197.285ZM194.471 40.426L193.295 45.844H195.647L194.471 40.426ZM203.043 55V24.13C204.751 24.662 206.263 25.376 207.579 26.272C208.923 27.14 210.043 28.148 210.939 29.296C211.835 30.444 212.507 31.704 212.955 33.076C213.431 34.448 213.669 35.89 213.669 37.402C213.669 39.138 213.375 40.762 212.787 42.274C212.199 43.786 211.373 45.13 210.309 46.306C209.497 47.202 208.741 47.888 208.041 48.364C207.341 48.812 206.753 49.162 206.277 49.414V55H203.043ZM206.277 45.76C207.089 45.172 207.761 44.542 208.293 43.87C208.825 43.198 209.245 42.512 209.553 41.812C209.889 41.112 210.113 40.412 210.225 39.712C210.365 39.012 210.435 38.368 210.435 37.78C210.435 37.36 210.393 36.814 210.309 36.142C210.225 35.47 210.029 34.742 209.721 33.958C209.441 33.174 209.021 32.39 208.461 31.606C207.929 30.794 207.201 30.038 206.277 29.338V45.76ZM220.882 55.756C220.322 55.756 219.734 55.602 219.118 55.294C218.502 54.986 217.914 54.3 217.354 53.236C216.822 52.144 216.374 50.576 216.01 48.532C215.674 46.488 215.506 43.59 215.506 39.838C215.506 37.01 215.702 34.574 216.094 32.53C216.486 30.486 216.962 28.932 217.522 27.868C218.082 26.776 218.656 26.076 219.244 25.768C219.86 25.432 220.378 25.264 220.798 25.264C221.218 25.264 221.722 25.432 222.31 25.768C222.926 26.076 223.514 26.776 224.074 27.868C224.634 28.932 225.11 30.486 225.502 32.53C225.922 34.574 226.132 37.01 226.132 39.838C226.132 43.59 225.95 46.488 225.586 48.532C225.222 50.576 224.774 52.144 224.242 53.236C223.71 54.3 223.136 54.986 222.52 55.294C221.932 55.602 221.4 55.756 220.924 55.756H220.882ZM220.84 28.498C220.7 28.498 220.504 28.652 220.252 28.96C220.028 29.24 219.804 29.828 219.58 30.724C219.356 31.592 219.16 32.838 218.992 34.462C218.824 36.058 218.74 37.85 218.74 39.838C218.74 42.554 218.81 44.71 218.95 46.306C219.09 47.874 219.272 49.12 219.496 50.044C219.72 50.94 219.944 51.57 220.168 51.934C220.42 52.27 220.658 52.438 220.882 52.438C221.05 52.438 221.246 52.27 221.47 51.934C221.722 51.57 221.946 50.926 222.142 50.002C222.366 49.078 222.548 47.832 222.688 46.264C222.828 44.668 222.898 42.526 222.898 39.838C222.898 37.85 222.814 36.058 222.646 34.462C222.506 32.838 222.324 31.592 222.1 30.724C221.904 29.828 221.694 29.24 221.47 28.96C221.246 28.652 221.05 28.498 220.882 28.498H220.84ZM234.584 40.174L231.812 55H228.494L234.584 24.55L240.674 55H237.398L234.584 40.174ZM246.935 51.766H249.623C249.931 51.766 250.253 51.71 250.589 51.598C250.925 51.486 251.093 51.136 251.093 50.548C251.093 50.072 251.023 49.68 250.883 49.372C250.771 49.036 250.351 48.868 249.623 48.868H246.935V51.766ZM243.701 25.726L246.935 25.768V45.844H250.673C251.093 45.816 251.513 45.858 251.933 45.97C252.381 46.082 252.773 46.292 253.109 46.6C253.473 46.88 253.767 47.272 253.991 47.776C254.215 48.252 254.327 48.854 254.327 49.582V50.926C254.327 51.43 254.229 51.934 254.033 52.438C253.865 52.914 253.571 53.348 253.151 53.74C252.759 54.104 252.241 54.412 251.597 54.664C250.981 54.888 250.225 55 249.329 55H243.701V25.726Z" fill="url(#paint1_linear_311_1708)"/>
<defs>
<filter id="filter0_d_311_1708" x="22" y="10" width="262" height="68" filterUnits="userSpaceOnUse" color-interpolation-filters="sRGB">
<feFlood flood-opacity="0" result="BackgroundImageFix"/>
<feColorMatrix in="SourceAlpha" type="matrix" values="0 0 0 0 0 0 0 0 0 0 0 0 0 0 0 0 0 0 127 0" result="hardAlpha"/>
<feOffset dy="4"/>
<feGaussianBlur stdDeviation="2"/>
<feComposite in2="hardAlpha" operator="out"/>
<feColorMatrix type="matrix" values="0 0 0 0 0 0 0 0 0 0 0 0 0 0 0 0 0 0 0.25 0"/>
<feBlend mode="normal" in2="BackgroundImageFix" result="effect1_dropShadow_311_1708"/>
<feBlend mode="normal" in="SourceGraphic" in2="effect1_dropShadow_311_1708" result="shape"/>
</filter>
<linearGradient id="paint0_linear_311_1708" x1="153" y1="10" x2="153" y2="70" gradientUnits="userSpaceOnUse">
<stop stop-color="#F7F6EB"/>
<stop offset="0.510417" stop-color="#BD9540"/>
</linearGradient>
<linearGradient id="paint1_linear_311_1708" x1="152" y1="0" x2="152" y2="81" gradientUnits="userSpaceOnUse">
<stop offset="0.203119" stop-color="#F7F6EB"/>
<stop offset="0.778961" stop-color="#BD9540"/>
</linearGradient>
</defs>
</svg>
