<svg width="304" height="81" viewBox="0 0 304 81" fill="none" xmlns="http://www.w3.org/2000/svg">
<g filter="url(#filter0_d_441_2861)">
<path d="M63.5 41C63.5 28.0213 74.0213 17.5 87 17.5H217C229.979 17.5 240.5 28.0213 240.5 41C240.5 53.9787 229.979 64.5 217 64.5H87C74.0213 64.5 63.5 53.9787 63.5 41Z" stroke="url(#paint0_linear_441_2861)" stroke-width="3" shape-rendering="crispEdges"/>
</g>
<path d="M97.8148 55.756C97.2548 55.756 96.6668 55.602 96.0508 55.294C95.4348 54.986 94.8468 54.3 94.2868 53.236C93.7548 52.144 93.3068 50.576 92.9428 48.532C92.6068 46.488 92.4388 43.59 92.4388 39.838C92.4388 37.01 92.6348 34.574 93.0268 32.53C93.4188 30.486 93.8948 28.932 94.4548 27.868C95.0148 26.776 95.5888 26.076 96.1768 25.768C96.7928 25.432 97.3108 25.264 97.7308 25.264C98.1508 25.264 98.6548 25.432 99.2428 25.768C99.8588 26.076 100.447 26.776 101.007 27.868C101.567 28.932 102.043 30.486 102.435 32.53C102.855 34.574 103.065 37.01 103.065 39.838C103.065 43.59 102.883 46.488 102.519 48.532C102.155 50.576 101.707 52.144 101.175 53.236C100.643 54.3 100.069 54.986 99.4528 55.294C98.8648 55.602 98.3328 55.756 97.8568 55.756H97.8148ZM97.7728 28.498C97.6328 28.498 97.4368 28.652 97.1848 28.96C96.9608 29.24 96.7368 29.828 96.5127 30.724C96.2888 31.592 96.0928 32.838 95.9248 34.462C95.7568 36.058 95.6728 37.85 95.6728 39.838C95.6728 42.554 95.7428 44.71 95.8828 46.306C96.0228 47.874 96.2048 49.12 96.4288 50.044C96.6528 50.94 96.8768 51.57 97.1008 51.934C97.3528 52.27 97.5908 52.438 97.8148 52.438C97.9828 52.438 98.1788 52.27 98.4028 51.934C98.6548 51.57 98.8788 50.926 99.0748 50.002C99.2988 49.078 99.4808 47.832 99.6208 46.264C99.7608 44.668 99.8308 42.526 99.8308 39.838C99.8308 37.85 99.7468 36.058 99.5788 34.462C99.4388 32.838 99.2568 31.592 99.0328 30.724C98.8368 29.828 98.6268 29.24 98.4028 28.96C98.1788 28.652 97.9828 28.498 97.8148 28.498H97.7728ZM108.787 55V28.96H105.259V25.726H115.591V28.96H112.063V55H108.787ZM129.542 25.726V55H126.308V28.75H122.15V55H118.916V25.768L129.542 25.726ZM133.46 55V24.13C135.168 24.662 136.68 25.376 137.996 26.272C139.34 27.14 140.46 28.148 141.356 29.296C142.252 30.444 142.924 31.704 143.372 33.076C143.848 34.448 144.086 35.89 144.086 37.402C144.086 39.138 143.792 40.762 143.204 42.274C142.616 43.786 141.79 45.13 140.726 46.306C139.914 47.202 139.158 47.888 138.458 48.364C137.758 48.812 137.17 49.162 136.694 49.414V55H133.46ZM136.694 45.76C137.506 45.172 138.178 44.542 138.71 43.87C139.242 43.198 139.662 42.512 139.97 41.812C140.306 41.112 140.53 40.412 140.642 39.712C140.782 39.012 140.852 38.368 140.852 37.78C140.852 37.36 140.81 36.814 140.726 36.142C140.642 35.47 140.446 34.742 140.138 33.958C139.858 33.174 139.438 32.39 138.878 31.606C138.346 30.794 137.618 30.038 136.694 29.338V45.76ZM154.239 55L153.147 48.868H149.703L148.653 55H145.335L151.425 24.802L157.515 55H154.239ZM151.425 40.426L150.249 45.844H152.601L151.425 40.426ZM160.291 25.264C162.251 25.824 163.903 26.608 165.247 27.616C166.619 28.596 167.725 29.688 168.565 30.892C169.405 32.068 170.007 33.3 170.371 34.588C170.735 35.876 170.917 37.094 170.917 38.242C170.917 39.39 170.791 40.384 170.539 41.224C170.287 42.036 169.979 42.736 169.615 43.324C169.279 43.912 168.915 44.416 168.523 44.836C168.131 45.228 167.809 45.564 167.557 45.844C167.837 45.928 168.173 46.04 168.565 46.18C168.957 46.292 169.321 46.488 169.657 46.768C170.021 47.02 170.315 47.37 170.539 47.818C170.791 48.266 170.917 48.854 170.917 49.582V50.926C170.917 51.43 170.819 51.934 170.623 52.438C170.455 52.914 170.161 53.348 169.741 53.74C169.349 54.104 168.831 54.412 168.187 54.664C167.571 54.888 166.815 55 165.919 55H160.291V25.264ZM163.525 45.844C165.121 44.696 166.213 43.52 166.801 42.316C167.389 41.084 167.683 39.852 167.683 38.62C167.683 38.2 167.641 37.668 167.557 37.024C167.473 36.352 167.277 35.638 166.969 34.882C166.689 34.098 166.269 33.3 165.709 32.488C165.177 31.676 164.449 30.92 163.525 30.22V45.844ZM163.525 51.766H166.213C166.521 51.766 166.843 51.71 167.179 51.598C167.515 51.486 167.683 51.136 167.683 50.548C167.683 50.072 167.613 49.68 167.473 49.372C167.361 49.036 166.941 48.868 166.213 48.868H163.525V51.766ZM181.545 55V35.512L177.723 42.022V55H174.447V25.768H177.723V36.142L184.779 23.962V55H181.545ZM191.228 55V28.96H187.7V25.726H198.032V28.96H194.504V55H191.228ZM204.34 51.766H207.028C207.336 51.766 207.658 51.71 207.994 51.598C208.33 51.486 208.498 51.136 208.498 50.548C208.498 50.072 208.428 49.68 208.288 49.372C208.176 49.036 207.756 48.868 207.028 48.868H204.34V51.766ZM201.106 25.726L204.34 25.768V45.844H208.078C208.498 45.816 208.918 45.858 209.338 45.97C209.786 46.082 210.178 46.292 210.514 46.6C210.878 46.88 211.172 47.272 211.396 47.776C211.62 48.252 211.732 48.854 211.732 49.582V50.926C211.732 51.43 211.634 51.934 211.438 52.438C211.27 52.914 210.976 53.348 210.556 53.74C210.164 54.104 209.646 54.412 209.002 54.664C208.386 54.888 207.63 55 206.734 55H201.106V25.726Z" fill="url(#paint1_linear_441_2861)"/>
<defs>
<filter id="filter0_d_441_2861" x="58" y="16" width="188" height="58" filterUnits="userSpaceOnUse" color-interpolation-filters="sRGB">
<feFlood flood-opacity="0" result="BackgroundImageFix"/>
<feColorMatrix in="SourceAlpha" type="matrix" values="0 0 0 0 0 0 0 0 0 0 0 0 0 0 0 0 0 0 127 0" result="hardAlpha"/>
<feOffset dy="4"/>
<feGaussianBlur stdDeviation="2"/>
<feComposite in2="hardAlpha" operator="out"/>
<feColorMatrix type="matrix" values="0 0 0 0 0 0 0 0 0 0 0 0 0 0 0 0 0 0 0.25 0"/>
<feBlend mode="normal" in2="BackgroundImageFix" result="effect1_dropShadow_441_2861"/>
<feBlend mode="normal" in="SourceGraphic" in2="effect1_dropShadow_441_2861" result="shape"/>
</filter>
<linearGradient id="paint0_linear_441_2861" x1="152" y1="16" x2="152" y2="66" gradientUnits="userSpaceOnUse">
<stop stop-color="#F7F6EB"/>
<stop offset="0.510417" stop-color="#BD9540"/>
</linearGradient>
<linearGradient id="paint1_linear_441_2861" x1="152" y1="0" x2="152" y2="81" gradientUnits="userSpaceOnUse">
<stop offset="0.203119" stop-color="#F7F6EB"/>
<stop offset="0.778961" stop-color="#BD9540"/>
</linearGradient>
</defs>
</svg>
