<svg width="188" height="58" viewBox="0 0 188 58" fill="none" xmlns="http://www.w3.org/2000/svg">
<g filter="url(#filter0_d_441_2862)">
<rect x="5.5" y="1.5" width="177" height="47" rx="23.5" stroke="url(#paint0_linear_441_2862)" stroke-width="3" shape-rendering="crispEdges"/>
</g>
<path d="M46.0867 40V20.512L42.2647 27.022V40H38.9887V10.768H42.2647V21.142L49.3207 8.962V40H46.0867ZM57.8283 30.466C58.7803 29.402 59.4523 28.254 59.8443 27.022C60.2363 25.762 60.4323 24.6 60.4323 23.536C60.4323 22.192 60.1663 20.862 59.6343 19.546C59.1023 18.23 58.3323 17.096 57.3243 16.144C56.5123 15.388 55.7003 14.842 54.8883 14.506C54.1043 14.142 53.4883 13.89 53.0403 13.75V10.348C54.6083 10.796 56.0363 11.426 57.3243 12.238C58.6403 13.05 59.7603 14.016 60.6843 15.136C61.6363 16.256 62.3643 17.516 62.8683 18.916C63.4003 20.316 63.6663 21.828 63.6663 23.452C63.6663 24.936 63.4843 26.28 63.1203 27.484C62.7563 28.66 62.1823 29.836 61.3983 31.012C62.9103 31.712 63.6663 32.902 63.6663 34.582V35.884C63.6663 37.144 63.2323 38.152 62.3643 38.908C61.5243 39.636 60.3063 40 58.7103 40H53.8803V36.766H58.7103C59.1863 36.766 59.5783 36.696 59.8863 36.556C60.2223 36.416 60.3903 35.982 60.3903 35.254C60.3903 34.498 60.2083 34.05 59.8443 33.91C59.4803 33.742 59.0323 33.658 58.5003 33.658H55.4343L53.8383 30.466H57.8283ZM73.9645 27.736L70.1425 21.394V40H66.9085V9.592L73.9645 21.856L81.0205 9.592V40H77.7865V21.394L73.9645 27.736ZM84.6722 10.768H93.9122V14.002H87.9062V27.316H93.9122V30.55H87.9062V36.766H93.9122V40H84.6722V10.768ZM97.601 10.726H100.835V27.316H104.993V10.726H108.227V40H104.993V30.55H100.835V40H97.601V10.726ZM119.751 40V20.512L115.929 27.022V40H112.653V10.768H115.929V21.142L122.985 8.962V40H119.751ZM129.434 40V13.96H125.906V10.726H136.238V13.96H132.71V40H129.434ZM142.546 36.766H145.234C145.542 36.766 145.864 36.71 146.2 36.598C146.536 36.486 146.704 36.136 146.704 35.548C146.704 35.072 146.634 34.68 146.494 34.372C146.382 34.036 145.962 33.868 145.234 33.868H142.546V36.766ZM139.312 10.726L142.546 10.768V30.844H146.284C146.704 30.816 147.124 30.858 147.544 30.97C147.992 31.082 148.384 31.292 148.72 31.6C149.084 31.88 149.378 32.272 149.602 32.776C149.826 33.252 149.938 33.854 149.938 34.582V35.926C149.938 36.43 149.84 36.934 149.644 37.438C149.476 37.914 149.182 38.348 148.762 38.74C148.37 39.104 147.852 39.412 147.208 39.664C146.592 39.888 145.836 40 144.94 40H139.312V10.726Z" fill="url(#paint1_linear_441_2862)"/>
<defs>
<filter id="filter0_d_441_2862" x="0" y="0" width="188" height="58" filterUnits="userSpaceOnUse" color-interpolation-filters="sRGB">
<feFlood flood-opacity="0" result="BackgroundImageFix"/>
<feColorMatrix in="SourceAlpha" type="matrix" values="0 0 0 0 0 0 0 0 0 0 0 0 0 0 0 0 0 0 127 0" result="hardAlpha"/>
<feOffset dy="4"/>
<feGaussianBlur stdDeviation="2"/>
<feComposite in2="hardAlpha" operator="out"/>
<feColorMatrix type="matrix" values="0 0 0 0 0 0 0 0 0 0 0 0 0 0 0 0 0 0 0.25 0"/>
<feBlend mode="normal" in2="BackgroundImageFix" result="effect1_dropShadow_441_2862"/>
<feBlend mode="normal" in="SourceGraphic" in2="effect1_dropShadow_441_2862" result="shape"/>
</filter>
<linearGradient id="paint0_linear_441_2862" x1="94" y1="0" x2="94" y2="50" gradientUnits="userSpaceOnUse">
<stop stop-color="#F7F6EB"/>
<stop offset="0.510417" stop-color="#BD9540"/>
</linearGradient>
<linearGradient id="paint1_linear_441_2862" x1="94" y1="0" x2="94" y2="50" gradientUnits="userSpaceOnUse">
<stop offset="0.203119" stop-color="#F7F6EB"/>
<stop offset="0.778961" stop-color="#BD9540"/>
</linearGradient>
</defs>
</svg>
