<svg width="387" height="211" viewBox="0 0 387 211" fill="none" xmlns="http://www.w3.org/2000/svg">
<g clip-path="url(#clip0_1011_4033)">
<path d="M222.279 18.7864C221.695 20.8412 221.403 22.6024 220.818 24.3636C215.851 38.16 210.885 51.9563 206.21 66.0462C205.041 69.5687 203.288 71.0364 199.49 71.0364C182.543 71.3299 182.543 71.6234 176.992 55.4788C172.609 43.4437 168.519 31.7021 164.136 18.7864C184.004 18.7864 202.996 18.7864 222.279 18.7864ZM175.823 27.0055C179.914 38.4535 183.712 49.608 187.803 60.1754C188.971 63.4044 198.321 63.4044 199.49 60.1754C203.58 49.608 207.086 38.4535 211.177 27.0055C199.197 27.0055 188.095 27.0055 175.823 27.0055Z" fill="#FED076"/>
<path d="M820.071 125.635C828.252 125.928 836.433 125.635 844.614 125.928C849.289 126.222 851.042 124.754 851.042 119.764C850.749 90.41 851.042 61.0561 851.042 31.4086C851.042 26.712 849.873 24.6572 844.906 24.6572C815.688 24.9508 786.471 24.9508 756.961 24.9508C753.747 24.9508 752.286 26.1249 752.578 29.3539C752.871 34.6376 752.578 39.9213 752.578 45.205C752.578 63.1109 752.578 63.1109 734.756 62.8173C730.665 62.8173 729.204 61.6432 729.204 57.5336C729.497 49.021 728.912 40.2148 729.497 31.7022C729.789 26.712 728.036 24.9508 723.069 24.9508C694.435 25.2443 665.802 24.9508 636.877 24.9508H338.858C335.351 24.9508 331.845 24.0701 330.677 29.9409C313.438 110.371 226.954 155.869 160.046 135.909C105.409 119.764 70.348 85.7134 56.3235 29.9409C55.447 26.1249 53.9861 24.6572 50.1878 24.6572C-24.317 24.9508 -98.5296 25.2443 -173.034 25.5378C-183.845 25.5378 -194.948 25.5378 -205.758 25.5378C-224.165 25.5378 -242.28 25.5378 -260.687 25.5378C-272.374 25.5378 -284.061 25.8314 -295.748 25.8314C-310.065 25.8314 -324.089 25.5378 -338.406 25.2443C-341.912 25.2443 -342.789 27.0055 -342.789 29.9409C-342.789 36.1053 -342.789 41.976 -342.789 48.1404C-342.789 62.5238 -342.789 62.5238 -357.397 62.5238C-365.578 62.5238 -365.578 62.5238 -365.87 54.3047V24.9508C-379.311 24.9508 -392.166 24.9508 -404.73 24.9508C-422.845 25.2443 -440.96 25.5378 -459.075 25.5378C-463.457 25.5378 -464.918 26.712 -464.918 31.1151C-464.918 61.0561 -464.918 91.2907 -464.918 121.232C-464.918 125.048 -463.749 125.928 -460.243 125.928C-451.186 125.635 -441.836 125.928 -432.779 125.928C-429.273 125.928 -427.812 127.396 -428.104 130.625C-428.104 135.322 -428.396 140.018 -428.104 144.715C-428.104 148.237 -429.273 149.705 -432.779 149.705C-441.252 149.705 -449.725 149.999 -457.906 149.705C-463.457 149.411 -465.21 151.173 -465.21 157.043C-465.21 174.656 -465.21 192.268 -465.21 209.881H-455.861C-455.861 194.91 -455.861 180.233 -455.861 165.263C-455.861 159.979 -454.4 157.924 -448.848 158.218C-445.342 158.511 -444.174 159.979 -444.174 163.208C-444.174 172.895 -444.174 182.581 -444.174 191.975V209.587H-435.993V179.352C-435.993 173.775 -435.993 168.492 -435.993 162.914C-435.993 159.392 -435.116 157.924 -431.318 157.924C-418.754 157.337 -418.754 157.337 -418.754 144.421C-418.754 139.725 -418.754 135.028 -418.754 130.331C-418.754 127.102 -417.586 125.635 -414.372 125.928C-397.133 126.222 -400.639 123.874 -400.347 139.138C-400.055 148.237 -400.639 157.337 -400.347 166.143C-400.055 171.72 -402.1 173.482 -407.359 172.895C-411.742 172.601 -416.417 172.895 -420.799 172.895C-425.182 172.601 -426.643 174.069 -426.643 178.472C-426.643 188.746 -426.643 199.313 -426.643 209.587H-419.046V187.278C-419.046 182.288 -417.586 180.527 -412.619 181.114C-407.652 181.407 -402.392 181.114 -397.425 181.114C-394.211 181.114 -392.458 180.233 -392.458 176.417C-392.458 158.218 -392.458 140.018 -392.458 121.819C-392.458 118.296 -393.919 117.122 -397.133 117.416C-401.516 118.003 -402.685 115.654 -402.392 111.838C-402.392 110.664 -402.392 109.49 -402.392 108.316C-402.392 99.2162 -402.392 99.2162 -393.627 98.0421C-393.335 97.7485 -393.043 97.1614 -392.751 96.5744C-392.166 94.226 -391.582 89.5294 -390.705 89.5294C-385.446 88.9423 -380.187 89.2359 -374.928 89.823C-374.344 89.823 -373.759 92.7583 -373.759 94.5196C-373.759 97.455 -372.298 98.6291 -369.377 98.6291C-351.554 98.6291 -333.731 98.6291 -316.201 98.3356C-314.74 98.3356 -312.402 95.6937 -312.402 94.2261C-311.818 88.6488 -311.818 83.3651 -312.11 77.7878C-312.402 73.0912 -310.357 71.6235 -305.974 71.9171C-303.053 72.2106 -300.131 71.9171 -297.209 71.9171C-179.462 71.9171 -61.7155 71.9171 56.0314 71.9171C61.2905 71.9171 64.2123 73.3848 67.134 78.0814C91.6768 117.416 127.614 139.725 172.61 147.357C218.189 154.989 257.925 140.018 292.109 110.371C303.212 100.977 311.393 88.0617 320.451 76.3201C322.788 73.3848 324.833 72.2106 328.631 72.2106C431.769 72.2106 534.907 72.2106 638.046 72.2106C656.16 72.2106 674.275 72.2106 692.39 72.2106C697.357 72.2106 698.818 73.6783 698.818 78.6685C698.526 85.1263 698.818 91.5842 698.818 98.9227C718.978 98.9227 738.262 98.9227 757.253 98.6291C758.422 98.6291 760.759 95.9873 760.759 94.8131C760.759 90.1165 762.805 88.9423 766.895 89.5294C768.94 89.823 770.693 89.823 772.739 89.5294C777.121 89.2359 780.335 89.823 780.043 95.6937C780.043 96.5744 782.673 98.9227 784.133 98.9227C788.516 98.9227 789.685 100.684 789.393 104.793C789.393 105.968 789.393 107.142 789.393 108.316C789.393 117.416 789.393 117.416 780.627 118.883C780.335 120.351 780.043 121.819 780.043 123.286C780.043 140.899 780.043 158.511 780.043 176.124C780.043 180.527 781.504 181.994 785.886 181.994C791.438 181.701 796.697 181.994 802.248 181.994C805.17 181.994 806.631 183.168 806.339 186.397C806.339 188.159 806.339 189.92 806.339 191.681V210.468H814.228V182.288C814.228 173.775 814.228 174.069 805.462 173.775C799.911 173.775 792.607 174.949 789.393 172.014C786.471 169.372 788.224 161.74 788.224 156.163C788.224 148.237 788.224 140.018 788.224 132.093C788.224 127.983 789.685 126.515 793.775 126.809C809.553 127.102 806.631 125.048 806.923 139.725C806.923 144.421 807.215 149.118 806.923 153.815C806.631 157.631 808.092 158.805 811.89 159.098C823.869 159.392 823.869 159.685 823.869 172.014V210.761H832.05V166.73C832.05 163.501 830.589 159.392 836.433 159.098C843.153 159.098 843.737 159.098 843.737 166.143V210.761H851.918C851.918 193.149 851.918 175.243 851.918 157.631C851.918 152.64 851.042 150.292 845.49 150.586C837.017 150.879 828.252 150.586 819.779 150.586C816.273 150.586 814.812 149.411 814.812 145.889C815.104 141.486 815.104 137.376 814.812 132.973C813.935 127.396 815.396 125.341 820.071 125.635ZM-445.634 105.381C-445.634 106.261 -445.634 106.848 -445.634 107.729C-445.634 109.49 -445.634 111.251 -445.634 113.013C-445.342 117.122 -447.972 117.122 -450.894 117.416C-454.108 117.416 -456.153 116.829 -455.861 113.013C-455.861 110.371 -455.861 108.022 -455.861 105.381C-455.861 101.858 -456.445 98.3356 -450.894 98.3356C-445.05 98.0421 -445.342 101.565 -445.634 105.381ZM-433.655 117.416C-438.33 117.122 -437.746 113.6 -437.161 110.958C-436.285 106.848 -440.96 100.39 -433.655 98.6291C-427.52 97.1614 -426.935 98.6291 -426.935 108.022C-426.935 117.122 -427.52 117.709 -433.655 117.416ZM-409.697 103.619C-409.989 105.087 -409.697 106.848 -409.697 108.316C-409.697 117.122 -410.866 118.883 -415.832 117.122C-421.968 115.361 -418.17 109.784 -418.754 105.968C-419.046 103.326 -420.799 99.2162 -415.832 98.3356C-412.326 98.0421 -409.112 98.3356 -409.697 103.619ZM-400.347 84.5393C-400.347 88.6488 -401.808 90.1165 -405.899 89.823C-420.799 89.5294 -435.7 89.5294 -450.309 89.823C-454.692 89.823 -456.153 88.0617 -455.861 83.9522C-455.568 76.3202 -455.861 68.6881 -455.861 61.0561C-455.861 53.7176 -455.568 46.0856 -455.861 38.7471C-455.861 34.6376 -454.4 33.1699 -450.309 33.1699C-435.408 33.4634 -420.799 33.4634 -405.899 33.1699C-401.808 33.1699 -400.347 34.344 -400.347 38.4536C-400.639 54.0112 -400.639 69.2752 -400.347 84.5393ZM-392.166 36.3988C-391.874 35.5182 -390.998 33.7569 -390.413 33.7569C-385.154 33.4634 -379.895 33.4634 -374.928 34.0505C-374.051 34.0505 -373.467 38.4536 -373.467 40.8019C-373.467 41.976 -375.512 43.4437 -376.681 43.7373C-378.726 44.3244 -381.064 43.7373 -383.109 43.7373C-391.874 44.0308 -393.627 42.8567 -392.166 36.3988ZM-392.458 57.5336C-392.458 51.3693 -388.66 52.5435 -385.154 52.5435C-384.278 52.5435 -383.693 52.5435 -382.817 52.5435C-381.356 52.5435 -379.603 52.5435 -378.142 52.5435C-374.051 52.2499 -373.175 54.0112 -373.175 57.8272C-373.175 61.0561 -373.467 63.698 -377.85 63.1109C-380.187 62.8173 -382.524 63.1109 -384.862 63.1109C-388.66 62.8173 -392.751 63.9915 -392.458 57.5336ZM-379.603 80.7232C-380.771 80.7232 -381.94 80.7232 -383.109 80.7232C-384.862 80.7232 -386.907 81.3103 -388.368 80.7232C-389.829 79.8426 -391.582 78.0814 -392.166 76.3201C-392.751 73.6783 -392.166 71.33 -388.368 71.33C-385.446 71.33 -382.524 71.33 -379.603 71.33C-376.389 71.33 -373.467 70.7429 -373.175 75.7331C-373.175 80.7232 -376.097 80.7232 -379.603 80.7232ZM-327.303 33.1699C-278.218 33.1699 -229.424 33.1699 -180.339 33.1699C-107.003 33.1699 -33.6666 33.1699 39.6695 33.1699C49.3113 33.1699 50.1878 34.0505 50.7722 44.9114C48.4348 44.9114 46.3896 45.205 44.0522 45.205C-79.5382 45.205 -203.129 45.205 -326.427 45.205C-330.225 45.205 -334.315 46.3791 -334.315 39.9213C-334.608 34.0505 -332.27 33.1699 -327.303 33.1699ZM50.48 63.4044C-70.4807 63.4044 -191.442 63.4044 -312.402 63.1109C-318.246 63.1109 -320.583 64.5786 -319.999 70.7429C-319.414 75.146 -319.999 79.8426 -319.999 84.2457C-319.707 88.3553 -320.875 90.41 -325.55 90.1165C-336.945 89.823 -348.632 89.823 -360.027 90.1165C-364.117 90.1165 -365.578 88.6488 -365.286 84.5393C-364.994 68.3946 -367.039 71.33 -352.723 71.0364C-348.34 71.0364 -343.665 70.7429 -339.282 71.0364C-335.776 71.0364 -334.608 69.8623 -334.315 66.3398C-333.731 53.7176 -333.731 53.7176 -321.168 53.7176C-242.864 53.7176 -164.561 53.7176 -86.2582 53.7176C-41.2632 53.7176 3.43974 53.7176 48.4348 53.7176C56.0314 53.7176 56.6157 54.3047 58.0766 63.4044H50.48ZM348.207 33.4634H713.719C717.809 33.4634 721.9 32.5828 721.9 39.3342C721.608 44.3244 720.147 45.7921 715.472 45.7921C612.334 45.7921 509.488 45.7921 406.35 45.4985C385.606 45.4985 364.569 45.4985 343.825 45.4985H335.936C337.689 33.4634 337.689 33.4634 348.207 33.4634ZM739.431 90.1165C730.373 90.41 721.608 90.1165 712.55 90.1165C708.46 90.1165 706.707 88.9423 706.999 84.8328C707.291 79.8426 706.707 74.5589 706.999 69.5687C707.291 64.5786 705.538 63.1109 700.571 63.4044C673.399 63.698 646.226 63.4044 619.054 63.4044H328.631C329.508 56.653 331.845 53.7176 338.565 53.7176C463.617 54.0112 588.376 53.7176 713.135 53.7176C721.023 53.7176 721.023 53.7176 721.023 61.9367C721.023 63.4044 721.023 64.5786 721.023 66.0463C720.439 70.1558 722.484 71.6235 726.575 71.33C733.587 71.0364 740.599 71.33 747.611 71.33C751.118 71.33 752.578 72.2106 752.578 76.0266C752.578 93.3454 754.916 89.823 739.431 90.1165ZM761.052 36.3988C761.344 35.5182 762.22 33.7569 762.805 33.7569C768.064 33.4634 773.323 33.4634 778.29 34.0505C779.166 34.0505 779.751 38.4536 779.751 40.8019C779.751 41.976 777.706 43.4437 776.537 43.7373C774.492 44.3244 772.446 43.7373 770.109 43.7373C761.052 44.0308 759.591 42.8567 761.052 36.3988ZM768.064 52.2499C768.94 52.2499 769.525 52.2499 770.401 52.2499C772.154 52.2499 773.907 52.2499 775.66 52.2499C779.166 51.9564 779.751 54.3047 779.751 57.2401C779.751 59.8819 780.335 63.1109 775.953 62.8173C773.323 62.8173 770.986 62.8173 768.356 62.8173C764.558 62.8173 760.759 63.698 760.759 57.2401C760.759 51.0758 764.558 52.5435 768.064 52.2499ZM773.615 80.7232C772.446 80.7232 771.278 80.7232 770.109 80.7232C768.356 80.7232 766.603 80.7232 764.85 80.7232C761.344 81.0168 760.467 78.6685 761.052 76.0266C761.636 74.2654 763.097 71.9171 764.558 71.6235C767.187 71.0364 770.401 71.33 773.323 71.33C776.829 71.33 779.751 71.0364 779.751 76.3201C779.751 81.0168 776.829 80.7232 773.615 80.7232ZM843.153 112.719C843.445 116.829 841.108 117.416 837.894 117.416C834.68 117.416 832.635 116.535 832.927 112.719C833.219 110.371 832.927 108.022 832.927 105.674C832.927 102.152 832.05 98.3356 838.186 98.3356C844.322 98.3356 843.445 101.858 843.445 105.674V107.435C843.153 109.197 842.861 110.958 843.153 112.719ZM806.047 116.242C797.573 118.003 796.989 117.709 796.697 110.371C796.697 108.022 796.697 105.674 796.697 103.326C796.405 100.097 797.281 98.3356 801.08 98.3356C804.586 98.3356 806.047 99.5098 805.754 103.032C806.047 107.729 806.047 112.132 806.047 116.242ZM792.314 89.823C788.808 89.823 787.347 88.6488 787.64 84.8328C787.64 76.9072 787.64 69.2752 787.64 61.3496C787.64 53.7176 787.64 46.0856 787.64 38.4536C787.64 34.6376 788.808 33.1699 792.606 33.1699C807.8 33.1699 822.993 33.1699 838.186 33.1699C841.692 33.1699 843.153 34.6376 842.861 38.16C842.861 53.7176 842.861 69.5687 842.861 85.1263C842.861 88.9423 841.108 89.823 837.894 89.823C822.993 89.823 807.8 89.823 792.314 89.823ZM814.52 104.793C813.935 102.445 812.767 98.6291 817.734 98.3356C823.869 97.7485 824.454 98.3356 824.454 108.022C824.454 117.122 823.577 118.59 817.734 117.122C810.429 115.361 815.396 108.903 814.52 104.793Z" fill="#FED076"/>
<path d="M868.572 0.293539C850.457 0.587079 832.342 0.293539 814.227 0.293539H313.438C305.549 0.293539 305.549 0.293539 305.549 8.51264C304.965 25.8315 300.875 41.6826 292.401 56.9466C290.064 61.0562 288.019 61.3497 284.221 59.295C264.645 47.5534 254.711 30.2346 254.126 7.33848C254.126 2.05478 252.666 0.293539 247.114 0.293539C212.053 0.587079 176.7 0.293539 141.639 0.293539C134.042 0.293539 134.042 0.293539 133.75 7.92556C132.874 30.2346 123.232 47.2598 103.948 58.7079C99.5655 61.3497 97.5203 60.4691 95.1829 56.3596C86.7098 41.3891 82.6193 25.2444 82.0349 7.92556C81.7428 -6.99852e-07 82.0349 0 73.854 0H-479.819C-488 0.293539 -488 0.293539 -488 8.2191C-488 75.1461 -488 142.367 -488 209.294H-480.111C-480.111 150.879 -480.111 92.1714 -480.111 33.757V8.51264H-434.824C-385.738 8.51264 -336.653 8.51264 -287.567 8.51264C-254.552 8.51264 -221.244 8.80618 -188.228 8.80618C-103.497 8.80618 -18.7657 8.80618 65.9653 8.80618C71.8088 8.80618 73.854 10.5674 74.4384 16.4382C78.2366 60.4691 103.656 89.236 141.931 107.435C152.449 112.426 163.844 115.654 174.947 119.471C186.342 123.287 197.737 123.58 209.424 120.645C234.551 113.893 258.217 103.913 278.085 86.5941C299.122 68.1011 310.516 44.9115 313.438 17.0253C314.315 8.80618 312.269 8.80618 322.788 8.80618H775.66C804.001 8.80618 832.342 8.80618 860.683 8.80618C866.235 8.80618 867.988 9.98034 867.988 15.8511C867.988 80.4298 867.988 145.008 867.988 209.587H875.292V207.826C875.292 180.233 875.292 152.934 875.292 125.341C875.292 85.7135 875.292 46.0857 875.584 6.45787C875 1.76124 873.539 0.293539 868.572 0.293539ZM145.145 9.09972H242.439C241.855 11.448 241.271 13.2093 240.686 14.677C231.921 35.8118 222.864 56.9466 214.098 78.0815C212.638 81.6039 210.592 83.3652 206.794 83.0716C197.737 82.7781 188.971 83.0716 179.914 82.7781C177.869 82.7781 174.947 81.3104 174.362 79.8427C164.428 56.9466 154.787 34.0506 145.145 11.1545C144.853 10.861 145.145 10.2739 145.145 9.09972ZM103.948 68.3947C121.771 58.4143 134.627 44.3244 140.178 23.7767C143.684 29.6475 147.482 34.9312 143.684 42.5632C138.133 54.3048 130.828 64.8722 120.31 72.7978C112.129 79.2556 109.792 78.9621 103.948 68.3947ZM128.491 90.9972C125.861 88.6489 122.94 86.8876 120.018 84.8329C126.446 78.9621 132.581 73.9719 137.548 68.1011C142.515 62.2303 146.314 55.4789 150.696 49.0211C157.708 57.2402 158.585 62.8174 152.449 71.0365C147.482 77.7879 141.931 83.6587 136.672 90.1166C134.334 93.3455 131.705 93.9326 128.491 90.9972ZM148.359 101.858C146.021 101.271 143.976 99.8034 141.347 98.3357C148.359 89.823 154.787 81.8975 162.091 73.0913C163.844 77.4944 165.597 81.0169 166.766 84.8329C167.058 86.007 166.766 87.7683 166.182 88.6489C162.383 93.052 158.877 97.7486 154.494 101.858C153.326 102.739 150.112 102.152 148.359 101.858ZM171.441 107.435C168.227 112.132 165.597 107.142 162.091 107.729C168.519 95.1067 174.655 90.7037 181.959 92.4649C178.453 97.4551 174.947 102.445 171.441 107.435ZM179.622 111.838C180.206 104.794 185.757 99.5098 192.477 98.9228C199.197 98.3357 205.333 103.619 207.378 111.545C198.029 115.655 188.971 115.361 179.622 111.838ZM213.806 103.326C212.053 99.2163 207.671 95.9874 204.749 92.4649C212.345 90.1166 215.851 92.4649 224.909 106.555C219.65 110.077 216.436 110.077 213.806 103.326ZM239.518 101.565C236.012 103.619 233.09 103.326 230.46 99.5098C228.999 97.4551 227.246 95.6938 225.493 93.6391C218.481 85.7135 218.481 82.7781 225.493 73.6784C231.921 81.6039 238.641 89.5295 245.361 98.0421C243.608 99.5098 241.563 100.39 239.518 101.565ZM256.464 92.1714C255.295 92.7584 252.373 91.8778 251.205 90.7037C245.946 84.8329 240.686 78.9621 235.719 72.5042C228.707 63.4045 228.999 60.7626 236.596 47.5534C244.192 62.8174 253.542 75.1461 268.443 84.2458C263.768 87.4747 260.262 90.1166 256.464 92.1714ZM276.624 76.3202C275.747 77.2009 273.118 77.2009 272.241 76.6138C257.34 67.5141 247.114 54.3048 241.855 37.8666C240.686 34.0506 243.9 28.7669 245.069 24.3638C245.946 24.3638 246.53 24.3638 247.406 24.0702C252.666 44.3244 264.937 58.7079 283.928 68.9817C281.299 71.6236 279.254 74.2655 276.624 76.3202Z" fill="#FED076"/>
</g>
<defs>
<clipPath id="clip0_1011_4033">
<rect width="387" height="211" fill="white"/>
</clipPath>
</defs>
</svg>
