<svg width="389" height="210" viewBox="0 0 389 210" fill="none" xmlns="http://www.w3.org/2000/svg">
<path d="M194.464 209.832H172.944C165.595 209.832 158.247 209.867 150.899 209.873H113.453H72.0703C66.6834 209.873 61.2965 209.844 55.9096 209.873C54.8667 209.873 54.6388 209.595 54.6526 208.809C54.701 206.497 54.6526 206.497 51.8901 206.497C42.4975 206.497 33.0981 206.497 23.6986 206.468C22.6212 206.468 22.1516 206.607 22.2206 207.659C22.3657 209.832 22.2828 209.844 19.6929 209.838H2.68963C0.0997639 209.838 0.0790451 209.838 0.0790451 207.653C0.0790451 202.37 0.134295 197.092 0.0790451 191.815C0.0790451 190.89 0.417454 190.711 1.41887 190.723C4.27117 190.751 4.27807 190.723 4.27807 188.335C4.27807 180.243 4.27807 172.15 4.27807 164.023C4.27807 163.006 3.89823 162.798 2.77941 162.867C0.0168884 162.983 0.0168884 162.942 0.0168884 160.676C0.0168884 154.624 0.0168884 148.578 0.0168884 142.526C0.0168884 135.709 0.0399094 128.894 0.0859514 122.081C0.0859514 115.792 0.0974618 109.501 0.120483 103.208C0.120483 96.2717 0.079045 89.3699 0.0652324 82.4509C0.0652324 73.8536 0.0652324 65.2563 0.0652324 56.659C0.0652324 53.7688 0.113576 50.9249 0.0652324 48.0578C0.0652324 47.3642 0.300047 47.1618 1.1219 47.1676C2.13712 47.1676 3.49076 47.5838 4.07779 46.9595C4.58195 46.422 4.29189 45.3526 4.29189 44.5202C4.29189 36.3757 4.29189 28.2312 4.29189 20.0925C4.29189 19.2254 4.10542 18.8786 2.91063 18.9017C-0.107425 18.9653 -0.0176432 18.9017 0.0445135 16.4046C0.134295 12.7052 0.0445135 9.00578 0.0445135 5.30636C0.0445135 3.9422 0.0445136 2.57803 0.00307578 1.21965C-0.038362 0.352601 0.334578 0.0635839 1.38434 0.0635839C7.55857 0.098266 13.7259 0.0635839 19.9001 0.0635839C21.972 0.0635839 21.972 0.0924856 22.0963 1.79769C22.0963 2.04046 22.1861 2.28324 22.1999 2.52601C22.269 3.76301 22.2621 3.60116 23.7469 3.56647C24.8036 3.56647 25.9086 3.53179 26.986 3.56647C28.2844 3.61272 29.638 3.85549 30.964 3.56647C31.4117 3.45281 31.8854 3.431 32.3453 3.50289C33.7265 3.80925 35.1699 3.30058 36.489 3.50289C39.2861 3.95376 42.0486 3.19075 44.8733 3.58381C46.4841 3.69767 48.1048 3.66666 49.7077 3.49133C51.0406 3.42197 52.3942 3.43353 53.7341 3.49133C54.5628 3.52023 54.7217 3.24277 54.6388 2.62428C54.3625 0.0635842 54.3764 0.0346822 57.6085 0.0289018C62.8297 0.0289018 68.0508 0.0693642 73.272 0.0635839C79.3288 0.0635839 85.3856 0.0115608 91.4425 0.00578048C99.4607 0.00578048 107.479 0.0404625 115.504 0.0404625C122.728 0.0404625 129.952 0 137.176 0C147.107 0 157.038 0.0404625 166.97 0.0520232C178.623 0.0520232 190.272 0.0520232 201.916 0.0520232C212.006 0.0520232 222.103 0.0924857 232.193 0.0924857C241.171 0.0924857 250.149 0.00578053 259.127 0.0924857C262.912 0.0924857 266.724 0.156069 270.474 0.196532C273.575 0.196532 276.69 0.16185 279.826 0.144509C285.62 0.144509 291.414 0.0809249 297.209 0.0751446C309.267 0.0751446 321.319 0.0751446 333.37 0.0751446C334.254 0.0751446 334.392 0.306358 334.385 0.976879C334.385 3.58381 334.385 3.56647 337.5 3.56647C344.151 3.56647 350.802 3.47977 357.445 3.60116C360.208 3.6474 362.894 3.41619 365.622 3.56647C366.465 3.6185 366.741 3.44509 366.748 2.66474C366.797 -0.404624 366.058 0.109827 369.835 0.0924857C375.802 0.0578037 381.776 0.0924857 387.75 0.0924857C388.634 0.0924857 388.973 0.213873 388.966 1.05202C388.917 6.75144 388.966 12.4509 388.966 18.1503C388.966 18.7861 388.759 19.0751 387.999 19.0289C387.914 19.0231 387.828 19.0231 387.743 19.0289C384.829 19.0925 384.815 19.0925 384.815 21.4913C384.815 29.6705 384.815 37.8497 384.815 46.0231C384.815 47.0694 385.223 47.3064 386.376 47.2775C388.91 47.2139 388.952 47.2775 388.952 49.3064C388.952 56.3314 388.952 63.3565 388.952 70.3815C388.952 78.7707 388.952 87.1561 388.952 95.5376C388.952 104.663 388.952 113.788 388.952 122.913C388.952 130.185 388.952 137.457 388.952 144.728C388.952 150.509 388.911 156.335 388.952 162.139C388.952 162.861 388.614 162.942 387.93 162.942C384.732 162.942 384.767 162.942 384.774 165.653C384.774 173.445 384.774 181.235 384.774 189.023C384.774 189.37 384.829 189.723 384.774 190.069C384.705 190.647 385.029 190.815 385.651 190.803C386.272 190.792 387.073 190.855 387.778 190.803C388.634 190.746 388.966 190.994 388.959 191.74C388.959 195.549 388.959 199.358 388.959 203.173C388.959 205.029 388.869 206.884 388.993 208.734C389.062 209.803 388.593 210.017 387.439 209.994C384.435 209.936 381.424 209.994 378.42 209.96C374.842 209.96 371.265 209.925 367.687 209.96C366.997 209.96 366.672 209.78 366.762 209.185C366.772 209.044 366.772 208.904 366.762 208.763C366.714 206.607 366.714 206.607 364.186 206.607H336.457C336.168 206.624 335.877 206.624 335.587 206.607C334.544 206.48 334.344 206.89 334.344 207.688C334.344 210 334.302 210 331.485 210L294.26 209.965C280.986 209.965 267.714 209.95 254.445 209.919C244.721 209.919 234.997 209.919 225.266 209.919H198.842H194.464V209.832ZM376.217 104.936V84.8208C376.217 79.7187 376.217 74.6185 376.217 69.5202C376.217 63.5144 376.161 57.5029 376.175 51.4971C376.175 50.7457 375.878 50.5434 375.008 50.5607C372.667 50.6012 370.326 50.5607 367.991 50.5607C367.107 50.5607 366.7 50.422 366.741 49.5838C366.817 48.0116 366.741 46.4335 366.741 44.8613C366.741 38.6416 366.741 32.422 366.741 26.1965C366.741 25.4624 366.569 25.1387 365.56 25.1965C363.937 25.2832 362.301 25.1965 360.678 25.237C359.987 25.237 359.697 25.104 359.711 24.474C359.759 23.0462 359.642 21.5838 359.752 20.1792C359.828 19.1445 359.421 18.8844 358.212 18.8902C349.275 18.9249 340.339 18.8902 331.402 18.9249C330.518 18.9249 330.221 18.7341 330.235 18C330.276 16.0058 330.235 14.0116 330.235 12.0231C330.235 11.289 329.979 11.0405 329.109 11.0578C326.685 11.0983 324.274 11.0925 321.837 11.0925C310.786 11.0925 299.755 11.079 288.742 11.052H244.141C231.184 11.052 218.231 11.052 205.279 11.052C194.036 11.052 182.799 11.104 171.556 11.1098C156.302 11.1098 141.048 11.1098 125.794 11.1098H73.4999C69.0661 11.1098 64.6391 11.185 60.2122 11.0578C58.9069 11.0231 58.6997 11.3237 58.7273 12.2139C58.7757 14.104 58.6928 15.9884 58.7826 17.8728C58.824 18.7225 58.4718 19.0289 57.5256 18.9653C56.7314 18.9249 55.9372 18.9653 55.143 18.9653C46.9106 18.9653 38.6783 18.9653 30.4529 18.9133C29.5758 18.9133 29.272 19.1618 29.2996 19.8902C29.341 21.3584 29.2305 22.8266 29.2996 24.289C29.3479 25.0867 28.9957 25.237 28.167 25.2197C26.6199 25.185 25.0729 25.2601 23.5328 25.2197C22.5867 25.185 22.2414 25.3584 22.2483 26.2428C22.2483 30.948 22.1101 35.6532 22.2068 40.3584C22.2759 43.4162 22.0411 46.4798 22.2621 49.5318C22.3311 50.4451 21.9996 50.6069 21.0604 50.5954C18.8918 50.5954 16.7163 50.5954 14.5477 50.5954C13.7466 50.5954 13.4151 50.7919 13.4427 51.4971C13.4911 52.7919 13.4427 54.0809 13.4427 55.3757C13.4427 63.3064 13.4427 71.237 13.4427 79.1676C13.4427 84.8902 13.4427 90.6243 13.498 96.3526C13.5532 104.74 13.498 113.116 13.498 121.514C13.498 126.728 13.498 131.931 13.498 137.121C13.498 144.179 13.498 151.237 13.4635 158.301C13.4635 159.139 13.788 159.376 14.7687 159.358C16.9373 159.329 19.1059 159.445 21.2745 159.434C22.1032 159.434 22.3311 159.636 22.3173 160.329C22.269 163.301 22.3173 166.272 22.3173 169.249C22.3173 174.069 22.3173 178.896 22.3173 183.699C22.3173 184.468 22.5452 184.757 23.519 184.711C25.1075 184.642 26.6959 184.711 28.2844 184.682C29.0924 184.682 29.4101 184.861 29.3825 185.566C29.3203 186.786 29.3825 188.012 29.3825 189.237C29.3825 190.728 29.3825 190.74 31.1298 190.74C39.9008 190.74 48.6718 190.74 57.4497 190.699C58.6099 190.699 58.8309 191.017 58.8309 191.884C58.7826 193.873 58.8309 195.867 58.8309 197.861C58.8309 198.624 59.1417 198.821 59.9843 198.803C62.2841 198.763 64.5839 198.763 66.8906 198.775C85.137 198.867 103.39 198.717 121.644 198.855C125.787 198.855 129.89 198.855 134.02 198.792C139.897 198.717 145.76 198.792 151.665 198.792H170.043C179.021 198.792 187.999 198.792 196.978 198.792C211.177 198.792 225.374 198.803 239.569 198.827H261.51C271.579 198.827 281.649 198.751 291.718 198.798C304.15 198.855 316.615 198.653 329.061 198.902C329.965 198.902 330.4 198.653 330.366 197.792C330.283 195.803 330.366 193.809 330.324 191.815C330.324 191.058 330.518 190.694 331.581 190.711C335.131 190.775 338.688 190.711 342.238 190.711C347.714 190.711 353.191 190.711 358.661 190.711C359.517 190.711 359.87 190.514 359.842 189.763C359.787 188.382 359.883 186.994 359.794 185.613C359.738 184.78 360.132 184.59 361.023 184.618C362.57 184.671 364.117 184.618 365.657 184.676C366.52 184.705 366.852 184.439 366.845 183.711C366.845 181.682 366.845 179.665 366.845 177.624C366.845 171.844 366.845 166.064 366.845 160.318C366.845 159.578 367.024 159.266 368.026 159.295C370.236 159.364 372.446 159.295 374.663 159.295C376.348 159.295 376.334 159.295 376.334 157.919C376.334 151.241 376.334 144.568 376.334 137.902C376.334 133.462 376.334 129.031 376.334 124.607C376.265 118.064 376.226 111.507 376.217 104.936ZM194.581 9.28324V9.33526H213.573H246.261C254.783 9.33526 263.301 9.33526 271.814 9.33526C281.538 9.33526 291.269 9.28324 300.993 9.27746C310.432 9.27746 319.871 9.28902 329.309 9.31214C330 9.31214 330.414 9.10404 330.228 8.54913C329.724 7.03468 330.262 5.50867 330.062 3.98844C330 3.52601 330.062 3.32948 329.44 3.32948C324.848 3.32948 320.255 3.32948 315.628 3.32948H290.261H268.589C259.701 3.32948 250.812 3.32948 241.924 3.32948C232.359 3.32948 222.793 3.32948 213.228 3.32948C205.673 3.32948 198.117 3.37572 190.555 3.36994C180.078 3.36994 169.601 3.32948 159.117 3.32948C150.015 3.32948 140.905 3.35838 131.803 3.36416C123.356 3.36416 114.917 3.36416 106.477 3.36416H72.6366C68.2925 3.36416 63.9485 3.36416 59.6113 3.36416C58.8447 3.36416 58.7066 3.58381 58.7204 4.15607C58.7619 5.34104 58.7204 6.53179 58.7204 7.72254C58.7204 9.32948 58.7204 9.33526 60.5851 9.33526H83.0099C94.5848 9.33526 106.16 9.33526 117.735 9.33526C131.976 9.33526 146.219 9.34682 160.464 9.36994C171.85 9.31984 183.22 9.29094 194.574 9.28324H194.581ZM194.533 200.734H171.466H130.981H83.2032C75.4268 200.734 67.6503 200.734 59.8738 200.734C59.0174 200.734 58.6928 200.913 58.7342 201.665C58.8171 202.991 58.8171 204.321 58.7342 205.647C58.679 206.526 59.0657 206.676 60.0257 206.676C75.2196 206.653 90.4341 206.653 105.669 206.676C119.841 206.676 134.011 206.688 148.178 206.711C157.287 206.711 166.397 206.659 175.506 206.711C179.373 206.711 183.234 206.572 187.109 206.815C188.725 206.919 190.451 206.751 192.102 206.746C197.979 206.746 203.842 206.688 209.74 206.786C212.966 206.838 216.232 206.879 219.478 206.746C223.104 206.601 226.751 206.85 230.37 206.821C232.6 206.821 234.852 206.717 237.089 206.717C249.638 206.717 262.187 206.717 274.736 206.717H301.946C310.98 206.717 320.006 206.717 329.033 206.717C329.951 206.717 330.297 206.543 330.248 205.734C330.155 204.442 330.155 203.147 330.248 201.855C330.311 201.017 330.034 200.763 329.019 200.769C323.542 200.809 318.066 200.769 312.589 200.769H240.494L194.533 200.734ZM385.361 104.977V99.104V65.9711C385.361 61.1445 385.361 56.3237 385.361 51.5202C385.361 50.815 385.154 50.4971 384.249 50.526C382.66 50.5838 381.072 50.5896 379.483 50.5838C378.738 50.5838 378.475 50.7919 378.475 51.4451C378.475 58.3295 378.475 65.2139 378.475 72.104C378.475 79.2659 378.517 86.4277 378.517 93.5896C378.517 103.408 378.517 113.235 378.517 123.069C378.517 130.834 378.517 138.597 378.517 146.358C378.517 150.378 378.53 154.397 378.558 158.416C378.558 158.913 378.489 159.428 379.401 159.416C381.072 159.416 382.743 159.416 384.415 159.416C384.932 159.416 385.437 159.295 385.416 158.618C385.361 156.884 385.416 155.191 385.416 153.48C385.416 146.035 385.416 138.59 385.416 131.145C385.37 122.405 385.351 113.682 385.361 104.977ZM4.03635 105.017V126.514C4.03635 134.272 4.03635 142.029 4.03635 149.786C4.03635 152.618 4.03635 155.451 4.03635 158.283C4.03635 159.058 4.24354 159.41 5.30021 159.353C6.80224 159.28 8.30799 159.28 9.81002 159.353C10.8045 159.387 11.067 159.087 11.067 158.266C11.0255 149.723 11.067 141.185 11.067 132.647C11.067 119.988 11.067 107.328 11.067 94.6647V84.8035C11.067 79.3545 11.067 73.8998 11.067 68.4393C11.067 62.8092 11.067 57.1792 11.1153 51.5491C11.1153 50.7688 10.8183 50.4855 9.90671 50.5144C8.86386 50.5549 7.83482 50.5144 6.78506 50.5144C4.14685 50.5665 4.14685 50.5723 4.11232 52.7861V52.9942C4.11232 59.5665 4.06398 66.1387 4.06398 72.7052C4.03635 83.4836 4.02714 94.2543 4.03635 105.017ZM370.864 9.44509C370.864 11.1792 370.864 12.9133 370.864 14.6821C370.864 15.3237 371.051 15.6127 371.907 15.6069C375.996 15.6069 380.084 15.6069 384.173 15.6069C385.022 15.6069 385.368 15.4104 385.361 14.659C385.319 11.3121 385.285 7.95954 385.361 4.61272C385.361 3.5896 385.002 3.27746 383.814 3.28902C379.856 3.32948 375.892 3.3237 371.935 3.28902C371.092 3.28902 370.844 3.53757 370.857 4.20231C370.885 5.95954 370.864 7.69942 370.864 9.44509ZM370.864 200.416C370.864 202.197 370.864 203.977 370.864 205.757C370.864 206.191 370.768 206.682 371.645 206.676C375.899 206.676 380.153 206.676 384.415 206.676C384.815 206.676 385.264 206.607 385.181 206.191C385.174 205.707 385.221 205.223 385.319 204.746C385.319 201.613 385.319 198.486 385.319 195.358C385.319 194.78 385.181 194.249 384.228 194.254C380.181 194.283 376.141 194.306 372.094 194.289C371.203 194.289 370.837 194.468 370.871 195.283C370.933 197.006 370.885 198.705 370.885 200.416H370.864ZM4.07779 206.723C4.54742 206.723 4.87892 206.682 5.21042 206.682H17.1169C17.621 206.682 18.215 206.832 18.2081 206.064C18.2081 202.364 18.2081 198.659 18.2081 194.954C18.2081 194.486 18.0216 194.266 17.4069 194.266C13.2263 194.266 9.05033 194.266 4.87892 194.266C4.29879 194.266 4.05017 194.462 4.05017 194.948C4.07779 198.861 4.07779 202.786 4.07779 206.723ZM18.2426 9.3815C18.2426 7.6474 18.2426 5.88439 18.2426 4.13295C18.2426 3.60694 18.1735 3.28902 17.3862 3.2948C13.2931 3.31792 9.19996 3.31792 5.10683 3.2948C4.36095 3.2948 4.05017 3.47399 4.05017 4.12717C4.05017 7.65318 4.10542 11.1792 4.05017 14.7052C4.05017 15.4277 4.29879 15.6647 5.18971 15.659C9.19536 15.6069 13.201 15.5838 17.2136 15.659C18.1528 15.659 18.2495 15.341 18.2495 14.7572C18.2426 12.9422 18.2426 11.1618 18.2426 9.3815ZM6.57097 33.0809C6.57097 36.8555 6.57097 40.6301 6.57097 44.4046C6.57097 47.2139 6.57097 47.185 10.0241 47.1676C10.8874 47.1676 11.0808 46.9133 11.0601 46.2601C11.0186 44.5838 11.0601 42.9075 11.0601 41.2254C11.0601 35.7052 11.0601 30.1792 11.0601 24.659C11.0601 23.0173 10.7147 23.1965 12.8833 23.1792C13.8019 23.1792 14.7204 23.1792 15.6458 23.1792C18.1805 23.1792 18.1805 23.1792 18.1874 21.0289C18.1563 20.6112 18.1563 20.1923 18.1874 19.7746C18.291 19.0462 17.8697 18.896 17.1031 18.9017C14.0574 18.9017 11.0117 18.9422 7.96604 18.9017C6.84031 18.9017 6.53643 19.2081 6.54334 20.1098C6.6055 24.4393 6.58478 28.7977 6.58478 33.0983L6.57097 33.0809ZM350.553 5.6763C345.67 5.6763 340.787 5.6763 335.905 5.6763C334.337 5.6763 334.337 5.6763 334.358 7.01156C334.416 7.53256 334.416 8.05703 334.358 8.57803C334.185 9.35838 334.62 9.45087 335.373 9.44509C338.508 9.44509 341.637 9.44509 344.772 9.44509C350.111 9.44509 355.456 9.44509 360.795 9.41618C361.845 9.41618 362.176 9.69364 362.107 10.5723C362.042 11.3031 362.028 12.0366 362.066 12.7688C362.121 15.7688 362.128 15.7399 365.74 15.6936C366.603 15.6936 366.79 15.4277 366.776 14.7746C366.734 12.0462 366.734 9.32177 366.776 6.60116C366.776 5.93642 366.589 5.69942 365.719 5.7052C360.65 5.6763 355.601 5.6763 350.553 5.6763ZM40.8193 9.00578C44.4451 9.00578 48.0709 9.00578 51.6898 9.00578C54.7631 9.00578 54.7286 9.00578 54.701 6.46243C54.701 5.77457 54.4109 5.66474 53.6788 5.67052C49.8044 5.67052 45.93 5.67052 42.0624 5.67052C35.8007 5.67052 29.539 5.66089 23.2773 5.64162C22.5867 5.64162 22.2137 5.75144 22.2206 6.44509C22.2621 9.27746 22.2206 12.104 22.2206 14.9364C22.2206 15.4624 22.4693 15.6821 23.1185 15.6647C24.1167 15.6157 25.1175 15.6157 26.1158 15.6647C26.8064 15.711 26.9791 15.4451 26.9722 14.9422C26.9722 13.3353 26.9722 11.7283 26.9722 10.1214C26.9722 9.3526 27.1517 8.96532 28.2015 8.99422C32.3936 9.0289 36.6065 9.00578 40.8193 9.00578ZM382.467 176.867C382.467 173.064 382.467 169.26 382.467 165.457C382.467 162.694 382.508 162.723 379.214 162.832C378.378 162.861 378.164 163.069 378.171 163.751C378.213 166.855 378.171 169.96 378.171 173.069C378.171 177.289 378.171 181.509 378.171 185.734C378.171 186.474 377.943 186.803 376.956 186.728C375.806 186.66 374.652 186.66 373.503 186.728C370.74 186.85 370.871 186.214 370.947 188.919C370.947 189.306 370.947 189.688 370.947 190.075C370.906 190.653 371.23 190.821 371.845 190.815C375.056 190.815 378.268 190.769 381.472 190.769C382.163 190.769 382.564 190.653 382.557 189.965C382.453 185.584 382.467 181.225 382.467 176.867ZM38.5333 204.243C42.9119 204.243 47.2905 204.272 51.6553 204.243C52.6222 204.243 53.9758 204.699 54.4869 204.035C54.9979 203.37 54.5974 202.353 54.6802 201.486C54.7493 200.757 54.3625 200.607 53.5821 200.613C51.4136 200.613 49.245 200.613 47.0695 200.613C40.7295 200.613 34.3895 200.626 28.0496 200.653C27.2001 200.653 26.8755 200.439 26.91 199.694C26.9791 198.225 26.91 196.757 26.9515 195.289C26.9515 194.601 26.8202 194.237 25.8672 194.324C25.1637 194.405 24.4504 194.405 23.7469 194.324C22.5452 194.162 22.1999 194.595 22.2137 195.526C22.2552 198.145 22.269 200.763 22.2137 203.381C22.2137 204.116 22.4624 204.329 23.3464 204.324C28.4432 204.225 33.4917 204.243 38.5402 204.243H38.5333ZM382.467 33.2081C382.467 28.7688 382.467 24.3353 382.467 19.9133C382.467 19.1908 382.239 18.9017 381.362 18.9133C378.192 18.948 375.022 18.9711 371.859 18.9653C371.168 18.9653 370.871 19.1734 370.899 19.7572C370.954 20.6294 370.954 21.5035 370.899 22.3757C370.837 23.0578 371.141 23.2197 371.88 23.2081C373.758 23.2081 375.637 23.2428 377.515 23.2081C378.351 23.2081 378.558 23.3931 378.558 24.0925C378.523 31.0289 378.558 37.9191 378.558 44.8381C378.558 47.2832 378.558 47.2659 381.445 47.2254C382.239 47.2254 382.522 47.0462 382.515 46.3295C382.419 41.9364 382.439 37.5723 382.439 33.2081H382.467ZM10.5352 174.792H10.4937C10.4937 171.543 10.4937 168.295 10.4937 165.046C10.4937 162.798 10.4937 162.844 7.73122 162.844C6.75053 162.844 6.55025 163.139 6.55025 163.879C6.55025 169.884 6.55025 175.896 6.55025 181.908C6.55025 184.561 6.61931 187.22 6.47428 189.873C6.43284 190.566 6.55025 190.751 7.27541 190.751C10.6526 190.751 14.0367 190.751 17.4208 190.751C17.9249 190.751 18.1943 190.63 18.1874 190.173C18.1874 189.266 18.1874 188.358 18.1874 187.451C18.1874 186.913 17.9387 186.717 17.2895 186.723C15.4594 186.723 13.6223 186.694 11.7645 186.723C10.8252 186.723 10.4454 186.561 10.4592 185.676C10.5766 182.052 10.5352 178.422 10.5352 174.792ZM350.408 204.272C355.539 204.272 360.671 204.272 365.802 204.272C366.555 204.272 366.803 204.04 366.79 203.405C366.748 200.855 366.79 198.306 366.79 195.763C366.79 193.948 366.79 194.283 364.939 194.277C364.393 194.277 363.848 194.329 363.309 194.277C362.252 194.179 362.045 194.613 362.08 195.393C362.142 196.855 362.08 198.329 362.149 199.792C362.197 200.682 361.824 200.902 360.767 200.902C352.791 200.855 344.814 200.867 336.837 200.85C334.337 200.85 334.337 200.85 334.351 202.919C334.351 204.237 334.351 204.243 336.015 204.243L350.408 204.272ZM346.955 199.069C350.884 199.069 354.807 199.069 358.73 199.069C359.614 199.069 359.807 198.78 359.78 198.139C359.714 197.232 359.714 196.323 359.78 195.416C359.876 194.486 359.49 194.208 358.398 194.214C350.719 194.256 343.039 194.256 335.359 194.214C334.592 194.214 334.427 194.434 334.441 194.994C334.441 195.971 334.503 196.954 334.441 197.925C334.365 198.78 334.682 199.052 335.739 199.035C339.385 199.046 343.163 199.075 346.92 199.075L346.955 199.069ZM376.244 36.1214C376.244 32.8035 376.244 29.4855 376.244 26.1734C376.244 25.474 376.086 25.1445 375.146 25.2023C374.149 25.2688 373.146 25.2688 372.149 25.2023C371.203 25.1387 370.913 25.4393 370.913 26.2139C370.913 32.2543 370.913 38.289 370.913 44.3237C370.913 45.2254 370.457 46.3642 371.099 46.9595C371.741 47.5549 373.171 47.104 374.221 47.1676C374.511 47.1676 374.801 47.1676 375.091 47.1676C375.92 47.2486 376.265 47.0405 376.251 46.2601C376.182 42.896 376.21 39.5087 376.21 36.1272L376.244 36.1214ZM18.2426 173.838C18.2426 170.486 18.2081 167.133 18.2426 163.78C18.2426 163.023 17.9525 162.798 17.1169 162.832C16.075 162.884 15.0303 162.884 13.9883 162.832C13.056 162.775 12.8902 163.098 12.904 163.798C12.9386 166.306 12.904 168.827 12.904 171.341C12.904 175.462 12.904 179.584 12.904 183.699C12.904 184.462 13.1389 184.786 14.0988 184.723C15.0182 184.662 15.942 184.662 16.8613 184.723C17.9249 184.792 18.2979 184.503 18.2771 183.566C18.1735 180.329 18.2426 177.081 18.2426 173.838ZM347.058 15.6358C350.898 15.6358 354.745 15.6069 358.585 15.6358C359.503 15.6358 359.745 15.3468 359.731 14.6763C359.731 13.8728 359.676 13.0694 359.731 12.2659C359.787 11.4624 359.497 11.341 358.585 11.3526C354.49 11.4046 350.401 11.3526 346.306 11.3526C342.797 11.3526 339.296 11.3526 335.787 11.3179C334.869 11.3179 334.137 11.3815 334.337 12.474C334.441 13.2036 334.441 13.9409 334.337 14.6705C334.247 15.4624 334.599 15.6821 335.532 15.6705C339.385 15.6127 343.218 15.6358 347.058 15.6358ZM42.0555 11.0116C38.1742 11.0116 34.2928 11.0116 30.4184 11.0116C29.6242 11.0116 29.2651 11.1503 29.2996 11.8613C29.341 12.8382 29.341 13.8208 29.2996 14.7919C29.2512 15.4913 29.562 15.6994 30.3701 15.6994C38.1327 15.6994 45.8954 15.6994 53.6581 15.6994C54.3487 15.6994 54.7562 15.5549 54.7355 14.8844C54.7355 13.8324 54.7355 12.7803 54.7355 11.7341C54.7355 11.0231 54.1968 11.0173 53.5683 11.0173C49.7284 11 45.8678 10.9884 42.0555 10.9884V11.0116ZM18.2426 36.1214C18.2426 32.6994 18.2426 29.2717 18.2426 25.8497C18.2426 25.2717 18.0285 25.1156 17.3724 25.1503C16.4536 25.215 15.5304 25.2247 14.6099 25.1792C13.6706 25.1272 13.4082 25.3931 13.422 26.1908C13.4704 30.3468 13.422 34.5029 13.422 38.659C13.422 41.3873 13.4911 44.1156 13.2424 46.8439C13.201 47.2543 13.5187 47.422 13.8226 47.3237C14.9276 46.9942 16.0533 47.2023 17.1583 47.1907C18.1252 47.1907 18.2426 46.8092 18.2426 46.1792C18.2426 42.8266 18.2426 39.474 18.2426 36.1214ZM42.2213 194.301C39.1273 194.301 36.0401 194.301 32.953 194.301C29.2374 194.266 29.2789 194.249 29.2927 197.376C29.2927 198.324 29.6104 198.624 30.7706 198.618C37.449 198.566 44.1274 198.566 50.7989 198.584C54.8529 198.584 54.8391 198.618 54.694 195.202C54.694 194.572 54.4938 194.289 53.6167 194.301C49.8182 194.324 46.0197 194.301 42.2213 194.301ZM370.864 173.751C370.864 176.549 370.823 179.341 370.864 182.139C370.906 184.936 369.967 184.699 374.062 184.74C375.298 184.74 375.602 184.37 375.602 183.405C375.568 177.231 375.643 171.052 375.602 164.879C375.602 162.566 376.148 162.844 373.13 162.838C372.796 162.858 372.462 162.858 372.128 162.838C371.106 162.711 370.851 163.081 370.864 163.896C370.899 167.185 370.871 170.468 370.864 173.751ZM366.769 21.1503C366.769 18.6705 367.197 18.8382 364.593 18.9017C362.142 18.9595 362.142 18.9769 362.086 21.0809C362.038 23.0289 362.038 23.0289 364.283 23.1214C366.721 23.2428 366.721 23.2428 366.769 21.1734V21.1503ZM366.769 188.78C366.74 188.395 366.74 188.009 366.769 187.624C366.873 186.913 366.589 186.561 365.685 186.647C365.36 186.676 364.994 186.647 364.69 186.647C362.128 186.694 362.162 186.694 362.093 188.873C362.038 190.844 361.783 190.659 364.303 190.682C366.824 190.705 366.721 190.751 366.748 188.821L366.769 188.78ZM22.2897 188.815C22.2483 190.699 22.2483 190.699 24.1889 190.711C26.9515 190.711 26.9515 190.711 26.9515 188.468C26.9515 186.225 27.1448 186.734 24.8796 186.676C22.3242 186.676 22.3242 186.717 22.269 188.855L22.2897 188.815ZM26.9791 21.1329C26.9445 20.7173 26.9445 20.3001 26.9791 19.8844C27.1103 19.1387 26.7304 18.8671 25.8879 18.9249C25.5978 18.9249 25.3078 18.9249 25.0177 18.9249C22.2552 18.9942 22.2552 18.9942 22.2552 21.3237C22.2552 23.1214 22.2552 23.1214 24.3961 23.1618C26.9722 23.2081 26.9722 23.2081 26.9791 21.1329Z" fill="#E7C387"/>
</svg>
