<svg id="Слой_1" data-name="Слой 1" xmlns="http://www.w3.org/2000/svg" viewBox="0 0 23.74 340.4"><defs><style>.cls-1{fill:#fed076;}</style></defs><path class="cls-1" d="M2.8,59.9V172.6q0,83.85-.2,167.6v.1H0C0,284.1.1,228.1.1,172V-.1H2.8Z" transform="translate(0 0.1)"/><path class="cls-1" d="M11.1,67.4v98.8h0V319.5c0,6.9,0,13.8-.1,20.7H8.2c.1-14.6.1-29.2.1-43.8V0h2.8Z" transform="translate(0 0.1)"/><path class="cls-1" d="M17.9,77.8V340.2H15c0-17,.1-34,.1-51V0h2.8C17.8,25.9,17.9,51.8,17.9,77.8Z" transform="translate(0 0.1)"/><path class="cls-1" d="M23.7,339.7v.5H21c.1-12.4.1-24.8.1-37.3V0h2.6V288.6C23.8,305.6,23.7,322.6,23.7,339.7Z" transform="translate(0 0.1)"/></svg>