<svg width="188" height="58" viewBox="0 0 188 58" fill="none" xmlns="http://www.w3.org/2000/svg">
<g filter="url(#filter0_d_1354_3200)">
<rect x="5.5" y="1.5" width="177" height="47" rx="23.5" stroke="url(#paint0_linear_1354_3200)" stroke-width="3" shape-rendering="crispEdges"/>
</g>
<path d="M47.1927 40.756C46.6327 40.756 46.0447 40.602 45.4287 40.294C44.8127 39.986 44.2247 39.3 43.6647 38.236C43.1327 37.144 42.6847 35.576 42.3207 33.532C41.9847 31.488 41.8167 28.59 41.8167 24.838C41.8167 22.01 42.0127 19.574 42.4047 17.53C42.7967 15.486 43.2727 13.932 43.8327 12.868C44.3927 11.776 44.9667 11.076 45.5547 10.768C46.1707 10.432 46.6887 10.264 47.1087 10.264C47.5287 10.264 48.0327 10.432 48.6207 10.768C49.2367 11.076 49.8247 11.776 50.3847 12.868C50.9447 13.932 51.4207 15.486 51.8127 17.53C52.2327 19.574 52.4427 22.01 52.4427 24.838C52.4427 28.59 52.2607 31.488 51.8967 33.532C51.5327 35.576 51.0847 37.144 50.5527 38.236C50.0207 39.3 49.4467 39.986 48.8307 40.294C48.2427 40.602 47.7107 40.756 47.2347 40.756H47.1927ZM47.1507 13.498C47.0107 13.498 46.8147 13.652 46.5627 13.96C46.3387 14.24 46.1147 14.828 45.8907 15.724C45.6667 16.592 45.4707 17.838 45.3027 19.462C45.1347 21.058 45.0507 22.85 45.0507 24.838C45.0507 27.554 45.1207 29.71 45.2607 31.306C45.4007 32.874 45.5827 34.12 45.8067 35.044C46.0307 35.94 46.2547 36.57 46.4787 36.934C46.7307 37.27 46.9687 37.438 47.1927 37.438C47.3607 37.438 47.5567 37.27 47.7807 36.934C48.0327 36.57 48.2567 35.926 48.4527 35.002C48.6767 34.078 48.8587 32.832 48.9987 31.264C49.1387 29.668 49.2087 27.526 49.2087 24.838C49.2087 22.85 49.1247 21.058 48.9567 19.462C48.8167 17.838 48.6347 16.592 48.4107 15.724C48.2147 14.828 48.0047 14.24 47.7807 13.96C47.5567 13.652 47.3607 13.498 47.1927 13.498H47.1507ZM66.9849 10.726V40H63.7509V13.75H59.5929V40H56.3589V10.768L66.9849 10.726ZM76.1527 25.174L73.3807 40H70.0627L76.1527 9.55L82.2427 40H78.9667L76.1527 25.174ZM92.871 40L91.779 33.868H88.335L87.285 40H83.967L90.057 9.802L96.147 40H92.871ZM90.057 25.426L88.881 30.844H91.233L90.057 25.426ZM101.149 40V13.96H97.6212V10.726H107.953V13.96H104.425V40H101.149ZM118.167 40V20.512L114.345 27.022V40H111.069V10.768H114.345V21.142L121.401 8.962V40H118.167ZM127.85 40V13.96H124.322V10.726H134.654V13.96H131.126V40H127.85ZM140.962 36.766H143.65C143.958 36.766 144.28 36.71 144.616 36.598C144.952 36.486 145.12 36.136 145.12 35.548C145.12 35.072 145.05 34.68 144.91 34.372C144.798 34.036 144.378 33.868 143.65 33.868H140.962V36.766ZM137.728 10.726L140.962 10.768V30.844H144.7C145.12 30.816 145.54 30.858 145.96 30.97C146.408 31.082 146.8 31.292 147.136 31.6C147.5 31.88 147.794 32.272 148.018 32.776C148.242 33.252 148.354 33.854 148.354 34.582V35.926C148.354 36.43 148.256 36.934 148.06 37.438C147.892 37.914 147.598 38.348 147.178 38.74C146.786 39.104 146.268 39.412 145.624 39.664C145.008 39.888 144.252 40 143.356 40H137.728V10.726Z" fill="url(#paint1_linear_1354_3200)"/>
<defs>
<filter id="filter0_d_1354_3200" x="0" y="0" width="188" height="58" filterUnits="userSpaceOnUse" color-interpolation-filters="sRGB">
<feFlood flood-opacity="0" result="BackgroundImageFix"/>
<feColorMatrix in="SourceAlpha" type="matrix" values="0 0 0 0 0 0 0 0 0 0 0 0 0 0 0 0 0 0 127 0" result="hardAlpha"/>
<feOffset dy="4"/>
<feGaussianBlur stdDeviation="2"/>
<feComposite in2="hardAlpha" operator="out"/>
<feColorMatrix type="matrix" values="0 0 0 0 0 0 0 0 0 0 0 0 0 0 0 0 0 0 0.25 0"/>
<feBlend mode="normal" in2="BackgroundImageFix" result="effect1_dropShadow_1354_3200"/>
<feBlend mode="normal" in="SourceGraphic" in2="effect1_dropShadow_1354_3200" result="shape"/>
</filter>
<linearGradient id="paint0_linear_1354_3200" x1="94" y1="0" x2="94" y2="50" gradientUnits="userSpaceOnUse">
<stop stop-color="#F7F6EB"/>
<stop offset="0.510417" stop-color="#BD9540"/>
</linearGradient>
<linearGradient id="paint1_linear_1354_3200" x1="95" y1="0" x2="95" y2="50" gradientUnits="userSpaceOnUse">
<stop offset="0.203119" stop-color="#F7F6EB"/>
<stop offset="0.778961" stop-color="#BD9540"/>
</linearGradient>
</defs>
</svg>
