<svg id="Слой_1" data-name="Слой 1" xmlns="http://www.w3.org/2000/svg" xmlns:xlink="http://www.w3.org/1999/xlink" viewBox="0 0 936 1409.38"><defs><style>.cls-1{fill:url(#Ѕезым_нный_градиент_40);}.cls-2{fill:url(#Ѕезым_нный_градиент_40-2);}.cls-3{fill:url(#Ѕезым_нный_градиент_40-3);}.cls-4{fill:url(#Ѕезым_нный_градиент_40-4);}.cls-5{fill:url(#Ѕезым_нный_градиент_40-5);}.cls-6{fill:url(#Ѕезым_нный_градиент_40-6);}.cls-7{fill:url(#Безымянный_градиент_3);}.cls-8{fill:url(#Ѕезым_нный_градиент_40-7);}.cls-9{fill:url(#Ѕезым_нный_градиент_40-8);}.cls-10{fill:url(#Ѕезым_нный_градиент_40-9);}</style><linearGradient id="Ѕезым_нный_градиент_40" x1="46.66" y1="322.21" x2="46.66" y2="51.73" gradientUnits="userSpaceOnUse"><stop offset="0" stop-color="#bc7339"/><stop offset="0.18" stop-color="#fceeaf"/><stop offset="0.52" stop-color="#e19f5c"/><stop offset="0.75" stop-color="#fde9a4"/><stop offset="0.83" stop-color="#f1d693"/><stop offset="0.92" stop-color="#e1bd7c"/><stop offset="1" stop-color="#d18b4b"/></linearGradient><linearGradient id="Ѕезым_нный_градиент_40-2" x1="115.89" y1="150.6" x2="115.89" y2="9.66" xlink:href="#Ѕезым_нный_градиент_40"/><linearGradient id="Ѕезым_нный_градиент_40-3" x1="46.66" y1="1490.38" x2="46.66" y2="1219.9" xlink:href="#Ѕезым_нный_градиент_40"/><linearGradient id="Ѕезым_нный_градиент_40-4" x1="115.89" y1="1466.89" x2="115.89" y2="1325.95" xlink:href="#Ѕезым_нный_градиент_40"/><linearGradient id="Ѕезым_нный_градиент_40-5" x1="889.42" y1="1485.53" x2="889.42" y2="1215.05" xlink:href="#Ѕезым_нный_градиент_40"/><linearGradient id="Ѕезым_нный_градиент_40-6" x1="820.19" y1="1466.51" x2="820.19" y2="1325.57" xlink:href="#Ѕезым_нный_градиент_40"/><linearGradient id="Безымянный_градиент_3" x1="453.51" y1="1475.77" x2="470.58" y2="539.92" xlink:href="#Ѕезым_нный_градиент_40"/><linearGradient id="Ѕезым_нный_градиент_40-7" x1="889.6" y1="318.08" x2="889.6" y2="47.61" xlink:href="#Ѕезым_нный_градиент_40"/><linearGradient id="Ѕезым_нный_градиент_40-8" x1="820.38" y1="150.6" x2="820.38" y2="9.66" xlink:href="#Ѕезым_нный_градиент_40"/><linearGradient id="Ѕезым_нный_градиент_40-9" x1="467.08" y1="2205.87" x2="467.08" y2="169.03" xlink:href="#Ѕезым_нный_градиент_40"/></defs><polygon class="cls-1" points="0.28 33.83 0.28 211.84 93.04 119.09 16.07 42.12 16.07 173.54 70.88 118.73 29.93 77.79 29.93 129.28 37.38 129.28 37.38 95.76 60.35 118.73 23.51 155.57 23.51 60.09 82.51 119.09 7.72 193.87 7.72 33.83 0.28 33.83"/><polygon class="cls-2" points="112.14 82.57 53.14 23.57 148.62 23.57 111.78 60.41 88.81 37.44 122.33 37.44 122.33 29.99 70.84 29.99 111.78 70.94 166.59 16.12 35.17 16.12 112.14 93.09 204.89 0.34 26.88 0.34 26.88 7.78 186.92 7.78 112.14 82.57"/><polygon class="cls-3" points="29.93 1284.56 29.93 1336.06 70.88 1295.11 16.07 1240.3 16.07 1371.72 93.04 1294.76 0.28 1202 0.28 1380.01 7.72 1380.01 7.72 1219.97 82.51 1294.76 23.51 1353.75 23.51 1258.27 60.35 1295.11 37.38 1318.08 37.38 1284.56 29.93 1284.56"/><polygon class="cls-4" points="35.17 1393.6 166.59 1393.6 111.78 1338.78 70.84 1379.72 122.33 1379.72 122.33 1372.28 88.81 1372.28 111.78 1349.31 148.62 1386.15 53.14 1386.15 112.14 1327.15 186.92 1401.93 26.88 1401.93 26.88 1409.38 204.89 1409.38 112.14 1316.62 35.17 1393.6"/><polygon class="cls-5" points="920.02 1366.88 920.02 1235.46 865.2 1290.27 906.15 1331.21 906.15 1279.72 898.7 1279.72 898.7 1313.24 875.73 1290.27 912.57 1253.43 912.57 1348.91 853.57 1289.91 928.36 1215.13 928.36 1375.17 935.8 1375.17 935.8 1197.15 843.04 1289.91 920.02 1366.88"/><polygon class="cls-6" points="823.95 1326.77 882.94 1385.77 787.47 1385.77 824.3 1348.93 847.27 1371.9 813.75 1371.9 813.75 1379.35 865.25 1379.35 824.3 1338.4 769.49 1393.22 900.91 1393.22 823.95 1316.24 731.19 1409 909.2 1409 909.2 1401.56 749.16 1401.56 823.95 1326.77"/><path class="cls-7" d="M827,118.16,935.43,9.73l-5.27-5.27L821.73,112.9,708.84,0H229L115.45,113.53,5.26,3.34,0,8.6,109.59,118.19.22,227.55v954.66l109,109L0,1400.4l5.26,5.26,110.19-110.19L229,1409H708.84L821,1296.81l108.86,108.85,5.26-5.26L826.29,1291.54,936,1181.83V227.17ZM919.63,1175,814.71,1280,801,1266.26l-5.26,5.26,13.7,13.71L702,1392.63H235.77L127,1283.89l12.38-12.37-5.27-5.26-12.37,12.37-1,1L16.59,1175.42V234.34L120.18,130.75l1-1,13,13,5.27-5.26L127,125.11,235.77,16.37H702L810.15,124.48,796,138.61l5.27,5.26,14.13-14.13.63.63L919.63,234Z"/><polygon class="cls-8" points="906.33 125.15 906.33 73.66 865.38 114.61 920.2 169.41 920.2 38 843.23 114.96 935.98 207.72 935.98 29.71 928.54 29.71 928.54 189.75 853.75 114.96 912.75 55.97 912.75 151.44 875.91 114.61 898.88 91.63 898.88 125.15 906.33 125.15"/><polygon class="cls-9" points="901.09 16.12 769.67 16.12 824.48 70.94 865.43 29.99 813.93 29.99 813.93 37.44 847.46 37.44 824.48 60.41 787.65 23.57 883.12 23.57 824.13 82.57 749.34 7.78 909.38 7.78 909.38 0.34 731.37 0.34 824.13 93.09 901.09 16.12"/><path class="cls-10" d="M523.07,34.24H243.17L36.06,241.36v926.28l207.11,207.11H691l207.12-207.11V241.36L691,34.24ZM890.65,1164.56,687.89,1367.31H246.25L43.5,1164.56V244.44L246.25,41.69H687.89L890.65,244.44Z"/></svg>