<svg id="Слой_1" data-name="Слой 1" xmlns="http://www.w3.org/2000/svg" xmlns:xlink="http://www.w3.org/1999/xlink" viewBox="0 0 696.16 1409"><defs><style>.cls-1{fill:url(#Ѕезым_нный_градиент_40);}.cls-2{fill:url(#Ѕезым_нный_градиент_40-2);}.cls-3{fill:url(#Ѕезым_нный_градиент_40-3);}.cls-4{fill:url(#Ѕезым_нный_градиент_40-4);}.cls-5{fill:url(#Ѕезым_нный_градиент_40-5);}.cls-6{fill:url(#Ѕезым_нный_градиент_40-6);}.cls-7{fill:url(#Ѕезым_нный_градиент_40-7);}.cls-8{fill:url(#Ѕезым_нный_градиент_40-8);}.cls-9{fill:url(#Ѕезым_нный_градиент_40-9);}.cls-10{fill:url(#Ѕезым_нный_градиент_40-10);}.cls-11{fill:url(#Ѕезым_нный_градиент_40-11);}.cls-12{fill:url(#Ѕезым_нный_градиент_40-12);}.cls-13{fill:url(#Ѕезым_нный_градиент_40-13);}.cls-14{fill:url(#Ѕезым_нный_градиент_40-14);}.cls-15{fill:url(#Ѕезым_нный_градиент_40-15);}.cls-16{fill:url(#Ѕезым_нный_градиент_40-16);}.cls-17{fill:url(#Ѕезым_нный_градиент_40-17);}</style><linearGradient id="Ѕезым_нный_градиент_40" x1="3529.33" y1="1995.03" x2="3564.07" y2="2280.39" gradientTransform="translate(-2039.3 3657.72) rotate(-90)" gradientUnits="userSpaceOnUse"><stop offset="0" stop-color="#bb7239"/><stop offset="0.18" stop-color="#fceeae"/><stop offset="0.52" stop-color="#e09e5b"/><stop offset="0.75" stop-color="#fce9a4"/><stop offset="0.83" stop-color="#f1d693"/><stop offset="0.92" stop-color="#e1bd7c"/><stop offset="1" stop-color="#d08a4a"/></linearGradient><linearGradient id="Ѕезым_нный_градиент_40-2" x1="3591.97" y1="1987.4" x2="3626.71" y2="2272.77" xlink:href="#Ѕезым_нный_градиент_40"/><linearGradient id="Ѕезым_нный_градиент_40-3" x1="2194.75" y1="2117.55" x2="2420.56" y2="2062.96" xlink:href="#Ѕезым_нный_градиент_40"/><linearGradient id="Ѕезым_нный_градиент_40-4" x1="2206.58" y1="2167.51" x2="2432.39" y2="2112.92" xlink:href="#Ѕезым_нный_градиент_40"/><linearGradient id="Ѕезым_нный_градиент_40-5" x1="2369.5" y1="2819.04" x2="2369.5" y2="2548.56" xlink:href="#Ѕезым_нный_градиент_40"/><linearGradient id="Ѕезым_нный_градиент_40-6" x1="2297.51" y1="2819.04" x2="2297.51" y2="2548.56" xlink:href="#Ѕезым_нный_градиент_40"/><linearGradient id="Ѕезым_нный_градиент_40-7" x1="3498.86" y1="1979.25" x2="2359.36" y2="2833.3" xlink:href="#Ѕезым_нный_градиент_40"/><linearGradient id="Ѕезым_нный_градиент_40-8" x1="115.45" y1="62.55" x2="411.07" y2="62.55" gradientTransform="matrix(1, 0, 0, 1, 0, 0)" xlink:href="#Ѕезым_нный_градиент_40"/><linearGradient id="Ѕезым_нный_градиент_40-9" x1="115.45" y1="1346.45" x2="411.07" y2="1346.45" gradientTransform="matrix(1, 0, 0, 1, 0, 0)" xlink:href="#Ѕезым_нный_градиент_40"/><linearGradient id="Ѕезым_нный_градиент_40-10" x1="3632.48" y1="2409.55" x2="3548.11" y2="2697.4" xlink:href="#Ѕезым_нный_градиент_40"/><linearGradient id="Ѕезым_нный_градиент_40-11" x1="3680.09" y1="2423.5" x2="3595.72" y2="2711.35" xlink:href="#Ѕезым_нный_градиент_40"/><linearGradient id="Ѕезым_нный_градиент_40-12" x1="-7908.38" y1="-8479" x2="1431.42" y2="1532.72" gradientTransform="matrix(1, 0, 0, 1, 0, 0)" xlink:href="#Ѕезым_нный_градиент_40"/><linearGradient id="Ѕезым_нный_градиент_40-13" x1="69.58" y1="1335.83" x2="120.52" y2="1390.43" gradientTransform="matrix(1, 0, 0, 1, 0, 0)" xlink:href="#Ѕезым_нный_градиент_40"/><linearGradient id="Ѕезым_нный_градиент_40-14" x1="1979.62" y1="2298.98" x2="2669.45" y2="3038.43" gradientTransform="translate(-2900.24 1092.48) rotate(-45)" xlink:href="#Ѕезым_нный_градиент_40"/><linearGradient id="Ѕезым_нный_градиент_40-15" x1="2543.43" y1="1970.71" x2="3155.58" y2="2626.9" xlink:href="#Ѕезым_нный_градиент_40"/><linearGradient id="Ѕезым_нный_градиент_40-16" x1="36.06" y1="704.49" x2="411.07" y2="704.49" gradientTransform="matrix(1, 0, 0, 1, 0, 0)" xlink:href="#Ѕезым_нный_градиент_40"/><linearGradient id="Ѕезым_нный_градиент_40-17" x1="2653.74" y1="1668.86" x2="3343.59" y2="2408.34" gradientTransform="translate(-3792.51 723.4) rotate(-45)" xlink:href="#Ѕезым_нный_градиент_40"/></defs><polygon class="cls-1" points="94.1 119.09 1.34 211.84 1.34 33.83 8.79 33.83 8.79 193.87 83.57 119.09 24.57 60.09 24.57 155.57 61.42 118.73 38.44 95.76 38.44 129.28 31 129.28 31 77.79 71.94 118.73 17.13 173.54 17.13 42.12 94.1 119.09"/><polygon class="cls-2" points="205.96 4.46 113.2 97.22 36.23 20.25 167.65 20.25 112.84 75.06 71.9 34.12 123.39 34.12 123.39 41.56 89.87 41.56 112.84 64.53 149.68 27.69 54.2 27.69 113.2 86.69 187.98 11.91 27.95 11.91 27.95 4.46 205.96 4.46"/><polygon class="cls-3" points="93.1 1289.91 16.13 1366.88 16.13 1235.46 70.94 1290.27 30 1331.21 30 1279.72 37.44 1279.72 37.44 1313.24 60.42 1290.27 23.57 1253.43 23.57 1348.91 82.57 1289.91 7.79 1215.13 7.79 1375.17 0.34 1375.17 0.34 1197.15 93.1 1289.91"/><polygon class="cls-4" points="205.96 1404.54 27.95 1404.54 27.95 1397.09 187.98 1397.09 113.2 1322.31 54.2 1381.31 149.68 1381.31 112.84 1344.46 89.87 1367.44 123.39 1367.44 123.39 1374.88 71.9 1374.88 112.84 1333.94 167.65 1388.75 36.23 1388.75 113.2 1311.78 205.96 1404.54"/><polygon class="cls-5" points="695.98 1199.21 695.98 1377.22 688.54 1377.22 688.54 1217.18 613.75 1291.97 672.75 1350.97 672.75 1255.49 635.91 1292.33 658.88 1315.3 658.88 1281.78 666.33 1281.78 666.33 1333.27 625.38 1292.33 680.2 1237.52 680.2 1368.94 603.23 1291.97 695.98 1199.21"/><polygon class="cls-6" points="669.38 1399.15 669.38 1406.59 491.37 1406.59 584.13 1313.84 661.09 1390.81 529.67 1390.81 584.48 1336 625.43 1376.94 573.93 1376.94 573.93 1369.5 607.46 1369.5 584.48 1346.52 547.65 1383.37 643.12 1383.37 584.13 1324.37 509.34 1399.15 669.38 1399.15"/><path class="cls-7" d="M582.36,113.53,468.84,0H286.74V16.37H462l114,114L679.63,234V1175L462,1392.63H286.74V1409h182.1l113.52-113.53L696,1181.83V227.17ZM121.77,130.37l5.26-5.26-11.58-11.58L1.81,227.17v954.66l113.64,113.64L127,1283.89,18.18,1175V234Z"/><polygon class="cls-8" points="411.07 0 411.07 16.37 235.77 16.37 127.03 125.11 115.45 113.53 228.98 0 411.07 0"/><polygon class="cls-9" points="411.07 1392.63 411.07 1409 228.98 1409 115.45 1295.47 127.03 1283.89 235.77 1392.63 411.07 1392.63"/><polygon class="cls-10" points="696.16 31.77 696.16 209.78 603.41 117.02 680.38 40.05 680.38 171.47 625.57 116.66 666.51 75.72 666.51 127.21 659.07 127.21 659.07 93.69 636.09 116.66 672.94 153.5 672.94 58.02 613.93 117.02 688.72 191.81 688.72 31.77 696.16 31.77"/><polygon class="cls-11" points="669.56 2.4 669.56 9.84 509.52 9.84 584.31 84.63 643.3 25.62 547.83 25.62 584.66 62.47 607.64 39.49 574.12 39.49 574.12 32.05 625.61 32.05 584.66 72.99 529.86 18.18 661.27 18.18 584.31 95.15 491.55 2.4 669.56 2.4"/><polygon class="cls-12" points="139.41 137.48 134.14 142.74 0 8.6 5.26 3.34 127.03 125.11 139.41 137.48"/><polygon class="cls-13" points="139.41 1271.52 127.03 1283.89 115.45 1295.47 5.26 1405.66 0 1400.4 110.19 1290.21 121.77 1278.63 134.14 1266.26 139.41 1271.52"/><rect class="cls-14" x="622.72" y="1241.1" width="7.44" height="189.71" transform="translate(-761.22 834.35) rotate(-45)"/><path class="cls-15" d="M454.64,34.24H286.74V41.7H451.56L654.32,244.45v920.12L451.56,1367.32H286.74v7.44h167.9l207.12-207.11V241.36Z"/><polygon class="cls-16" points="43.5 244.44 43.5 1164.56 246.25 1367.31 411.07 1367.31 411.07 1374.75 243.17 1374.75 36.06 1167.64 36.06 241.36 243.17 34.24 411.07 34.24 411.07 41.69 246.25 41.69 43.5 244.44"/><rect class="cls-17" x="531.42" y="70.45" width="189.71" height="7.44" transform="translate(130.98 464.55) rotate(-45)"/></svg>