<svg id="Слой_1" data-name="Слой 1" xmlns="http://www.w3.org/2000/svg" xmlns:xlink="http://www.w3.org/1999/xlink" viewBox="0 0 1296.15 1409"><defs><style>.cls-1{fill:url(#Ѕезым_нный_градиент_40);}.cls-2{fill:url(#Ѕезым_нный_градиент_40-2);}.cls-3{fill:url(#Ѕезым_нный_градиент_40-3);}.cls-4{fill:url(#Ѕезым_нный_градиент_40-4);}.cls-5{fill:url(#Ѕезым_нный_градиент_40-5);}.cls-6{fill:url(#Ѕезым_нный_градиент_40-6);}.cls-7{fill:url(#Ѕезым_нный_градиент_40-7);}.cls-8{fill:url(#Ѕезым_нный_градиент_40-8);}.cls-9{fill:url(#Ѕезым_нный_градиент_40-9);}.cls-10{fill:url(#Ѕезым_нный_градиент_40-10);}.cls-11{fill:url(#Ѕезым_нный_градиент_40-11);}.cls-12{fill:url(#Ѕезым_нный_градиент_40-12);}.cls-13{fill:url(#Ѕезым_нный_градиент_40-13);}.cls-14{fill:url(#Ѕезым_нный_градиент_40-14);}.cls-15{fill:url(#Ѕезым_нный_градиент_40-15);}.cls-16{fill:url(#Ѕезым_нный_градиент_40-16);}.cls-17{fill:url(#Ѕезым_нный_градиент_40-17);}.cls-18{fill:url(#Ѕезым_нный_градиент_40-18);}.cls-19{fill:url(#Ѕезым_нный_градиент_40-19);}.cls-20{fill:url(#Ѕезым_нный_градиент_40-20);}.cls-21{fill:url(#Ѕезым_нный_градиент_40-21);}</style><linearGradient id="Ѕезым_нный_градиент_40" x1="4729.33" y1="795.03" x2="4764.07" y2="1080.39" gradientTransform="translate(-839.3 4857.72) rotate(-90)" gradientUnits="userSpaceOnUse"><stop offset="0" stop-color="#bb7239"/><stop offset="0.18" stop-color="#fceeae"/><stop offset="0.52" stop-color="#e09e5b"/><stop offset="0.75" stop-color="#fce9a4"/><stop offset="0.83" stop-color="#f1d693"/><stop offset="0.92" stop-color="#e1bd7c"/><stop offset="1" stop-color="#d08a4a"/></linearGradient><linearGradient id="Ѕезым_нный_градиент_40-2" x1="4791.97" y1="787.4" x2="4826.71" y2="1072.77" xlink:href="#Ѕезым_нный_градиент_40"/><linearGradient id="Ѕезым_нный_градиент_40-3" x1="3394.75" y1="917.55" x2="3620.56" y2="862.96" xlink:href="#Ѕезым_нный_градиент_40"/><linearGradient id="Ѕезым_нный_градиент_40-4" x1="3406.58" y1="967.51" x2="3632.39" y2="912.92" xlink:href="#Ѕезым_нный_градиент_40"/><linearGradient id="Ѕезым_нный_градиент_40-5" x1="3571.56" y1="2218.86" x2="3571.56" y2="1948.38" xlink:href="#Ѕезым_нный_градиент_40"/><linearGradient id="Ѕезым_нный_градиент_40-6" x1="3499.57" y1="2218.86" x2="3499.57" y2="1948.38" xlink:href="#Ѕезым_нный_градиент_40"/><linearGradient id="Ѕезым_нный_градиент_40-7" x1="4858.74" y1="959.42" x2="3390.83" y2="2059.61" xlink:href="#Ѕезым_нный_градиент_40"/><linearGradient id="Ѕезым_нный_градиент_40-8" x1="115.45" y1="62.55" x2="411.07" y2="62.55" gradientTransform="matrix(1, 0, 0, 1, 0, 0)" xlink:href="#Ѕезым_нный_градиент_40"/><linearGradient id="Ѕезым_нный_градиент_40-9" x1="115.45" y1="1346.45" x2="411.07" y2="1346.45" gradientTransform="matrix(1, 0, 0, 1, 0, 0)" xlink:href="#Ѕезым_нный_градиент_40"/><linearGradient id="Ѕезым_нный_градиент_40-10" x1="4834.54" y1="1809.37" x2="4750.17" y2="2097.22" xlink:href="#Ѕезым_нный_градиент_40"/><linearGradient id="Ѕезым_нный_градиент_40-11" x1="4882.15" y1="1823.32" x2="4797.78" y2="2111.17" xlink:href="#Ѕезым_нный_градиент_40"/><linearGradient id="Ѕезым_нный_градиент_40-12" x1="-7908.38" y1="-8479" x2="1431.42" y2="1532.72" gradientTransform="matrix(1, 0, 0, 1, 0, 0)" xlink:href="#Ѕезым_нный_градиент_40"/><linearGradient id="Ѕезым_нный_градиент_40-13" x1="69.58" y1="1335.83" x2="120.52" y2="1390.43" gradientTransform="matrix(1, 0, 0, 1, 0, 0)" xlink:href="#Ѕезым_нный_градиент_40"/><linearGradient id="Ѕезым_нный_градиент_40-14" x1="3179.62" y1="1698.98" x2="3869.45" y2="2438.43" gradientTransform="translate(-2724.59 2365.24) rotate(-45)" xlink:href="#Ѕезым_нный_градиент_40"/><linearGradient id="Ѕезым_нный_градиент_40-15" x1="3743.44" y1="1369.04" x2="4355.58" y2="2025.23" xlink:href="#Ѕезым_нный_градиент_40"/><linearGradient id="Ѕезым_нный_градиент_40-16" x1="36.06" y1="704.49" x2="411.07" y2="704.49" gradientTransform="matrix(1, 0, 0, 1, 0, 0)" xlink:href="#Ѕезым_нный_градиент_40"/><linearGradient id="Ѕезым_нный_градиент_40-17" x1="3853.74" y1="1068.86" x2="4543.59" y2="1808.34" gradientTransform="translate(-3616.74 1996.21) rotate(-45)" xlink:href="#Ѕезым_нный_градиент_40"/><linearGradient id="Ѕезым_нный_градиент_40-18" x1="421.49" y1="1157.27" x2="758.04" y2="1518.03" gradientTransform="matrix(1, 0, 0, 1, 0, 0)" xlink:href="#Ѕезым_нный_градиент_40"/><linearGradient id="Ѕезым_нный_градиент_40-19" x1="429.66" y1="1136.78" x2="753.36" y2="1483.77" gradientTransform="matrix(1, 0, 0, 1, 0, 0)" xlink:href="#Ѕезым_нный_градиент_40"/><linearGradient id="Ѕезым_нный_градиент_40-20" x1="421.84" y1="-235.58" x2="758.69" y2="125.5" gradientTransform="matrix(1, 0, 0, 1, 0, 0)" xlink:href="#Ѕезым_нный_градиент_40"/><linearGradient id="Ѕезым_нный_градиент_40-21" x1="518.34" y1="-101.1" x2="710.5" y2="104.89" gradientTransform="matrix(1, 0, 0, 1, 0, 0)" xlink:href="#Ѕезым_нный_градиент_40"/></defs><polygon class="cls-1" points="94.1 119.09 1.34 211.84 1.34 33.83 8.79 33.83 8.79 193.87 83.57 119.09 24.57 60.09 24.57 155.57 61.42 118.73 38.44 95.76 38.44 129.28 31 129.28 31 77.79 71.94 118.73 17.13 173.54 17.13 42.12 94.1 119.09"/><polygon class="cls-2" points="205.96 4.46 113.2 97.22 36.23 20.25 167.65 20.25 112.84 75.06 71.9 34.12 123.39 34.12 123.39 41.56 89.87 41.56 112.84 64.53 149.68 27.69 54.2 27.69 113.2 86.69 187.98 11.91 27.95 11.91 27.95 4.46 205.96 4.46"/><polygon class="cls-3" points="93.1 1289.91 16.13 1366.88 16.13 1235.46 70.94 1290.27 30 1331.21 30 1279.72 37.44 1279.72 37.44 1313.24 60.42 1290.27 23.57 1253.43 23.57 1348.91 82.57 1289.91 7.79 1215.13 7.79 1375.17 0.34 1375.17 0.34 1197.15 93.1 1289.91"/><polygon class="cls-4" points="205.96 1404.54 27.95 1404.54 27.95 1397.09 187.98 1397.09 113.2 1322.31 54.2 1381.31 149.68 1381.31 112.84 1344.46 89.87 1367.44 123.39 1367.44 123.39 1374.88 71.9 1374.88 112.84 1333.94 167.65 1388.75 36.23 1388.75 113.2 1311.78 205.96 1404.54"/><polygon class="cls-5" points="1295.8 1197.15 1295.8 1375.17 1288.36 1375.17 1288.36 1215.13 1213.57 1289.91 1272.57 1348.91 1272.57 1253.43 1235.73 1290.27 1258.7 1313.24 1258.7 1279.72 1266.15 1279.72 1266.15 1331.21 1225.2 1290.27 1280.02 1235.46 1280.02 1366.88 1203.04 1289.91 1295.8 1197.15"/><polygon class="cls-6" points="1269.2 1397.09 1269.2 1404.54 1091.19 1404.54 1183.94 1311.78 1260.91 1388.75 1129.49 1388.75 1184.3 1333.94 1225.24 1374.88 1173.75 1374.88 1173.75 1367.44 1207.27 1367.44 1184.3 1344.46 1147.46 1381.31 1242.94 1381.31 1183.94 1322.31 1109.16 1397.09 1269.2 1397.09"/><path class="cls-7" d="M1182.36,113.53,1068.84,0H886.74V16.37H1062l114,114L1279.63,234V1175L1062,1392.63H886.74V1409h182.1l113.52-113.53L1296,1181.83V227.17ZM121.77,130.37l5.26-5.26-11.58-11.58L1.81,227.17v954.66l113.64,113.64L127,1283.89,18.18,1175V234Z"/><polygon class="cls-8" points="411.07 0 411.07 16.37 235.77 16.37 127.03 125.11 115.45 113.53 228.98 0 411.07 0"/><polygon class="cls-9" points="411.07 1392.63 411.07 1409 228.98 1409 115.45 1295.47 127.03 1283.89 235.77 1392.63 411.07 1392.63"/><polygon class="cls-10" points="1295.98 29.71 1295.98 207.72 1203.22 114.96 1280.2 38 1280.2 169.41 1225.38 114.61 1266.33 73.66 1266.33 125.15 1258.88 125.15 1258.88 91.63 1235.91 114.61 1272.75 151.44 1272.75 55.97 1213.75 114.96 1288.54 189.75 1288.54 29.71 1295.98 29.71"/><polygon class="cls-11" points="1269.38 0.34 1269.38 7.78 1109.34 7.78 1184.13 82.57 1243.12 23.57 1147.65 23.57 1184.48 60.41 1207.46 37.44 1173.93 37.44 1173.93 29.99 1225.43 29.99 1184.48 70.94 1129.67 16.12 1261.09 16.12 1184.13 93.09 1091.37 0.34 1269.38 0.34"/><polygon class="cls-12" points="139.41 137.48 134.14 142.74 0 8.6 5.26 3.34 127.03 125.11 139.41 137.48"/><polygon class="cls-13" points="139.41 1271.52 127.03 1283.89 115.45 1295.47 5.26 1405.66 0 1400.4 110.19 1290.21 121.77 1278.63 134.14 1266.26 139.41 1271.52"/><rect class="cls-14" x="1222.72" y="1241.1" width="7.44" height="189.71" transform="translate(-585.45 1258.65) rotate(-45)"/><path class="cls-15" d="M1053,34.24H885.07v7.45h164.82l202.76,202.75v920.12l-202.76,202.75H885.07v7.44H1053l207.12-207.11V241.36Z"/><polygon class="cls-16" points="43.5 244.44 43.5 1164.56 246.25 1367.31 411.07 1367.31 411.07 1374.75 243.17 1374.75 36.06 1167.64 36.06 241.36 243.17 34.24 411.07 34.24 411.07 41.69 246.25 41.69 43.5 244.44"/><rect class="cls-17" x="1131.42" y="70.45" width="189.71" height="7.44" transform="translate(306.7 888.8) rotate(-45)"/><rect class="cls-18" x="235.4" y="1392.63" width="826.58" height="16.37"/><rect class="cls-19" x="246.22" y="1367.31" width="803.93" height="7.44"/><rect class="cls-20" x="235.57" width="827.34" height="16.37"/><rect class="cls-21" x="411.07" y="34.24" width="474" height="7.45"/></svg>