<?xml version="1.0" encoding="utf-8"?>
<!-- Generator: Adobe Illustrator 24.3.0, SVG Export Plug-In . SVG Version: 6.00 Build 0)  -->
<svg version="1.1" id="Слой_1" xmlns="http://www.w3.org/2000/svg" xmlns:xlink="http://www.w3.org/1999/xlink" x="0px" y="0px"
	 viewBox="0 0 1116 1409" style="enable-background:new 0 0 1116 1409;" xml:space="preserve">
<style type="text/css">
	.st0{fill:url(#SVGID_1_);}
	.st1{fill:url(#SVGID_2_);}
	.st2{fill:url(#SVGID_3_);}
	.st3{fill:url(#SVGID_4_);}
	.st4{fill:url(#SVGID_5_);}
	.st5{fill:url(#SVGID_6_);}
	.st6{fill:url(#SVGID_7_);}
	.st7{fill:url(#SVGID_8_);}
	.st8{fill:url(#SVGID_9_);}
	.st9{fill:url(#SVGID_10_);}
</style>
<g>
	<linearGradient id="SVGID_1_" gradientUnits="userSpaceOnUse" x1="-46.4796" y1="64.487" x2="29.5975" y2="146.0372">
		<stop  offset="0" style="stop-color:#BB7239"/>
		<stop  offset="0.1846" style="stop-color:#FCEEAE"/>
		<stop  offset="0.5216" style="stop-color:#E09E5B"/>
		<stop  offset="0.7529" style="stop-color:#FCE9A4"/>
		<stop  offset="0.8275" style="stop-color:#F1D693"/>
		<stop  offset="0.9216" style="stop-color:#E1BD7C"/>
		<stop  offset="1" style="stop-color:#D08A4A"/>
	</linearGradient>
	<polygon class="st0" points="1.3,33.8 1.3,211.8 94.1,119.1 17.1,42.1 17.1,173.5 71.9,118.7 31,77.8 31,129.3 38.4,129.3 
		38.4,95.8 61.4,118.7 24.6,155.6 24.6,60.1 83.6,119.1 8.8,193.9 8.8,33.8 	"/>
	<linearGradient id="SVGID_2_" gradientUnits="userSpaceOnUse" x1="66.938" y1="-45.4247" x2="140.5699" y2="33.5043">
		<stop  offset="0" style="stop-color:#BB7239"/>
		<stop  offset="0.1846" style="stop-color:#FCEEAE"/>
		<stop  offset="0.5216" style="stop-color:#E09E5B"/>
		<stop  offset="0.7529" style="stop-color:#FCE9A4"/>
		<stop  offset="0.8275" style="stop-color:#F1D693"/>
		<stop  offset="0.9216" style="stop-color:#E1BD7C"/>
		<stop  offset="1" style="stop-color:#D08A4A"/>
	</linearGradient>
	<polygon class="st1" points="113.2,86.7 54.2,27.7 149.7,27.7 112.8,64.5 89.9,41.6 123.4,41.6 123.4,34.1 71.9,34.1 112.8,75.1 
		167.7,20.2 36.2,20.2 113.2,97.2 206,4.5 27.9,4.5 27.9,11.9 188,11.9 	"/>
	<linearGradient id="SVGID_3_" gradientUnits="userSpaceOnUse" x1="-48.6224" y1="1229.2625" x2="30.4227" y2="1313.9941">
		<stop  offset="0" style="stop-color:#BB7239"/>
		<stop  offset="0.1846" style="stop-color:#FCEEAE"/>
		<stop  offset="0.5216" style="stop-color:#E09E5B"/>
		<stop  offset="0.7529" style="stop-color:#FCE9A4"/>
		<stop  offset="0.8275" style="stop-color:#F1D693"/>
		<stop  offset="0.9216" style="stop-color:#E1BD7C"/>
		<stop  offset="1" style="stop-color:#D08A4A"/>
	</linearGradient>
	<polygon class="st2" points="31,1279.7 31,1331.2 71.9,1290.3 17.1,1235.5 17.1,1366.9 94.1,1289.9 1.3,1197.2 1.3,1375.2 
		8.8,1375.2 8.8,1215.1 83.6,1289.9 24.6,1348.9 24.6,1253.4 61.4,1290.3 38.4,1313.2 38.4,1279.7 	"/>
	<linearGradient id="SVGID_4_" gradientUnits="userSpaceOnUse" x1="61.9247" y1="1345.5515" x2="138.5477" y2="1427.6869">
		<stop  offset="0" style="stop-color:#BB7239"/>
		<stop  offset="0.1846" style="stop-color:#FCEEAE"/>
		<stop  offset="0.5216" style="stop-color:#E09E5B"/>
		<stop  offset="0.7529" style="stop-color:#FCE9A4"/>
		<stop  offset="0.8275" style="stop-color:#F1D693"/>
		<stop  offset="0.9216" style="stop-color:#E1BD7C"/>
		<stop  offset="1" style="stop-color:#D08A4A"/>
	</linearGradient>
	<polygon class="st3" points="36.2,1388.8 167.7,1388.8 112.8,1333.9 71.9,1374.9 123.4,1374.9 123.4,1367.4 89.9,1367.4 
		112.8,1344.5 149.7,1381.3 54.2,1381.3 113.2,1322.3 188,1397.1 27.9,1397.1 27.9,1404.5 206,1404.5 113.2,1311.8 	"/>
	<linearGradient id="SVGID_5_" gradientUnits="userSpaceOnUse" x1="1060.9049" y1="1234.4045" x2="1136.9821" y2="1315.9547">
		<stop  offset="0" style="stop-color:#BB7239"/>
		<stop  offset="0.1846" style="stop-color:#FCEEAE"/>
		<stop  offset="0.5216" style="stop-color:#E09E5B"/>
		<stop  offset="0.7529" style="stop-color:#FCE9A4"/>
		<stop  offset="0.8275" style="stop-color:#F1D693"/>
		<stop  offset="0.9216" style="stop-color:#E1BD7C"/>
		<stop  offset="1" style="stop-color:#D08A4A"/>
	</linearGradient>
	<polygon class="st4" points="1100,1366.9 1100,1235.5 1045.2,1290.3 1086.1,1331.2 1086.1,1279.7 1078.7,1279.7 1078.7,1313.2 
		1055.7,1290.3 1092.6,1253.4 1092.6,1348.9 1033.6,1289.9 1108.4,1215.1 1108.4,1375.2 1115.8,1375.2 1115.8,1197.2 1023,1289.9 	
		"/>
	<linearGradient id="SVGID_6_" gradientUnits="userSpaceOnUse" x1="950.7895" y1="1347.8556" x2="1024.421" y2="1426.7843">
		<stop  offset="0" style="stop-color:#BB7239"/>
		<stop  offset="0.1846" style="stop-color:#FCEEAE"/>
		<stop  offset="0.5216" style="stop-color:#E09E5B"/>
		<stop  offset="0.7529" style="stop-color:#FCE9A4"/>
		<stop  offset="0.8275" style="stop-color:#F1D693"/>
		<stop  offset="0.9216" style="stop-color:#E1BD7C"/>
		<stop  offset="1" style="stop-color:#D08A4A"/>
	</linearGradient>
	<polygon class="st5" points="1003.9,1322.3 1062.9,1381.3 967.5,1381.3 1004.3,1344.5 1027.3,1367.4 993.8,1367.4 993.8,1374.9 
		1045.2,1374.9 1004.3,1333.9 949.5,1388.8 1080.9,1388.8 1003.9,1311.8 911.2,1404.5 1089.2,1404.5 1089.2,1397.1 929.2,1397.1 	
		"/>
	<linearGradient id="SVGID_7_" gradientUnits="userSpaceOnUse" x1="-144.5454" y1="-47.7168" x2="895.178" y2="1066.8055">
		<stop  offset="0" style="stop-color:#BB7239"/>
		<stop  offset="0.1846" style="stop-color:#FCEEAE"/>
		<stop  offset="0.5216" style="stop-color:#E09E5B"/>
		<stop  offset="0.7529" style="stop-color:#FCE9A4"/>
		<stop  offset="0.8275" style="stop-color:#F1D693"/>
		<stop  offset="0.9216" style="stop-color:#E1BD7C"/>
		<stop  offset="1" style="stop-color:#D08A4A"/>
	</linearGradient>
	<path class="st6" d="M1007,118.2L1115.4,9.7l-5.3-5.3l-108.4,108.4L888.8,0H706.7H411.1H229L115.5,113.5L5.3,3.3L0,8.6l110.2,110.2
		L1.8,227.2v954.7l108.4,108.4L0,1400.4l5.3,5.3l110.2-110.2L229,1409h182.1h295.7h182.1l112.2-112.2l108.9,108.9l5.3-5.3
		l-108.9-108.9l109.7-109.7V227.2L1007,118.2z M1099.6,1175L994.7,1280l-13.7-13.7l-5.3,5.3l13.7,13.7L882,1392.6H706.7H411.1H235.8
		L127,1283.9l12.4-12.4l-5.3-5.3l-12.4,12.4L18.2,1175V234l103.6-103.6l12.4,12.4l5.3-5.3L127,125.1L235.8,16.4h175.3h295.7H882
		l108.1,108.1L976,138.6l5.3,5.3l14.1-14.1l0.6,0.6L1099.6,234V1175z"/>
	<linearGradient id="SVGID_8_" gradientUnits="userSpaceOnUse" x1="1059.2219" y1="61.207" x2="1138.2671" y2="145.9387">
		<stop  offset="0" style="stop-color:#BB7239"/>
		<stop  offset="0.1846" style="stop-color:#FCEEAE"/>
		<stop  offset="0.5216" style="stop-color:#E09E5B"/>
		<stop  offset="0.7529" style="stop-color:#FCE9A4"/>
		<stop  offset="0.8275" style="stop-color:#F1D693"/>
		<stop  offset="0.9216" style="stop-color:#E1BD7C"/>
		<stop  offset="1" style="stop-color:#D08A4A"/>
	</linearGradient>
	<polygon class="st7" points="1086.3,125.2 1086.3,73.7 1045.4,114.6 1100.2,169.4 1100.2,38 1023.2,115 1116,207.7 1116,29.7 
		1108.5,29.7 1108.5,189.7 1033.8,115 1092.8,56 1092.8,151.4 1055.9,114.6 1078.9,91.6 1078.9,125.2 	"/>
	<linearGradient id="SVGID_9_" gradientUnits="userSpaceOnUse" x1="951.9454" y1="-51.5765" x2="1028.5686" y2="30.5591">
		<stop  offset="0" style="stop-color:#BB7239"/>
		<stop  offset="0.1846" style="stop-color:#FCEEAE"/>
		<stop  offset="0.5216" style="stop-color:#E09E5B"/>
		<stop  offset="0.7529" style="stop-color:#FCE9A4"/>
		<stop  offset="0.8275" style="stop-color:#F1D693"/>
		<stop  offset="0.9216" style="stop-color:#E1BD7C"/>
		<stop  offset="1" style="stop-color:#D08A4A"/>
	</linearGradient>
	<polygon class="st8" points="1081.1,16.1 949.7,16.1 1004.5,70.9 1045.4,30 993.9,30 993.9,37.4 1027.5,37.4 1004.5,60.4 
		967.6,23.6 1063.1,23.6 1004.1,82.6 929.3,7.8 1089.4,7.8 1089.4,0.3 911.4,0.3 1004.1,93.1 	"/>
	<linearGradient id="SVGID_10_" gradientUnits="userSpaceOnUse" x1="1.3317" y1="108.7759" x2="824.53" y2="991.1959">
		<stop  offset="0" style="stop-color:#BB7239"/>
		<stop  offset="0.1846" style="stop-color:#FCEEAE"/>
		<stop  offset="0.5216" style="stop-color:#E09E5B"/>
		<stop  offset="0.7529" style="stop-color:#FCE9A4"/>
		<stop  offset="0.8275" style="stop-color:#F1D693"/>
		<stop  offset="0.9216" style="stop-color:#E1BD7C"/>
		<stop  offset="1" style="stop-color:#D08A4A"/>
	</linearGradient>
	<path class="st9" d="M703.1,34.2h-292H243.2L36.1,241.4v926.3l207.1,207.1h167.9h292H871l207.1-207.1V241.4L871,34.2H703.1z
		 M1070.7,1164.6l-202.8,202.8H703.1h-292H246.2L43.5,1164.6V244.4L246.2,41.7h164.8h292h164.8l202.8,202.8V1164.6z"/>
</g>
</svg>
