<svg id="Слой_1" data-name="Слой 1" xmlns="http://www.w3.org/2000/svg" xmlns:xlink="http://www.w3.org/1999/xlink" viewBox="0 0 426.62 399.96"><defs><style>.cls-1{fill:url(#Ѕезым_нный_градиент_40);}.cls-2{fill:url(#Ѕезым_нный_градиент_40-2);}.cls-3{fill:url(#Ѕезым_нный_градиент_40-3);}.cls-4{fill:url(#Ѕезым_нный_градиент_40-4);}.cls-5{fill:url(#Ѕезым_нный_градиент_40-5);}.cls-6{fill:url(#Ѕезым_нный_градиент_40-6);}.cls-7{fill:url(#Ѕезым_нный_градиент_40-7);}.cls-8{fill:url(#Ѕезым_нный_градиент_40-8);}.cls-9{fill:url(#Ѕезым_нный_градиент_40-9);}.cls-10{fill:url(#Ѕезым_нный_градиент_40-10);}.cls-11{fill:url(#Ѕезым_нный_градиент_40-11);}.cls-12{fill:url(#Ѕезым_нный_градиент_40-12);}.cls-13{fill:url(#Ѕезым_нный_градиент_40-13);}.cls-14{fill:url(#Ѕезым_нный_градиент_40-14);}.cls-15{fill:url(#Ѕезым_нный_градиент_40-15);}.cls-16{fill:url(#Ѕезым_нный_градиент_40-16);}.cls-17{fill:url(#Ѕезым_нный_градиент_40-17);}.cls-18{fill:url(#Ѕезым_нный_градиент_40-18);}.cls-19{fill:url(#Ѕезым_нный_градиент_40-19);}.cls-20{fill:url(#Ѕезым_нный_градиент_40-20);}.cls-21{fill:url(#Ѕезым_нный_градиент_40-21);}</style><linearGradient id="Ѕезым_нный_градиент_40" x1="1063.28" y1="548.32" x2="1073.14" y2="629.32" gradientTransform="translate(-560.88 1099.72) rotate(-90)" gradientUnits="userSpaceOnUse"><stop offset="0" stop-color="#bb7239"/><stop offset="0.18" stop-color="#fceeae"/><stop offset="0.52" stop-color="#e09e5b"/><stop offset="0.75" stop-color="#fce9a4"/><stop offset="0.83" stop-color="#f1d693"/><stop offset="0.92" stop-color="#e1bd7c"/><stop offset="1" stop-color="#d08a4a"/></linearGradient><linearGradient id="Ѕезым_нный_градиент_40-2" x1="1081.06" y1="546.15" x2="1090.92" y2="627.16" xlink:href="#Ѕезым_нный_градиент_40"/><linearGradient id="Ѕезым_нный_градиент_40-3" x1="684.44" y1="583.38" x2="748.54" y2="567.89" xlink:href="#Ѕезым_нный_градиент_40"/><linearGradient id="Ѕезым_нный_градиент_40-4" x1="687.8" y1="597.28" x2="751.9" y2="581.78" xlink:href="#Ѕезым_нный_градиент_40"/><linearGradient id="Ѕезым_нный_градиент_40-5" x1="734.63" y1="1011.02" x2="734.63" y2="934.24" xlink:href="#Ѕезым_нный_градиент_40"/><linearGradient id="Ѕезым_нный_градиент_40-6" x1="714.2" y1="1011.02" x2="714.2" y2="934.24" xlink:href="#Ѕезым_нный_градиент_40"/><linearGradient id="Ѕезым_нный_градиент_40-7" x1="1115.6" y1="612.55" x2="666.9" y2="948.84" gradientTransform="translate(-561.3 1099.72) rotate(-90)" xlink:href="#Ѕезым_нный_градиент_40"/><linearGradient id="Ѕезым_нный_градиент_40-8" x1="32.77" y1="17.76" x2="116.69" y2="17.76" gradientTransform="matrix(1, 0, 0, 1, 0, 0)" xlink:href="#Ѕезым_нный_градиент_40"/><linearGradient id="Ѕезым_нный_градиент_40-9" x1="32.77" y1="382.2" x2="116.69" y2="382.2" gradientTransform="matrix(1, 0, 0, 1, 0, 0)" xlink:href="#Ѕезым_нный_градиент_40"/><linearGradient id="Ѕезым_нный_градиент_40-10" x1="1093.14" y1="894.78" x2="1069.19" y2="976.49" xlink:href="#Ѕезым_нный_градиент_40"/><linearGradient id="Ѕезым_нный_градиент_40-11" x1="1106.66" y1="898.74" x2="1082.71" y2="980.45" xlink:href="#Ѕезым_нный_градиент_40"/><linearGradient id="Ѕезым_нный_градиент_40-12" x1="-2244.87" y1="-2406.84" x2="406.32" y2="435.08" gradientTransform="matrix(1, 0, 0, 1, 0, 0)" xlink:href="#Ѕезым_нный_градиент_40"/><linearGradient id="Ѕезым_нный_градиент_40-13" x1="19.75" y1="379.19" x2="34.21" y2="394.69" gradientTransform="matrix(1, 0, 0, 1, 0, 0)" xlink:href="#Ѕезым_нный_градиент_40"/><linearGradient id="Ѕезым_нный_градиент_40-14" x1="623.38" y1="863.53" x2="819.19" y2="1073.44" gradientTransform="translate(-787.34 204.38) rotate(-45)" xlink:href="#Ѕезым_нный_градиент_40"/><linearGradient id="Ѕезым_нный_градиент_40-15" x1="783.42" y1="769.6" x2="957.19" y2="955.86" gradientTransform="translate(-561.3 1099.72) rotate(-90)" xlink:href="#Ѕезым_нный_градиент_40"/><linearGradient id="Ѕезым_нный_градиент_40-16" x1="10.24" y1="199.98" x2="116.69" y2="199.98" gradientTransform="matrix(1, 0, 0, 1, 0, 0)" xlink:href="#Ѕезым_нный_градиент_40"/><linearGradient id="Ѕезым_нный_градиент_40-17" x1="814.73" y1="684.8" x2="1010.55" y2="894.7" gradientTransform="translate(-1040.59 99.55) rotate(-45)" xlink:href="#Ѕезым_нный_градиент_40"/><linearGradient id="Ѕезым_нный_градиент_40-18" x1="133.36" y1="311.65" x2="252.17" y2="439.01" gradientTransform="matrix(1, 0, 0, 1, 0, 0)" xlink:href="#Ѕезым_нный_градиент_40"/><linearGradient id="Ѕезым_нный_градиент_40-19" x1="171.4" y1="319.38" x2="267.86" y2="422.77" gradientTransform="matrix(1, 0, 0, 1, 0, 0)" xlink:href="#Ѕезым_нный_градиент_40"/><linearGradient id="Ѕезым_нный_градиент_40-20" x1="133.08" y1="-83.77" x2="252.05" y2="43.76" gradientTransform="matrix(1, 0, 0, 1, 0, 0)" xlink:href="#Ѕезым_нный_градиент_40"/><linearGradient id="Ѕезым_нный_градиент_40-21" x1="156.14" y1="-47.2" x2="236.26" y2="38.68" gradientTransform="matrix(1, 0, 0, 1, 0, 0)" xlink:href="#Ѕезым_нный_градиент_40"/></defs><polygon class="cls-1" points="26.71 33.8 0.38 60.13 0.38 9.6 2.5 9.6 2.5 55.03 23.72 33.8 6.97 17.06 6.97 44.16 17.43 33.7 10.91 27.18 10.91 36.7 8.8 36.7 8.8 22.08 20.42 33.7 4.86 49.26 4.86 11.96 26.71 33.8"/><polygon class="cls-2" points="58.46 1.27 32.13 27.6 10.29 5.75 47.59 5.75 32.03 21.31 20.41 9.69 35.03 9.69 35.03 11.8 25.51 11.8 32.03 18.32 42.49 7.86 15.39 7.86 32.13 24.61 53.36 3.38 7.93 3.38 7.93 1.27 58.46 1.27"/><polygon class="cls-3" points="26.71 366.15 4.86 388 4.86 350.7 20.42 366.25 8.8 377.88 8.8 363.26 10.91 363.26 10.91 372.78 17.43 366.25 6.97 355.8 6.97 382.9 23.72 366.15 2.5 344.93 2.5 390.35 0.38 390.35 0.38 339.82 26.71 366.15"/><polygon class="cls-4" points="58.46 398.69 7.93 398.69 7.93 396.58 53.36 396.58 32.13 375.35 15.39 392.1 42.49 392.1 32.03 381.64 25.51 388.16 35.03 388.16 35.03 390.27 20.41 390.27 32.03 378.65 47.59 394.21 10.29 394.21 32.13 372.36 58.46 398.69"/><polygon class="cls-5" points="426.36 339.82 426.36 390.35 424.25 390.35 424.25 344.93 403.02 366.15 419.77 382.9 419.77 355.8 409.31 366.25 415.83 372.78 415.83 363.26 417.94 363.26 417.94 377.88 406.32 366.25 421.88 350.7 421.88 388 400.03 366.15 426.36 339.82"/><polygon class="cls-6" points="418.81 396.58 418.81 398.69 368.28 398.69 394.61 372.36 416.46 394.21 379.15 394.21 394.71 378.65 406.33 390.27 391.72 390.27 391.72 388.16 401.23 388.16 394.71 381.64 384.25 392.1 411.36 392.1 394.61 375.35 373.38 396.58 418.81 396.58"/><path class="cls-7" d="M393.71,32.23,361.48,0H309.79V4.65h49.76L391.91,37l29.41,29.4V333.55l-61.77,61.76H309.79V400h51.69l32.23-32.23L426,335.47v-271ZM34.15,37l1.5-1.5-3.29-3.28L.1,64.48v271l32.26,32.26,3.29-3.29L4.75,333.55V66.41Z" transform="translate(0.41)"/><polygon class="cls-8" points="116.69 0 116.69 4.65 66.93 4.65 36.06 35.51 32.77 32.23 65 0 116.69 0"/><polygon class="cls-9" points="116.69 395.31 116.69 399.96 65 399.96 32.77 367.73 36.06 364.44 66.93 395.31 116.69 395.31"/><polygon class="cls-10" points="426.41 8.43 426.41 58.96 400.08 32.63 421.93 10.79 421.93 48.09 406.37 32.53 417.99 20.91 417.99 35.53 415.88 35.53 415.88 26.01 409.36 32.53 419.82 42.99 419.82 15.89 403.07 32.63 424.3 53.86 424.3 8.43 426.41 8.43"/><polygon class="cls-11" points="418.86 0.1 418.86 2.21 373.43 2.21 394.66 23.44 411.41 6.69 384.31 6.69 394.76 17.15 401.28 10.63 391.77 10.63 391.77 8.51 406.38 8.51 394.76 20.14 379.2 4.58 416.51 4.58 394.66 26.43 368.33 0.1 418.86 0.1"/><polygon class="cls-12" points="39.57 39.02 38.08 40.52 0 2.44 1.49 0.95 36.06 35.51 39.57 39.02"/><polygon class="cls-13" points="39.57 360.93 36.06 364.44 32.77 367.73 1.49 399.01 0 397.52 31.28 366.24 34.57 362.95 38.08 359.44 39.57 360.93"/><rect class="cls-14" x="405.29" y="352.3" width="2.11" height="53.85" transform="translate(-148.72 398.44) rotate(-45)"/><path class="cls-15" d="M356.82,9.72H309.16v2.11H356L413.5,69.39V330.57L356,388.12H309.16v2.12h47.66l58.79-58.79V68.51Z" transform="translate(0.41)"/><polygon class="cls-16" points="12.35 69.39 12.35 330.57 69.9 388.12 116.69 388.12 116.69 390.24 69.03 390.24 10.24 331.45 10.24 68.51 69.03 9.72 116.69 9.72 116.69 11.83 69.9 11.83 12.35 69.39"/><rect class="cls-17" x="379.5" y="20" width="53.85" height="2.11" transform="translate(104.56 293.54) rotate(-45)"/><rect class="cls-18" x="67.06" y="395.31" width="293.02" height="4.65"/><rect class="cls-19" x="116.69" y="388.12" width="239.67" height="2.11"/><rect class="cls-20" x="66.69" width="293.41" height="4.65"/><rect class="cls-21" x="110.88" y="9.72" width="198.69" height="2.11"/></svg>