<svg width="188" height="58" viewBox="0 0 188 58" fill="none" xmlns="http://www.w3.org/2000/svg">
<path d="M20.5863 40V9.76C22.2943 10.292 23.8063 11.006 25.1223 11.902C26.4663 12.77 27.5863 13.778 28.4823 14.926C29.3783 16.074 30.0503 17.334 30.4983 18.706C30.9743 20.078 31.2123 21.52 31.2123 23.032C31.2123 24.796 30.9183 26.406 30.3303 27.862C29.7423 29.29 28.9163 30.592 27.8523 31.768C27.0403 32.664 26.2843 33.336 25.5843 33.784C24.8843 34.204 24.2963 34.54 23.8203 34.792V40H20.5863ZM23.8203 31.222C24.6323 30.634 25.3043 30.018 25.8363 29.374C26.3683 28.702 26.7883 28.03 27.0963 27.358C27.4323 26.686 27.6563 26.014 27.7683 25.342C27.9083 24.67 27.9783 24.026 27.9783 23.41C27.9783 22.99 27.9363 22.444 27.8523 21.772C27.7683 21.1 27.5723 20.372 27.2643 19.588C26.9843 18.804 26.5643 18.02 26.0043 17.236C25.4723 16.424 24.7443 15.668 23.8203 14.968V31.222ZM34.4486 10.768H43.6886V14.002H37.6826V27.316H43.6886V30.55H37.6826V36.766H43.6886V40H34.4486V10.768ZM47.1254 10.768H56.3654V14.002H50.3594V40H47.1254V10.768ZM66.8201 40V20.512L62.9981 27.022V40H59.7221V10.768H62.9981V21.142L70.0541 8.962V40H66.8201ZM79.0657 40C77.2177 37.984 75.7897 35.73 74.7817 33.238C73.7737 30.746 73.2697 28.086 73.2697 25.258C73.2697 22.542 73.7877 19.952 74.8237 17.488C75.8597 15.024 77.2737 12.77 79.0657 10.726H83.7277C83.2517 11.146 82.6077 11.748 81.7957 12.532C80.9837 13.316 80.1717 14.31 79.3597 15.514C78.5757 16.718 77.8897 18.132 77.3017 19.756C76.7417 21.352 76.4617 23.186 76.4617 25.258C76.4617 27.47 76.7417 29.374 77.3017 30.97C77.8617 32.566 78.5197 33.966 79.2757 35.17C80.0597 36.346 80.8577 37.326 81.6697 38.11C82.4817 38.894 83.1677 39.524 83.7277 40H79.0657ZM88.4393 40V13.96H84.9113V10.726H95.2433V13.96H91.7153V40H88.4393ZM98.0648 40V9.76C99.7728 10.292 101.285 11.006 102.601 11.902C103.945 12.77 105.065 13.778 105.961 14.926C106.857 16.074 107.529 17.334 107.977 18.706C108.453 20.078 108.691 21.52 108.691 23.032C108.691 24.796 108.397 26.406 107.809 27.862C107.221 29.29 106.395 30.592 105.331 31.768C104.519 32.664 103.763 33.336 103.063 33.784C102.363 34.204 101.775 34.54 101.299 34.792V40H98.0648ZM101.299 31.222C102.111 30.634 102.783 30.018 103.315 29.374C103.847 28.702 104.267 28.03 104.575 27.358C104.911 26.686 105.135 26.014 105.247 25.342C105.387 24.67 105.457 24.026 105.457 23.41C105.457 22.99 105.415 22.444 105.331 21.772C105.247 21.1 105.051 20.372 104.743 19.588C104.463 18.804 104.043 18.02 103.483 17.236C102.951 16.424 102.223 15.668 101.299 14.968V31.222ZM119.823 40L118.731 33.868H115.287L114.237 40H110.919L117.009 9.802L123.099 40H119.823ZM117.009 25.426L115.833 30.844H118.185L117.009 25.426ZM125.917 40V10.768H129.151L129.193 36.766H133.099V10.768H136.333L136.375 36.892H138.937V43.234L135.787 45.166V40H125.917ZM149.179 40V20.512L145.357 27.022V40H142.081V10.768H145.357V21.142L152.413 8.962V40H149.179ZM167.095 40H163.861V19.924H162.811L159.115 40H155.881L159.577 19.924C159.185 19.896 158.807 19.812 158.443 19.672C158.079 19.504 157.743 19.28 157.435 19C157.155 18.692 156.917 18.314 156.721 17.866C156.553 17.39 156.469 16.83 156.469 16.186V14.842C156.469 14.338 156.553 13.848 156.721 13.372C156.917 12.868 157.211 12.434 157.603 12.07C158.023 11.678 158.541 11.37 159.157 11.146C159.801 10.894 160.571 10.768 161.467 10.768H167.095V40ZM163.861 14.002H161.173C160.865 14.002 160.543 14.058 160.207 14.17C159.871 14.282 159.703 14.632 159.703 15.22C159.703 15.696 159.759 16.102 159.871 16.438C160.011 16.746 160.445 16.9 161.173 16.9H163.861V14.002Z" fill="url(#paint0_linear_667_3299)"/>
<g filter="url(#filter0_d_667_3299)">
<rect x="5.5" y="1.5" width="177" height="47" rx="23.5" stroke="url(#paint1_linear_667_3299)" stroke-width="3" shape-rendering="crispEdges"/>
</g>
<defs>
<filter id="filter0_d_667_3299" x="0" y="0" width="188" height="58" filterUnits="userSpaceOnUse" color-interpolation-filters="sRGB">
<feFlood flood-opacity="0" result="BackgroundImageFix"/>
<feColorMatrix in="SourceAlpha" type="matrix" values="0 0 0 0 0 0 0 0 0 0 0 0 0 0 0 0 0 0 127 0" result="hardAlpha"/>
<feOffset dy="4"/>
<feGaussianBlur stdDeviation="2"/>
<feComposite in2="hardAlpha" operator="out"/>
<feColorMatrix type="matrix" values="0 0 0 0 0 0 0 0 0 0 0 0 0 0 0 0 0 0 0.25 0"/>
<feBlend mode="normal" in2="BackgroundImageFix" result="effect1_dropShadow_667_3299"/>
<feBlend mode="normal" in="SourceGraphic" in2="effect1_dropShadow_667_3299" result="shape"/>
</filter>
<linearGradient id="paint0_linear_667_3299" x1="94" y1="0" x2="94" y2="50" gradientUnits="userSpaceOnUse">
<stop offset="0.203119" stop-color="#F7F6EB"/>
<stop offset="0.778961" stop-color="#BD9540"/>
</linearGradient>
<linearGradient id="paint1_linear_667_3299" x1="94" y1="0" x2="94" y2="50" gradientUnits="userSpaceOnUse">
<stop stop-color="#F7F6EB"/>
<stop offset="0.510417" stop-color="#BD9540"/>
</linearGradient>
</defs>
</svg>
