<?xml version="1.0" encoding="utf-8"?>
<!-- Generator: Adobe Illustrator 24.3.0, SVG Export Plug-In . SVG Version: 6.00 Build 0)  -->
<svg version="1.1" id="Слой_1" xmlns="http://www.w3.org/2000/svg" xmlns:xlink="http://www.w3.org/1999/xlink" x="0px" y="0px"
	 viewBox="0 0 23.7 340.2" style="enable-background:new 0 0 23.7 340.2;" xml:space="preserve">
<style type="text/css">
	.st0{fill:#FED076;}
</style>
<path class="st0" d="M2.8,319.4c0,6.9-0.1,13.9-0.1,20.8H0c0-2.1,0.1-4.3,0.1-6.4c0-44.4,0-88.7,0-133.1c0-66.9,0-133.8,0-200.7h2.7
	v166.4l0,0v38.9C2.8,243.3,2.8,281.3,2.8,319.4z"/>
<path class="st0" d="M8.8,106c0,47.2,0,94.5,0,141.7c0,30.8,0,61.6-0.1,92.4H6c0-6.9,0.1-13.7,0.1-20.6c0-40.6,0-81.2,0-121.9
	c0-65.9,0-131.8,0-197.8h2.8C8.8,35.3,8.8,70.7,8.8,106z"/>
<path class="st0" d="M15.6,324.1c0,5.4,0,10.7-0.1,16.1h-2.8c0-6.3,0.1-12.5,0.1-18.8c0-51.6,0-103.3,0-154.9l0,0V97.9
	c0-32.6,0-65.2,0-97.9h2.8c0,9.8,0,19.5,0,29.2c0,58.1,0,116.1,0,174.2C15.6,243.7,15.6,283.9,15.6,324.1z"/>
<path class="st0" d="M23.7,336.4v3.8h-2.5c0-3.2,0-6.4,0-9.7c0-37.8,0-75.5,0-113.3c0-26.5,0-53.1,0-79.6c0-45.9,0-91.8,0-137.7h2.5
	c0,14.6,0,29.3,0,43.9C23.7,141.4,23.7,238.9,23.7,336.4z"/>
</svg>
