<svg width="34" height="34" viewBox="0 0 34 34" fill="none" xmlns="http://www.w3.org/2000/svg">
<g clip-path="url(#clip0_1644_1783)">
<path fill-rule="evenodd" clip-rule="evenodd" d="M26.9351 2C24.8711 2 23.1257 3.4205 22.6214 5.3276L22.0661 5.0696C21.9671 5.02355 21.8591 4.99969 21.7499 4.99969C21.6407 4.99969 21.5328 5.02355 21.4337 5.0696L12.2498 9.3359L3.0659 5.0699C2.95162 5.01683 2.82582 4.9934 2.7001 5.00179C2.57438 5.01017 2.4528 5.05009 2.34658 5.11786C2.24037 5.18564 2.15293 5.27908 2.09236 5.38956C2.03179 5.50004 2.00002 5.624 2 5.75V26.8361C1.99997 26.9791 2.04081 27.1191 2.11772 27.2397C2.19464 27.3602 2.30441 27.4563 2.4341 27.5165L11.9339 31.9292C12.033 31.9753 12.1409 31.9991 12.2501 31.9991C12.3593 31.9991 12.4672 31.9753 12.5663 31.9292L21.7502 27.6632L30.9341 31.9292C31.4312 32.1599 32 31.7972 32 31.2494V10.1633C32 10.0203 31.9592 9.88028 31.8823 9.75973C31.8054 9.63918 31.6956 9.54313 31.5659 9.4829L30.5969 9.0323L30.9002 8.5157C30.9692 8.3906 31.0241 8.2574 31.0712 8.1212C31.2884 7.59172 31.4001 7.02491 31.4 6.4526C31.4 4.0055 29.3894 2 26.9351 2ZM26.9351 4.0859C28.2566 4.0859 29.3075 5.1347 29.3075 6.4526C29.3075 7.7702 28.2566 8.8181 26.9351 8.8181C25.6136 8.8181 24.5627 7.7702 24.5627 6.4526C24.5627 5.1347 25.6136 4.0859 26.9351 4.0859ZM22.0853 6.7325L22.4984 6.9248C22.579 7.67443 22.8501 8.39096 23.2859 9.0062L26.3903 14.3732C26.8253 14.9414 27.1145 14.8334 27.476 14.3432L29.8331 10.3313L30.5 10.6415V30.074L22.1966 26.2169L22.1288 14.3141C22.2512 14.3405 22.3733 14.366 22.496 14.3951L22.772 13.2278C22.556 13.1767 22.3392 13.1294 22.1216 13.0859L22.0856 6.7325H22.0853ZM21.1859 6.8387L21.2204 12.9395C20.9106 12.897 20.5989 12.8689 20.2865 12.8552L20.2421 14.054C20.5685 14.066 20.8976 14.1014 21.2276 14.1494L21.2966 26.2196L12.6938 30.2165L12.5831 10.8353L21.1859 6.839V6.8387Z" fill="#B9121B"/>
<path fill-rule="evenodd" clip-rule="evenodd" d="M3.5 6.92529L11.6825 10.7263L11.7938 30.2104L3.5 26.3572V6.92529ZM18.9629 12.937C18.5498 13.0111 18.1271 13.1434 17.7335 13.3723C17.2627 13.6449 16.8755 14.0412 16.6139 14.5183L17.6645 15.0979C17.821 14.8129 18.0518 14.5756 18.3323 14.4112L18.3341 14.41L18.3359 14.4088C18.578 14.2678 18.8663 14.173 19.175 14.1178L18.9629 12.937ZM23.9627 13.5463L23.6228 14.6965C24.3737 14.9185 25.1174 15.1735 25.8569 15.4495L26.2766 14.3251C25.517 14.0419 24.7466 13.7779 23.9627 13.5463ZM16.1621 15.8251L16.1531 15.8725L16.1522 15.8767C16.0025 16.726 16.0184 17.5618 16.052 18.3562L17.2508 18.3052C17.2181 17.5345 17.2112 16.7887 17.3339 16.0888L17.3411 16.0513L16.1621 15.8251ZM17.3222 19.4881L16.1252 19.5691C16.1792 20.3698 16.2368 21.1546 16.2347 21.9241L17.4347 21.9271C17.4371 21.0961 17.3762 20.2837 17.3222 19.4881ZM16.175 23.0551C16.142 23.341 16.0928 23.6191 16.0208 23.8861L16.0202 23.8876L16.0196 23.89C15.9146 24.2905 15.7379 24.6613 15.4913 24.9517L16.4054 25.7287C16.7918 25.2742 17.0369 24.7393 17.1794 24.1981L17.18 24.1963C17.27 23.8615 17.3285 23.5243 17.3669 23.1913L16.175 23.0551ZM6.0446 24.2245L5.5058 25.2967C6.2498 25.6708 7.0193 25.9801 7.7942 26.2477L8.1857 25.1134C7.4492 24.8593 6.7301 24.5689 6.0446 24.2245ZM9.2954 25.4584L8.9762 26.6152C9.77 26.8345 10.586 27.0088 11.42 27.1027L11.5538 25.9102C10.7975 25.8253 10.0433 25.6651 9.2954 25.4584ZM14.7377 25.543C14.1401 25.849 13.4186 25.9621 12.6767 25.9711L12.6917 27.1711C13.5419 27.1609 14.4509 27.0379 15.2843 26.611L14.7377 25.543Z" fill="#B9121B"/>
</g>
<defs>
<clipPath id="clip0_1644_1783">
<rect width="30" height="30" fill="white" transform="translate(2 2)"/>
</clipPath>
</defs>
</svg>
