<svg width="30" height="30" viewBox="0 0 30 30" fill="none" xmlns="http://www.w3.org/2000/svg">
<path d="M14.9805 4.48502C15.8664 4.48502 16.7161 4.83696 17.3426 5.46343C17.969 6.0899 18.321 6.93956 18.321 7.82552C18.321 8.71148 17.969 9.56114 17.3426 10.1876C16.7161 10.8141 15.8664 11.166 14.9805 11.166C14.0943 11.166 13.2445 10.814 12.6179 10.1874C11.9912 9.56078 11.6392 8.71092 11.6392 7.82477C11.6392 6.93862 11.9912 6.08876 12.6179 5.46215C13.2445 4.83554 14.0943 4.48352 14.9805 4.48352V4.48502ZM14.9805 5.98502C14.4923 5.98502 14.0242 6.17893 13.679 6.52409C13.3339 6.86925 13.14 7.33739 13.14 7.82552C13.14 8.31365 13.3339 8.78179 13.679 9.12695C14.0242 9.47211 14.4923 9.66602 14.9805 9.66602C15.4688 9.66602 15.9371 9.47203 16.2824 9.12673C16.6277 8.78143 16.8217 8.3131 16.8217 7.82477C16.8217 7.33644 16.6277 6.86811 16.2824 6.52281C15.9371 6.17751 15.4688 5.98352 14.9805 5.98352V5.98502Z" fill="white"/>
<path d="M4.52399 17.25C4.52399 17.4489 4.44497 17.6397 4.30432 17.7803C4.16366 17.921 3.9729 18 3.77399 18C3.57507 18 3.38431 17.921 3.24366 17.7803C3.103 17.6397 3.02399 17.4489 3.02399 17.25V13.521C3.02404 13.1536 3.15892 12.799 3.40306 12.5245C3.6472 12.2499 3.98361 12.0745 4.34849 12.0315L4.52399 12.021H8.65949C8.44123 12.3976 8.30811 12.8175 8.26949 13.251L8.25749 13.521H4.52249V17.25H4.52399ZM26.235 18C26.4339 18 26.6247 17.921 26.7653 17.7803C26.906 17.6397 26.985 17.4489 26.985 17.25V13.521L26.9745 13.347C26.9318 12.9819 26.7566 12.6451 26.482 12.4007C26.2074 12.1562 25.8526 12.0211 25.485 12.021H21.309C21.528 12.4005 21.669 12.8355 21.702 13.2975L21.7095 13.5225H25.485V17.25C25.485 17.4489 25.564 17.6397 25.7047 17.7803C25.8453 17.921 26.0361 18 26.235 18ZM18.711 12.021C19.0786 12.0211 19.4334 12.1562 19.708 12.4007C19.9826 12.6451 20.1578 12.9819 20.2005 13.347L20.2095 13.521V17.25C20.2095 17.4489 20.1305 17.6397 19.9898 17.7803C19.8492 17.921 19.6584 18 19.4595 18C19.2606 18 19.0698 17.921 18.9292 17.7803C18.7885 17.6397 18.7095 17.4489 18.7095 17.25V13.521H11.2575V17.25C11.2575 17.4489 11.1785 17.6397 11.0378 17.7803C10.8972 17.921 10.7064 18 10.5075 18C10.3086 18 10.1178 17.921 9.97716 17.7803C9.8365 17.6397 9.75749 17.4489 9.75749 17.25V13.521C9.75754 13.1536 9.89242 12.799 10.1366 12.5245C10.3807 12.2499 10.7171 12.0745 11.082 12.0315L11.2575 12.021H18.7095H18.711ZM25.332 8.29652C25.332 7.53528 25.0296 6.80522 24.4913 6.26695C23.953 5.72867 23.223 5.42627 22.4617 5.42627C21.7005 5.42627 20.9704 5.72867 20.4322 6.26695C19.8939 6.80522 19.5915 7.53528 19.5915 8.29652C19.5915 9.05776 19.8939 9.78782 20.4322 10.3261C20.9704 10.8644 21.7005 11.1668 22.4617 11.1668C23.223 11.1668 23.953 10.8644 24.4913 10.3261C25.0296 9.78782 25.332 9.05776 25.332 8.29652ZM21.0915 8.29652C21.0915 7.93311 21.2359 7.58458 21.4928 7.32761C21.7498 7.07063 22.0983 6.92627 22.4617 6.92627C22.8251 6.92627 23.1737 7.07063 23.4307 7.32761C23.6876 7.58458 23.832 7.93311 23.832 8.29652C23.832 8.65993 23.6876 9.00846 23.4307 9.26543C23.1737 9.5224 22.8251 9.66677 22.4617 9.66677C22.0983 9.66677 21.7498 9.5224 21.4928 9.26543C21.2359 9.00846 21.0915 8.65993 21.0915 8.29652Z" fill="white"/>
<path d="M7.524 5.42548C8.28524 5.42548 9.01529 5.72788 9.55357 6.26615C10.0918 6.80443 10.3942 7.53449 10.3942 8.29573C10.3942 9.05696 10.0918 9.78702 9.55357 10.3253C9.01529 10.8636 8.28524 11.166 7.524 11.166C6.76276 11.166 6.0327 10.8636 5.49442 10.3253C4.95615 9.78702 4.65375 9.05696 4.65375 8.29573C4.65375 7.53449 4.95615 6.80443 5.49442 6.26615C6.0327 5.72788 6.76276 5.42548 7.524 5.42548ZM7.524 6.92548C7.16058 6.92548 6.81206 7.06984 6.55508 7.32681C6.29811 7.58378 6.15375 7.93231 6.15375 8.29573C6.15375 8.65914 6.29811 9.00767 6.55508 9.26464C6.81206 9.52161 7.16058 9.66598 7.524 9.66598C7.88741 9.66598 8.23594 9.52161 8.49291 9.26464C8.74988 9.00767 8.89425 8.65914 8.89425 8.29573C8.89425 7.93231 8.74988 7.58378 8.49291 7.32681C8.23594 7.06984 7.88741 6.92548 7.524 6.92548Z" fill="white"/>
<path d="M3.75 19.5C3.55109 19.5 3.36032 19.579 3.21967 19.7197C3.07902 19.8603 3 20.0511 3 20.25V21.75C3 22.7446 3.39509 23.6984 4.09835 24.4017C4.80161 25.1049 5.75544 25.5 6.75 25.5H23.25C24.2446 25.5 25.1984 25.1049 25.9016 24.4017C26.6049 23.6984 27 22.7446 27 21.75V20.25C27 20.0511 26.921 19.8603 26.7803 19.7197C26.6397 19.579 26.4489 19.5 26.25 19.5H3.75ZM4.5 21.75V21H25.5V21.75C25.5 22.3467 25.2629 22.919 24.841 23.341C24.419 23.7629 23.8467 24 23.25 24H6.75C6.15326 24 5.58097 23.7629 5.15901 23.341C4.73705 22.919 4.5 22.3467 4.5 21.75Z" fill="white"/>
</svg>
