<svg width="30" height="30" viewBox="0 0 30 30" fill="none" xmlns="http://www.w3.org/2000/svg">
<path d="M11.9531 18.0156H11.4531V18.5156V24.375C11.4531 24.6775 11.333 24.9676 11.119 25.1815C10.9051 25.3955 10.615 25.5156 10.3125 25.5156H5.625C5.32249 25.5156 5.03237 25.3955 4.81846 25.1815C4.60455 24.9676 4.48438 24.6775 4.48438 24.375V6.5625C4.48438 6.50863 4.50578 6.45696 4.54387 6.41887C4.58196 6.38078 4.63363 6.35938 4.6875 6.35938H25.3125C25.3664 6.35938 25.418 6.38078 25.4561 6.41887C25.4942 6.45696 25.5156 6.50863 25.5156 6.5625V20.625C25.5156 20.9275 25.3955 21.2176 25.1815 21.4315C24.9676 21.6455 24.6775 21.7656 24.375 21.7656H19.6875C19.385 21.7656 19.0949 21.6455 18.881 21.4315C18.667 21.2176 18.5469 20.9275 18.5469 20.625V18.5156V18.0156H18.0469H11.9531ZM24.6094 13.8594H25.1094V13.3594V7.26562V6.76562H24.6094H19.4531H18.9531V7.26562V13.3594V13.8594H19.4531H24.6094Z" stroke="white"/>
<path d="M5.89062 24.1094V15.2656H10.0469V24.1094H5.89062ZM10.0469 7.76562V12.8594H5.89062V7.76562H10.0469ZM12.4531 16.6094V7.76562H17.5469V16.6094H12.4531ZM24.1094 15.2656V20.3594H19.9531V15.2656H24.1094Z" fill="white" stroke="white"/>
</svg>
