<svg width="34" height="34" viewBox="0 0 34 34" fill="none" xmlns="http://www.w3.org/2000/svg">
<g clip-path="url(#clip0_1641_1629)">
<path fill-rule="evenodd" clip-rule="evenodd" d="M26.9351 2C24.8711 2 23.1257 3.4205 22.6214 5.3276L22.0661 5.0696C21.9671 5.02355 21.8591 4.99969 21.7499 4.99969C21.6407 4.99969 21.5328 5.02355 21.4337 5.0696L12.2498 9.3359L3.0659 5.0699C2.95162 5.01683 2.82582 4.9934 2.7001 5.00179C2.57438 5.01017 2.4528 5.05009 2.34658 5.11786C2.24037 5.18564 2.15293 5.27908 2.09236 5.38956C2.03179 5.50004 2.00002 5.624 2 5.75V26.8361C1.99997 26.9791 2.04081 27.1191 2.11772 27.2397C2.19464 27.3602 2.30441 27.4563 2.4341 27.5165L11.9339 31.9292C12.033 31.9753 12.1409 31.9991 12.2501 31.9991C12.3593 31.9991 12.4672 31.9753 12.5663 31.9292L21.7502 27.6632L30.9341 31.9292C31.4312 32.1599 32 31.7972 32 31.2494V10.1633C32 10.0203 31.9592 9.88028 31.8823 9.75973C31.8054 9.63918 31.6956 9.54313 31.5659 9.4829L30.5969 9.0323L30.9002 8.5157C30.9692 8.3906 31.0241 8.2574 31.0712 8.1212C31.2884 7.59172 31.4001 7.02491 31.4 6.4526C31.4 4.0055 29.3894 2 26.9351 2ZM26.9351 4.0859C28.2566 4.0859 29.3075 5.1347 29.3075 6.4526C29.3075 7.7702 28.2566 8.8181 26.9351 8.8181C25.6136 8.8181 24.5627 7.7702 24.5627 6.4526C24.5627 5.1347 25.6136 4.0859 26.9351 4.0859ZM22.0853 6.7325L22.4984 6.9248C22.579 7.67443 22.8501 8.39096 23.2859 9.0062L26.3903 14.3732C26.8253 14.9414 27.1145 14.8334 27.476 14.3432L29.8331 10.3313L30.5 10.6415V30.074L22.1966 26.2169L22.1288 14.3141C22.2512 14.3405 22.3733 14.366 22.496 14.3951L22.772 13.2278C22.556 13.1767 22.3392 13.1294 22.1216 13.0859L22.0856 6.7325H22.0853ZM21.1859 6.8387L21.2204 12.9395C20.9106 12.897 20.5989 12.8689 20.2865 12.8552L20.2421 14.054C20.5685 14.066 20.8976 14.1014 21.2276 14.1494L21.2966 26.2196L12.6938 30.2165L12.5831 10.8353L21.1859 6.839V6.8387Z" fill="white"/>
<path fill-rule="evenodd" clip-rule="evenodd" d="M3.5 6.92542L11.6825 10.7264L11.7938 30.2105L3.5 26.3573V6.92542ZM18.9629 12.9371C18.5498 13.0112 18.1271 13.1435 17.7335 13.3724C17.2627 13.645 16.8755 14.0414 16.6139 14.5184L17.6645 15.098C17.821 14.813 18.0518 14.5757 18.3323 14.4113L18.3341 14.4101L18.3359 14.4089C18.578 14.2679 18.8663 14.1731 19.175 14.1179L18.9629 12.9371ZM23.9627 13.5464L23.6228 14.6966C24.3737 14.9186 25.1174 15.1736 25.8569 15.4496L26.2766 14.3252C25.517 14.042 24.7466 13.778 23.9627 13.5464ZM16.1621 15.8252L16.1531 15.8726L16.1522 15.8768C16.0025 16.7261 16.0184 17.5619 16.052 18.3563L17.2508 18.3053C17.2181 17.5346 17.2112 16.7888 17.3339 16.0889L17.3411 16.0514L16.1621 15.8252ZM17.3222 19.4882L16.1252 19.5692C16.1792 20.3699 16.2368 21.1547 16.2347 21.9242L17.4347 21.9272C17.4371 21.0962 17.3762 20.2838 17.3222 19.4882ZM16.175 23.0552C16.142 23.3411 16.0928 23.6192 16.0208 23.8862L16.0202 23.8877L16.0196 23.8901C15.9146 24.2906 15.7379 24.6614 15.4913 24.9518L16.4054 25.7288C16.7918 25.2743 17.0369 24.7394 17.1794 24.1982L17.18 24.1964C17.27 23.8616 17.3285 23.5244 17.3669 23.1914L16.175 23.0552ZM6.0446 24.2246L5.5058 25.2968C6.2498 25.6709 7.0193 25.9802 7.7942 26.2478L8.1857 25.1135C7.4492 24.8594 6.7301 24.569 6.0446 24.2246ZM9.2954 25.4585L8.9762 26.6153C9.77 26.8346 10.586 27.0089 11.42 27.1028L11.5538 25.9103C10.7975 25.8254 10.0433 25.6652 9.2954 25.4585ZM14.7377 25.5431C14.1401 25.8491 13.4186 25.9622 12.6767 25.9712L12.6917 27.1712C13.5419 27.161 14.4509 27.038 15.2843 26.6111L14.7377 25.5431Z" fill="white"/>
</g>
<defs>
<clipPath id="clip0_1641_1629">
<rect width="30" height="30" fill="white" transform="translate(2 2)"/>
</clipPath>
</defs>
</svg>
