<svg width="25" height="25" viewBox="0 0 25 25" fill="none" xmlns="http://www.w3.org/2000/svg">
<path d="M24.5 4.25V6.75H20.75V10.5H18.25V6.75H14.5V4.25H18.25V0.5H20.75V4.25H24.5ZM20.75 21.75H3.25V4.25H10.75V1.75H3.25C2.58757 1.75198 1.95283 2.01601 1.48442 2.48442C1.01601 2.95283 0.751978 3.58757 0.75 4.25V21.75C0.751978 22.4124 1.01601 23.0472 1.48442 23.5156C1.95283 23.984 2.58757 24.248 3.25 24.25H20.75C21.4124 24.248 22.0472 23.984 22.5156 23.5156C22.984 23.0472 23.248 22.4124 23.25 21.75V14.25H20.75V21.75Z" fill="white"/>
</svg>
