<svg width="34" height="34" viewBox="0 0 34 34" fill="none" xmlns="http://www.w3.org/2000/svg">
<path d="M9.51999 7.6275C9.031 7.62701 8.54672 7.72295 8.09486 7.90985C7.64301 8.09675 7.23245 8.37093 6.88668 8.71669C6.54092 9.06246 6.26674 9.47302 6.07984 9.92488C5.89294 10.3767 5.79699 10.861 5.79749 11.35C5.79749 14.1412 9.51999 18.2625 9.51999 18.2625C9.51999 18.2625 13.2425 14.1412 13.2425 11.35C13.243 10.861 13.147 10.3767 12.9601 9.92488C12.7732 9.47302 12.4991 9.06246 12.1533 8.71669C11.8075 8.37093 11.397 8.09675 10.9451 7.90985C10.4933 7.72295 10.009 7.62701 9.51999 7.6275ZM9.51999 12.6787C9.25718 12.6787 9.00028 12.6008 8.78177 12.4548C8.56326 12.3088 8.39295 12.1013 8.29238 11.8585C8.19181 11.6157 8.1655 11.3485 8.21677 11.0908C8.26804 10.833 8.39459 10.5963 8.58042 10.4104C8.76625 10.2246 9.00301 10.0981 9.26076 10.0468C9.51851 9.99551 9.78568 10.0218 10.0285 10.1224C10.2713 10.223 10.4788 10.3933 10.6248 10.6118C10.7708 10.8303 10.8487 11.0872 10.8487 11.35C10.8484 11.7023 10.7083 12.0401 10.4592 12.2892C10.2101 12.5383 9.87229 12.6784 9.51999 12.6787ZM28.28 16.12V10.745C28.2712 10.1806 28.1854 9.61997 28.025 9.07875C27.6148 7.6479 26.7071 6.4106 25.4654 5.58983C24.2236 4.76905 22.7296 4.41878 21.2525 4.60214C19.7753 4.7855 18.4122 5.49043 17.4089 6.5899C16.4055 7.68936 15.8279 9.11105 15.78 10.5987V10.9087L15.7675 11.9962V24.4362H15.7625V24.4875C15.7625 25.1505 15.4991 25.7864 15.0303 26.2553C14.5614 26.7241 13.9255 26.9875 13.2625 26.9875C12.5994 26.9875 11.9636 26.7241 11.4947 26.2553C11.0259 25.7864 10.7625 25.1505 10.7625 24.4875C10.7625 24.4725 10.7662 24.4575 10.7675 24.4412H10.7625V22.0125H8.26249V24.5125H8.26499C8.26582 25.8379 8.79313 27.1087 9.73093 28.0453C10.6687 28.982 11.9402 29.5077 13.2656 29.5069C14.591 29.506 15.8618 28.9787 16.7985 28.0409C17.7351 27.1031 18.2608 25.8317 18.26 24.5062H18.2625V23.2788H18.2687V13.2462L18.2812 10.9087V10.6C18.3169 9.61595 18.738 8.68537 19.4537 8.0091C20.1695 7.33282 21.1224 6.9651 22.1069 6.98528C23.0914 7.00546 24.0285 7.41193 24.7159 8.11697C25.4033 8.82201 25.786 9.76906 25.7812 10.7537V16.0975C25.3026 16.3683 24.9266 16.7896 24.7117 17.2958C24.4968 17.8021 24.4549 18.3651 24.5925 18.8976C24.7302 19.4301 25.0397 19.9023 25.473 20.241C25.9063 20.5797 26.4393 20.766 26.9893 20.7709C27.5392 20.7759 28.0755 20.5992 28.5149 20.2684C28.9542 19.9375 29.2721 19.471 29.4193 18.941C29.5666 18.4111 29.5348 17.8474 29.329 17.3374C29.1233 16.8273 28.755 16.3994 28.2812 16.12H28.28Z" fill="white"/>
</svg>
