<svg width="31" height="32" viewBox="0 0 31 32" fill="none" xmlns="http://www.w3.org/2000/svg">
<path d="M1 3.25C1 2.65326 1.23705 2.08097 1.65901 1.65901C2.08097 1.23705 2.65326 1 3.25 1H21.25C21.8467 1 22.419 1.23705 22.841 1.65901C23.2629 2.08097 23.5 2.65326 23.5 3.25V31H3.25C2.65326 31 2.08097 30.7629 1.65901 30.341C1.23705 29.919 1 29.3467 1 28.75V3.25ZM23.5 16C23.5 15.6022 23.658 15.2206 23.9393 14.9393C24.2206 14.658 24.6022 14.5 25 14.5H28C28.3978 14.5 28.7794 14.658 29.0607 14.9393C29.342 15.2206 29.5 15.6022 29.5 16V28.75C29.5 29.3467 29.2629 29.919 28.841 30.341C28.419 30.7629 27.8467 31 27.25 31H23.5V16Z" stroke="white" stroke-width="2" stroke-linejoin="round"/>
<path d="M5.5 12.25H14.5M5.5 7H11.5H5.5Z" stroke="white" stroke-width="2" stroke-linecap="round" stroke-linejoin="round"/>
</svg>
