<svg width="188" height="68" viewBox="0 0 188 68" fill="none" xmlns="http://www.w3.org/2000/svg">
<g filter="url(#filter0_d_441_2863)">
<rect x="5.5" y="1.5" width="177" height="57" rx="28.5" stroke="url(#paint0_linear_441_2863)" stroke-width="3" shape-rendering="crispEdges"/>
</g>
<path d="M39.2632 15.726V45H36.0292V18.75H31.8712V45H28.6372V15.768L39.2632 15.726ZM43.181 45V14.13C44.889 14.662 46.401 15.376 47.717 16.272C49.061 17.14 50.181 18.148 51.077 19.296C51.973 20.444 52.645 21.704 53.093 23.076C53.569 24.448 53.807 25.89 53.807 27.402C53.807 29.138 53.513 30.762 52.925 32.274C52.337 33.786 51.511 35.13 50.447 36.306C49.635 37.202 48.879 37.888 48.179 38.364C47.479 38.812 46.891 39.162 46.415 39.414V45H43.181ZM46.415 35.76C47.227 35.172 47.899 34.542 48.431 33.87C48.963 33.198 49.383 32.512 49.691 31.812C50.027 31.112 50.251 30.412 50.363 29.712C50.503 29.012 50.573 28.368 50.573 27.78C50.573 27.36 50.531 26.814 50.447 26.142C50.363 25.47 50.167 24.742 49.859 23.958C49.579 23.174 49.159 22.39 48.599 21.606C48.067 20.794 47.339 20.038 46.415 19.338V35.76ZM63.4978 45V25.512L59.6758 32.022V45H56.3998V15.768H59.6758V26.142L66.7318 13.962V45H63.4978ZM70.9555 15.768H80.1955V19.002H74.1895V45H70.9555V15.768ZM88.2982 30.174L85.5262 45H82.2082L88.2982 14.55L94.3882 45H91.1122L88.2982 30.174ZM105.016 45L103.924 38.868H100.48L99.4305 45H96.1125L102.202 14.802L108.292 45H105.016ZM102.202 30.426L101.026 35.844H103.378L102.202 30.426ZM115.857 45C114.009 42.984 112.581 40.73 111.573 38.238C110.565 35.746 110.061 33.086 110.061 30.258C110.061 27.542 110.579 24.952 111.615 22.488C112.651 20.024 114.065 17.77 115.857 15.726H120.519C120.043 16.146 119.399 16.748 118.587 17.532C117.775 18.316 116.963 19.31 116.151 20.514C115.367 21.718 114.681 23.132 114.093 24.756C113.533 26.352 113.253 28.186 113.253 30.258C113.253 32.47 113.533 34.374 114.093 35.97C114.653 37.566 115.311 38.966 116.067 40.17C116.851 41.346 117.649 42.326 118.461 43.11C119.273 43.894 119.959 44.524 120.519 45H115.857ZM130.312 45V25.512L126.49 32.022V45H123.214V15.768H126.49V26.142L133.546 13.962V45H130.312ZM139.996 45V18.96H136.468V15.726H146.8V18.96H143.272V45H139.996ZM153.107 41.766H155.795C156.103 41.766 156.425 41.71 156.761 41.598C157.097 41.486 157.265 41.136 157.265 40.548C157.265 40.072 157.195 39.68 157.055 39.372C156.943 39.036 156.523 38.868 155.795 38.868H153.107V41.766ZM149.873 15.726L153.107 15.768V35.844H156.845C157.265 35.816 157.685 35.858 158.105 35.97C158.553 36.082 158.945 36.292 159.281 36.6C159.645 36.88 159.939 37.272 160.163 37.776C160.387 38.252 160.499 38.854 160.499 39.582V40.926C160.499 41.43 160.401 41.934 160.205 42.438C160.037 42.914 159.743 43.348 159.323 43.74C158.931 44.104 158.413 44.412 157.769 44.664C157.153 44.888 156.397 45 155.501 45H149.873V15.726Z" fill="url(#paint1_linear_441_2863)"/>
<defs>
<filter id="filter0_d_441_2863" x="0" y="0" width="188" height="68" filterUnits="userSpaceOnUse" color-interpolation-filters="sRGB">
<feFlood flood-opacity="0" result="BackgroundImageFix"/>
<feColorMatrix in="SourceAlpha" type="matrix" values="0 0 0 0 0 0 0 0 0 0 0 0 0 0 0 0 0 0 127 0" result="hardAlpha"/>
<feOffset dy="4"/>
<feGaussianBlur stdDeviation="2"/>
<feComposite in2="hardAlpha" operator="out"/>
<feColorMatrix type="matrix" values="0 0 0 0 0 0 0 0 0 0 0 0 0 0 0 0 0 0 0.25 0"/>
<feBlend mode="normal" in2="BackgroundImageFix" result="effect1_dropShadow_441_2863"/>
<feBlend mode="normal" in="SourceGraphic" in2="effect1_dropShadow_441_2863" result="shape"/>
</filter>
<linearGradient id="paint0_linear_441_2863" x1="94" y1="0" x2="94" y2="60" gradientUnits="userSpaceOnUse">
<stop stop-color="#F7F6EB"/>
<stop offset="0.510417" stop-color="#BD9540"/>
</linearGradient>
<linearGradient id="paint1_linear_441_2863" x1="94" y1="0" x2="94" y2="60" gradientUnits="userSpaceOnUse">
<stop offset="0.203119" stop-color="#F7F6EB"/>
<stop offset="0.778961" stop-color="#BD9540"/>
</linearGradient>
</defs>
</svg>
