<svg width="153" height="66" viewBox="0 0 153 66" fill="none" xmlns="http://www.w3.org/2000/svg">
<g filter="url(#filter0_d_308_1764)">
<rect x="14" y="6" width="125" height="38" rx="13" stroke="white" stroke-width="2" shape-rendering="crispEdges"/>
</g>
<path d="M41.5397 29.2394C42.1517 28.5554 42.5837 27.8174 42.8357 27.0254C43.0877 26.2154 43.2137 25.4684 43.2137 24.7844C43.2137 23.9204 43.0427 23.0654 42.7007 22.2194C42.3587 21.3734 41.8637 20.6444 41.2157 20.0324C40.6937 19.5464 40.1717 19.1954 39.6497 18.9794C39.1457 18.7454 38.7497 18.5834 38.4617 18.4934V16.3064C39.4697 16.5944 40.3877 16.9994 41.2157 17.5214C42.0617 18.0434 42.7817 18.6644 43.3757 19.3844C43.9877 20.1044 44.4557 20.9144 44.7797 21.8144C45.1217 22.7144 45.2927 23.6864 45.2927 24.7304C45.2927 25.6844 45.1757 26.5484 44.9417 27.3224C44.7077 28.0784 44.3387 28.8344 43.8347 29.5904C44.8067 30.0404 45.2927 30.8054 45.2927 31.8854V32.7224C45.2927 33.5324 45.0137 34.1804 44.4557 34.6664C43.9157 35.1344 43.1327 35.3684 42.1067 35.3684H39.0017V33.2894H42.1067C42.4127 33.2894 42.6647 33.2444 42.8627 33.1544C43.0787 33.0644 43.1867 32.7854 43.1867 32.3174C43.1867 31.8314 43.0697 31.5434 42.8357 31.4534C42.6017 31.3454 42.3137 31.2914 41.9717 31.2914H40.0007L38.9747 29.2394H41.5397ZM52.561 35.3684L51.859 31.4264H49.645L48.97 35.3684H46.837L50.752 15.9554L54.667 35.3684H52.561ZM50.752 25.9994L49.996 29.4824H51.508L50.752 25.9994ZM56.4518 16.5764H62.3918V18.6554H58.5308V35.3684H56.4518V16.5764ZM64.2257 35.3684V15.5234C65.3237 15.8654 66.2957 16.3244 67.1417 16.9004C68.0057 17.4584 68.7257 18.1064 69.3017 18.8444C69.8777 19.5824 70.3097 20.3924 70.5977 21.2744C70.9037 22.1564 71.0567 23.0834 71.0567 24.0554C71.0567 25.1714 70.8677 26.2154 70.4897 27.1874C70.1117 28.1594 69.5807 29.0234 68.8967 29.7794C68.3747 30.3554 67.8887 30.7964 67.4387 31.1024C66.9887 31.3904 66.6107 31.6154 66.3047 31.7774V35.3684H64.2257ZM66.3047 29.4284C66.8267 29.0504 67.2587 28.6454 67.6007 28.2134C67.9427 27.7814 68.2127 27.3404 68.4107 26.8904C68.6267 26.4404 68.7707 25.9904 68.8427 25.5404C68.9327 25.0904 68.9777 24.6764 68.9777 24.2984C68.9777 24.0284 68.9507 23.6774 68.8967 23.2454C68.8427 22.8134 68.7167 22.3454 68.5187 21.8414C68.3387 21.3374 68.0687 20.8334 67.7087 20.3294C67.3667 19.8074 66.8987 19.3214 66.3047 18.8714V29.4284ZM74.9375 31.3994L71.8865 16.5764H73.9925L75.9905 26.3774L78.0425 16.5764H80.0675L76.1525 35.3684H74.1275L74.9375 31.3994ZM84.5446 29.2394C85.1566 28.5554 85.5886 27.8174 85.8406 27.0254C86.0926 26.2154 86.2186 25.4684 86.2186 24.7844C86.2186 23.9204 86.0476 23.0654 85.7056 22.2194C85.3636 21.3734 84.8686 20.6444 84.2206 20.0324C83.6986 19.5464 83.1766 19.1954 82.6546 18.9794C82.1506 18.7454 81.7546 18.5834 81.4666 18.4934V16.3064C82.4746 16.5944 83.3926 16.9994 84.2206 17.5214C85.0666 18.0434 85.7866 18.6644 86.3806 19.3844C86.9926 20.1044 87.4606 20.9144 87.7846 21.8144C88.1266 22.7144 88.2976 23.6864 88.2976 24.7304C88.2976 25.6844 88.1806 26.5484 87.9466 27.3224C87.7126 28.0784 87.3436 28.8344 86.8396 29.5904C87.8116 30.0404 88.2976 30.8054 88.2976 31.8854V32.7224C88.2976 33.5324 88.0186 34.1804 87.4606 34.6664C86.9206 35.1344 86.1376 35.3684 85.1116 35.3684H82.0066V33.2894H85.1116C85.4176 33.2894 85.6696 33.2444 85.8676 33.1544C86.0836 33.0644 86.1916 32.7854 86.1916 32.3174C86.1916 31.8314 86.0746 31.5434 85.8406 31.4534C85.6066 31.3454 85.3186 31.2914 84.9766 31.2914H83.0056L81.9796 29.2394H84.5446ZM95.2689 35.3684V22.8404L92.8119 27.0254V35.3684H90.7059V16.5764H92.8119V23.2454L97.3479 15.4154V35.3684H95.2689ZM101.494 35.3684V18.6284H99.2261V16.5494H105.868V18.6284H103.6V35.3684H101.494ZM109.923 33.2894H111.651C111.849 33.2894 112.056 33.2534 112.272 33.1814C112.488 33.1094 112.596 32.8844 112.596 32.5064C112.596 32.2004 112.551 31.9484 112.461 31.7504C112.389 31.5344 112.119 31.4264 111.651 31.4264H109.923V33.2894ZM107.844 16.5494L109.923 16.5764V29.4824H112.326C112.596 29.4644 112.866 29.4914 113.136 29.5634C113.424 29.6354 113.676 29.7704 113.892 29.9684C114.126 30.1484 114.315 30.4004 114.459 30.7244C114.603 31.0304 114.675 31.4174 114.675 31.8854V32.7494C114.675 33.0734 114.612 33.3974 114.486 33.7214C114.378 34.0274 114.189 34.3064 113.919 34.5584C113.667 34.7924 113.334 34.9904 112.92 35.1524C112.524 35.2964 112.038 35.3684 111.462 35.3684H107.844V16.5494Z" fill="white"/>
<defs>
<filter id="filter0_d_308_1764" x="0" y="0" width="153" height="66" filterUnits="userSpaceOnUse" color-interpolation-filters="sRGB">
<feFlood flood-opacity="0" result="BackgroundImageFix"/>
<feColorMatrix in="SourceAlpha" type="matrix" values="0 0 0 0 0 0 0 0 0 0 0 0 0 0 0 0 0 0 127 0" result="hardAlpha"/>
<feOffset dy="8"/>
<feGaussianBlur stdDeviation="6.5"/>
<feComposite in2="hardAlpha" operator="out"/>
<feColorMatrix type="matrix" values="0 0 0 0 0 0 0 0 0 0 0 0 0 0 0 0 0 0 0.94 0"/>
<feBlend mode="normal" in2="BackgroundImageFix" result="effect1_dropShadow_308_1764"/>
<feBlend mode="normal" in="SourceGraphic" in2="effect1_dropShadow_308_1764" result="shape"/>
</filter>
</defs>
</svg>
